<?xml version="1.0" encoding="iso-8859-1"?>
<!-- Generator: Adobe Illustrator 16.0.0, SVG Export Plug-In . SVG Version: 6.00 Build 0)  -->
<!DOCTYPE svg PUBLIC "-//W3C//DTD SVG 1.1//EN" "http://www.w3.org/Graphics/SVG/1.1/DTD/svg11.dtd">
<svg version="1.1" id="&#x5716;&#x5C64;_1" xmlns="http://www.w3.org/2000/svg" xmlns:xlink="http://www.w3.org/1999/xlink" x="0px"
	 y="0px" width="500px" height="500px" viewBox="0 0 500 500" style="enable-background:new 0 0 500 500;" xml:space="preserve">
<g>
	<path style="fill:#B28247;" d="M250.007,193.559c42.179,0,76.4-41.544,76.4-92.778c0-51.235-11.249-92.78-76.4-92.78
		c-65.149,0-76.392,41.545-76.392,92.78C173.615,152.015,207.809,193.559,250.007,193.559z"/>
	<path style="fill:#B28247;" d="M105.736,335.234C105.715,332.102,105.702,334.342,105.736,335.234L105.736,335.234z"/>
	<path style="fill:#B28247;" d="M394.279,337.67C394.321,336.807,394.279,331.738,394.279,337.67L394.279,337.67z"/>
	<path style="fill:#B28247;" d="M394.251,337.643v6.934c0,0-6.042,12.168-30.295,23.557c-0.391-0.141-0.78-0.141-1.184-0.141
		c-11.125,0-20.995-6.543-25.13-16.609c-4.232-10.414-1.491-22.428,6.809-30.031c2.631-2.422,2.882-6.402,0.724-9.16
		c-5.693-7.238-12.154-13.727-19.228-19.422c-2.742-2.213-6.794-1.906-9.23,0.781c-7.184,7.975-20.188,10.914-30.295,6.807
		c-10.387-4.469-16.999-14.98-16.346-26.369c0.21-3.578-2.407-6.668-5.944-7.059c-9.092-1.127-18.162-1.127-27.295-0.139
		c-3.501,0.404-6.14,3.48-6,7.016c0.397,11.166-6.279,21.637-16.623,25.828c-9.92,4.051-22.798,1.113-30.017-6.811
		c-2.408-2.602-6.418-2.936-9.161-0.777c-7.324,5.68-13.916,12.223-19.603,19.422c-2.29,2.742-1.984,6.807,0.689,9.244
		c8.472,7.574,11.138,19.742,6.731,30.197c-4.163,10.01-14.5,16.428-26.334,16.428c-0.592,0-1.184,0-1.706,0.127
		c-23.285-11.125-29.112-22.889-29.112-22.889v-9.342c0.07,0.848,0.139,0.43,0.258-6.613
		c1.635-86.933,14.006-111.993,102.253-127.948c0,0,12.558,16.025,41.794,16.025c29.231,0,41.803-16.025,41.803-16.025
		c89.216,16.081,100.869,41.531,102.302,130.802C394.182,335.414,394.251,337.113,394.251,337.643z"/>
	<g id="Settings">
		<g>
			<path style="fill:#B28247;" d="M353.917,375.818c-0.348-2.951-3.744-5.152-6.724-5.152c-9.578,0-18.085-5.625-21.663-14.342
				c-3.634-8.908-1.281-19.309,5.874-25.852c2.229-2.047,2.493-5.5,0.614-7.881c-4.888-6.238-10.471-11.861-16.54-16.734
				c-2.396-1.908-5.903-1.629-7.964,0.641c-6.237,6.904-17.431,9.467-26.091,5.861c-8.979-3.801-14.675-12.906-14.118-22.693
				c0.168-3.092-2.061-5.75-5.13-6.113c-7.811-0.918-15.69-0.932-23.529-0.068c-3.021,0.332-5.277,2.938-5.172,5.986
				c0.348,9.689-5.416,18.656-14.312,22.305c-8.555,3.48-19.659,0.945-25.889-5.891c-2.068-2.256-5.5-2.533-7.895-0.654
				c-6.264,4.887-11.973,10.553-16.922,16.707c-1.921,2.408-1.643,5.875,0.626,7.949c7.274,6.615,9.634,17.084,5.848,26.09
				c-3.606,8.605-12.523,14.146-22.764,14.146c-3.299-0.111-5.659,2.115-6.021,5.137c-0.919,7.838-0.953,15.859-0.049,23.781
				c0.327,2.951,3.85,5.137,6.872,5.137c9.091-0.236,17.834,5.402,21.496,14.313c3.661,8.926,1.301,19.311-5.848,25.881
				c-2.241,2.061-2.52,5.5-0.627,7.867c4.859,6.195,10.428,11.818,16.54,16.734c2.395,1.936,5.875,1.656,7.964-0.627
				c6.258-6.904,17.452-9.494,26.056-5.861c9.021,3.76,14.716,12.906,14.159,22.693c-0.188,3.092,2.082,5.779,5.137,6.111
				c3.989,0.461,8.02,0.711,12.043,0.711c3.815,0,7.671-0.209,11.465-0.654c3.041-0.32,5.298-2.938,5.186-5.986
				c-0.348-9.676,5.402-18.643,14.299-22.291c8.604-3.521,19.672-0.932,25.883,5.891c2.087,2.256,5.525,2.535,7.921,0.668
				c6.237-4.902,11.932-10.553,16.902-16.734c1.935-2.395,1.655-5.891-0.627-7.949c-7.253-6.586-9.635-17.084-5.876-26.078
				c3.579-8.492,12.183-14.186,21.413-14.186l1.295,0.041c3.007,0.236,5.75-2.061,6.126-5.123
				C354.795,391.717,354.81,383.727,353.917,375.818z M250.168,422.514c-19.227,0-34.875-15.648-34.875-34.863
				c0-19.227,15.649-34.875,34.875-34.875c19.255,0,34.875,15.648,34.875,34.875C285.043,406.865,269.423,422.514,250.168,422.514z"
				/>
		</g>
	</g>
</g>
</svg>
