<?xml version="1.0" encoding="iso-8859-1"?>
<!-- Generator: Adobe Illustrator 16.0.0, SVG Export Plug-In . SVG Version: 6.00 Build 0)  -->
<!DOCTYPE svg PUBLIC "-//W3C//DTD SVG 1.1//EN" "http://www.w3.org/Graphics/SVG/1.1/DTD/svg11.dtd">
<svg version="1.1" id="&#x5716;&#x5C64;_1" xmlns="http://www.w3.org/2000/svg" xmlns:xlink="http://www.w3.org/1999/xlink" x="0px"
	 y="0px" width="500px" height="500px" viewBox="0 0 500 500" style="enable-background:new 0 0 500 500;" xml:space="preserve">
<path style="fill:#E35F26;" d="M250,8C157.438,8,82.148,83.291,82.148,175.876c0,31.739,8.884,62.659,25.759,89.458L250,492
	l142.094-226.665c16.849-26.8,25.758-57.72,25.758-89.458C417.852,83.291,342.562,8,250,8z M250,249.032
	c-40.35,0-73.181-32.781-73.181-73.156c0-40.325,32.831-73.23,73.181-73.23c40.351,0,73.205,32.905,73.205,73.23
	C323.205,216.251,290.351,249.032,250,249.032z"/>
</svg>
