<?xml version="1.0" encoding="iso-8859-1"?>
<!-- Generator: Adobe Illustrator 16.0.0, SVG Export Plug-In . SVG Version: 6.00 Build 0)  -->
<!DOCTYPE svg PUBLIC "-//W3C//DTD SVG 1.1//EN" "http://www.w3.org/Graphics/SVG/1.1/DTD/svg11.dtd">
<svg version="1.1" id="&#x5716;&#x5C64;_1" xmlns="http://www.w3.org/2000/svg" xmlns:xlink="http://www.w3.org/1999/xlink" x="0px"
	 y="0px" width="500px" height="500px" viewBox="0 0 500 500" style="enable-background:new 0 0 500 500;" xml:space="preserve">
<g>
	<g>
		<path style="fill:#6E291A;" d="M91.896,199.656c0-9.264-7.512-16.776-16.776-16.776H24.776C15.513,182.88,8,190.393,8,199.656
			s7.513,16.793,16.776,16.793H75.12C84.385,216.449,91.896,208.92,91.896,199.656z"/>
		<path style="fill:#6E291A;" d="M91.896,300.346c0-9.264-7.512-16.793-16.776-16.793H24.776C15.513,283.553,8,291.082,8,300.346
			s7.513,16.775,16.776,16.775H75.12C84.385,317.121,91.896,309.609,91.896,300.346z"/>
		<path style="fill:#6E291A;" d="M58.328,40.252v25.164H75.12c18.528,0,33.552,15.023,33.552,33.567
			c0,18.528-15.023,33.552-33.552,33.552H58.328v33.569H75.12c18.528,0,33.552,15.024,33.552,33.552
			c0,18.545-15.023,33.568-33.552,33.568H58.328v33.553H75.12c18.528,0,33.552,15.023,33.552,33.568
			c0,18.527-15.023,33.551-33.552,33.551H58.328v33.553H75.12c18.528,0,33.552,15.041,33.552,33.568
			c0,18.543-15.023,33.568-33.552,33.568H58.328v25.164c0,13.879,14.316,25.162,31.9,25.162h35.236V15.088H90.229
			C72.645,15.088,58.328,26.372,58.328,40.252z"/>
		<path style="fill:#6E291A;" d="M24.776,115.76H75.12c9.265,0,16.776-7.512,16.776-16.776c0-9.264-7.512-16.775-16.776-16.775
			H24.776C15.513,82.208,8,89.72,8,98.983C8,108.248,15.513,115.76,24.776,115.76z"/>
		<path style="fill:#6E291A;" d="M91.896,401.018c0-9.264-7.512-16.775-16.776-16.775H24.776C15.513,384.242,8,391.754,8,401.018
			s7.513,16.775,16.776,16.775H75.12C84.385,417.793,91.896,410.281,91.896,401.018z"/>
	</g>
	<path style="fill:#6E291A;" d="M462.39,31.881c16.304,0,29.61,10.477,29.61,23.361v12.295v11.084v62.32v31.159v62.32v31.159v62.32
		v31.16v62.32v17.23v6.148c0,12.885-13.307,23.361-29.61,23.361h-3.537V31.881H462.39z"/>
	<path style="fill:#6E291A;" d="M432.51,15.088H142.241v469.824H432.51c6.366,0,11.757-3.84,11.757-8.387V23.476
		C444.267,18.928,438.876,15.088,432.51,15.088z M293.249,145.186c36.011,0,42.209,22.939,42.209,51.271
		c0,28.297-18.896,51.254-42.209,51.254c-23.311,0-42.2-22.957-42.2-51.254C251.049,168.125,257.247,145.186,293.249,145.186z
		 M372.951,327.328c0,0.842,0,2.072,0,3.84c0,0-11.722,23.648-79.702,23.648c-67.971,0-79.71-23.648-79.71-23.648
		c0-2.762,0-4.328,0-5.188c-0.018-0.488-0.018-1.717,0,0c0,0.455,0.033,0.252,0.117-3.672c0.894-48.02,7.73-61.865,56.484-70.674
		c0,0,6.939,8.844,23.108,8.844c16.171,0,23.109-8.844,23.109-8.844c49.284,8.893,55.718,22.957,56.525,72.273
		C372.918,327.074,372.951,327.613,372.951,327.328C372.985,324.043,372.985,326.857,372.951,327.328z"/>
</g>
</svg>
