<?xml version="1.0" encoding="iso-8859-1"?>
<!-- Generator: Adobe Illustrator 16.0.0, SVG Export Plug-In . SVG Version: 6.00 Build 0)  -->
<!DOCTYPE svg PUBLIC "-//W3C//DTD SVG 1.1//EN" "http://www.w3.org/Graphics/SVG/1.1/DTD/svg11.dtd">
<svg version="1.1" id="&#x5716;&#x5C64;_1" xmlns="http://www.w3.org/2000/svg" xmlns:xlink="http://www.w3.org/1999/xlink" x="0px"
	 y="0px" width="500px" height="500px" viewBox="0 0 500 500" style="enable-background:new 0 0 500 500;" xml:space="preserve">
<g>
	<path style="fill:#E35F26;" d="M199.014,444.769c5.904,10.209,2.398,23.31-7.872,29.214c-10.271,5.966-23.371,2.336-29.213-7.873
		l-53.506-92.62l37.023-21.465C207.439,459.344,198.03,443.047,199.014,444.769z"/>
	<polygon style="fill:#E35F26;" points="385.178,107.25 399.97,132.896 386.777,152.884 361.286,108.727 	"/>
	<path style="fill:#E35F26;" d="M272.877,30.066c2.828-4.735,7.442-5.228,9.256-5.105c1.814,0,6.397,0.554,9.133,5.351
		l124.541,215.686c4.058,6.949-0.862,15.806-9.011,16.051c-1.445,0-2.123,0.246-5.874,0.984L269.187,34.863
		C271.954,31.296,272.323,30.989,272.877,30.066z"/>
	<polygon style="fill:#E35F26;" points="254.918,53.006 378.722,267.338 191.941,303.992 135.114,205.591 	"/>
	<g>
		<path style="fill:#E35F26;" d="M479.981,58.111l-44.617,24.785c-3.845,2.152-5.259,7.011-3.077,10.947
			c2.153,3.813,7.013,5.228,10.887,3.075l44.588-24.846c3.875-2.091,5.289-7.011,3.075-10.824
			C488.746,57.373,483.826,56.019,479.981,58.111z"/>
		<path style="fill:#E35F26;" d="M475.277,141.015l-30.873-8.303c-4.306-1.107-8.672,1.415-9.779,5.72
			c-1.229,4.244,1.354,8.61,5.597,9.779l30.935,8.241c4.306,1.168,8.671-1.415,9.841-5.597
			C482.104,146.549,479.582,142.183,475.277,141.015z"/>
		<path style="fill:#E35F26;" d="M397.601,29.021l-8.302,30.936c-1.169,4.304,1.354,8.671,5.658,9.84
			c4.243,1.107,8.673-1.414,9.778-5.658l8.304-30.935c1.138-4.305-1.354-8.671-5.658-9.779
			C403.136,22.255,398.708,24.777,397.601,29.021z"/>
	</g>
	<path style="fill:#E35F26;" d="M118.324,219.305l-83.458,48.218c-16.513,9.53-26.752,27.305-26.752,46.371
		c0,9.348,2.46,18.634,7.196,26.753c14.76,25.584,47.54,34.379,73.094,19.619l83.426-48.155L118.324,219.305z M96.246,330.992
		l-18.512,10.701c-15.437,8.917-35.087,3.505-43.912-11.748c-2.952-5.166-1.199-11.685,3.937-14.637
		c5.104-2.952,11.654-1.169,14.637,3.937c2.952,5.104,9.471,6.826,14.575,3.936l18.574-10.763c5.104-2.89,11.685-1.169,14.576,3.936
		C103.103,321.521,101.35,328.04,96.246,330.992z M133.331,309.59c-5.136,2.951-11.685,1.168-14.638-3.938
		c-2.952-5.104-1.168-11.686,3.937-14.575c5.135-3.014,11.685-1.23,14.637,3.875C140.219,300.057,138.435,306.638,133.331,309.59z"
		/>
</g>
</svg>
