<?xml version="1.0" encoding="iso-8859-1"?>
<!-- Generator: Adobe Illustrator 16.0.0, SVG Export Plug-In . SVG Version: 6.00 Build 0)  -->
<!DOCTYPE svg PUBLIC "-//W3C//DTD SVG 1.1//EN" "http://www.w3.org/Graphics/SVG/1.1/DTD/svg11.dtd">
<svg version="1.1" id="&#x5716;&#x5C64;_1" xmlns="http://www.w3.org/2000/svg" xmlns:xlink="http://www.w3.org/1999/xlink" x="0px"
	 y="0px" width="500px" height="500px" viewBox="0 0 500 500" style="enable-background:new 0 0 500 500;" xml:space="preserve">
<g>
	<polygon style="fill:#E05A3B;" points="143.757,476.196 466.462,263.379 236.621,33.544 23.817,356.25 	"/>
	<polygon style="fill:#E7D9E9;" points="290.012,134.921 74.113,351.604 63.278,340.769 246.684,90.808 	"/>
	<g>
		<path style="fill:#C72F1D;" d="M156.908,463.804c6.975,6.974,7.747,17.81,1.557,23.987l0,0
			c-6.196,6.201-17.025,5.416-23.993-1.545L13.754,365.528c-6.968-6.963-7.741-17.797-1.551-23.986l0,0
			c6.183-6.189,17.031-5.419,23.994,1.544L156.908,463.804z"/>
		<path style="fill:#C72F1D;" d="M482.703,247.12c6.961,6.975,7.745,17.816,1.542,23.994l0,0
			c-6.177,6.202-17.011,5.418-23.972-1.545L230.432,39.734c-6.962-6.961-7.734-17.797-1.544-23.986l0,0
			c6.189-6.189,17.024-5.418,23.987,1.544L482.703,247.12z"/>
		<path style="fill:#C72F1D;" d="M365.073,428.21l-51.062,37.15c-37.923,27.847-91.314,19.341-119.174-18.581l-4.645-6.962
			c-27.867-37.923-19.348-91.314,18.563-119.162l51.081-37.149c37.923-27.868,91.326-19.354,119.174,18.567l4.645,6.964
			C411.516,346.958,403.009,401.121,365.073,428.21z M228.115,348.503c-23.214,16.254-27.865,48.757-11.613,71.973l5.417,6.962
			c16.248,23.215,48.764,27.86,71.979,11.607l51.063-37.15c23.214-16.253,27.859-48.747,11.618-71.961l-4.658-6.974
			c-16.252-23.202-48.744-27.847-71.972-11.595L228.115,348.503z"/>
		<polygon style="fill:#C72F1D;" points="238.944,35.088 236.621,33.544 229.653,43.602 		"/>
		<polygon style="fill:#C72F1D;" points="94.227,425.894 143.757,476.196 466.462,263.379 361.985,158.129 		"/>
	</g>
	<g>
		<path style="fill:#E98F37;" d="M423.894,141.882c-3.088,0-5.417-4.645-5.417-7.746l0,0c0-3.088,2.329-7.734,5.417-7.734h62.681
			c3.09,0,5.419,4.646,5.419,7.734l0,0c0,3.102-2.329,7.746-5.419,7.746H423.894z"/>
		<path style="fill:#E98F37;" d="M423.121,92.353c-2.315,2.323-6.974,0.779-9.29-1.544l0,0c-2.315-2.323-3.86-6.968-1.545-9.291
			l44.102-44.112c2.329-2.317,6.975-0.766,9.303,1.55l0,0c2.302,2.323,3.873,6.968,1.544,9.291L423.121,92.353z"/>
		<path style="fill:#E98F37;" d="M358.123,76.1c0,3.102,4.635,5.417,7.734,5.417l0,0c3.102,0,7.733-2.316,7.733-5.417V13.418
			c0-3.088-4.632-5.411-7.733-5.411l0,0c-3.1,0-7.734,2.323-7.734,5.411V76.1z"/>
	</g>
</g>
</svg>
