<?xml version="1.0" encoding="utf-8"?>
<!-- Generator: Adobe Illustrator 16.0.0, SVG Export Plug-In . SVG Version: 6.00 Build 0)  -->
<!DOCTYPE svg PUBLIC "-//W3C//DTD SVG 1.1//EN" "http://www.w3.org/Graphics/SVG/1.1/DTD/svg11.dtd">
<svg version="1.1" id="圖層_1" xmlns="http://www.w3.org/2000/svg" xmlns:xlink="http://www.w3.org/1999/xlink" x="0px" y="0px"
	 width="500px" height="500px" viewBox="0 0 500 500" enable-background="new 0 0 500 500" xml:space="preserve">
<g>
	<g>
		<g>
			<path d="M469.992,228.041H29.943c-12.106,0-21.947,9.841-21.947,21.947c0,12.171,9.841,22.012,21.947,22.012h440.049
				c12.171,0,22.012-9.841,22.012-22.012C492.004,237.882,482.163,228.041,469.992,228.041z"/>
		</g>
	</g>
	<g>
		<g>
			<path d="M61.02,249.988L232.844,78.164c8.675-8.578,8.675-22.465,0-31.076c-8.546-8.579-22.466-8.579-31.012,0L14.405,234.515
				c-8.546,8.546-8.546,22.465,0,31.012l187.427,187.41c4.273,4.272,9.906,6.408,15.539,6.408c5.632,0,11.265-2.136,15.473-6.408
				c8.675-8.609,8.675-22.497,0-31.076L61.02,249.988z"/>
		</g>
	</g>
</g>
</svg>
