<?xml version="1.0" encoding="utf-8"?>
<!-- Generator: Adobe Illustrator 16.0.0, SVG Export Plug-In . SVG Version: 6.00 Build 0)  -->
<!DOCTYPE svg PUBLIC "-//W3C//DTD SVG 1.1//EN" "http://www.w3.org/Graphics/SVG/1.1/DTD/svg11.dtd">
<svg version="1.1" id="圖層_1" xmlns="http://www.w3.org/2000/svg" xmlns:xlink="http://www.w3.org/1999/xlink" x="0px" y="0px"
	 width="500px" height="500px" viewBox="0 0 500 500" enable-background="new 0 0 500 500" xml:space="preserve">
<g>
	<path fill="#583280" d="M169.626,304.438l28.479,28.488v-100.22H77.015v69.174h86.495
		C165.799,301.88,167.996,302.807,169.626,304.438z M163.51,258.654h17.302v17.313H163.51V258.654z M111.612,275.967H94.309v-17.313
		h17.303V275.967z M146.207,275.967h-17.293v-17.313h17.293V275.967z"/>
	<path fill="#583280" d="M7.814,466.231c0,4.801,3.874,8.675,8.646,8.675h467.087c4.782,0,8.638-3.874,8.638-8.675h-77.848v-17.295
		h77.848v-8.654H310.54v8.654c0,9.547-7.729,17.295-17.293,17.295h-86.494c-9.555,0-17.293-7.748-17.293-17.295v-8.654H7.814v8.654
		h77.848v17.295H7.814z"/>
	<path fill="#583280" d="M25.117,423.008h449.775V154.859c0-14.328-11.621-25.949-25.931-25.949h-0.445
		c-4.375,47.561-43.335,84.52-91.063,86.429l-58.091,58.07c-2.465,2.485-6.209,3.226-9.434,1.891
		c-3.226-1.353-5.339-4.503-5.339-7.987v-51.917h-17.284c-49.165-0.056-90.201-37.533-94.714-86.484H51.057
		c-14.328,0-25.94,11.621-25.94,25.949V423.008z M310.54,301.88h86.504v17.312H310.54V301.88z M258.65,301.88h34.597v17.312H258.65
		V301.88z M258.65,336.484h138.394v17.313H258.65V336.484z M258.65,371.09h138.394v17.313H258.65V371.09z M59.704,224.051
		c0-4.782,3.883-8.656,8.647-8.656h138.402c4.781,0,8.656,3.874,8.656,8.656v129.746c0,3.503-2.114,6.654-5.348,7.988
		c-3.225,1.335-6.941,0.594-9.425-1.891l-40.712-40.705H68.351c-4.764,0-8.647-3.854-8.647-8.637V224.051z"/>
	<path fill="#583280" d="M189.459,120.254c0.046,42.982,34.874,77.811,77.848,77.866h25.939c4.8,0,8.656,3.874,8.656,8.638v39.665
		l45.781-45.782c1.632-1.631,3.817-2.521,6.116-2.521c42.964-0.056,77.812-34.884,77.849-77.866v-17.313
		c-0.037-42.945-34.885-77.773-77.849-77.848h-86.495c-42.973,0.074-77.801,34.902-77.847,77.848L189.459,120.254L189.459,120.254z
		 M232.711,68.374h155.678v17.274H232.711V68.374z M232.711,102.941h155.678v17.313H232.711V102.941z M232.711,137.547h155.678
		v17.313H232.711V137.547z"/>
	<path fill="#583280" d="M206.753,440.282h86.513v8.655h-86.513V440.282L206.753,440.282z"/>
</g>
</svg>
