<?xml version="1.0" encoding="iso-8859-1"?>
<!-- Generator: Adobe Illustrator 16.0.0, SVG Export Plug-In . SVG Version: 6.00 Build 0)  -->
<!DOCTYPE svg PUBLIC "-//W3C//DTD SVG 1.1//EN" "http://www.w3.org/Graphics/SVG/1.1/DTD/svg11.dtd">
<svg version="1.1" id="&#x5716;&#x5C64;_1" xmlns="http://www.w3.org/2000/svg" xmlns:xlink="http://www.w3.org/1999/xlink" x="0px"
	 y="0px" width="500px" height="500px" viewBox="0 0 500 500" style="enable-background:new 0 0 500 500;" xml:space="preserve">
<path style="fill:#3A92B6;" d="M390.716,218.455v-69.701C390.716,71.124,327.591,8,249.986,8
	C172.392,8,109.25,71.124,109.25,148.754v69.701c-20.302,9.248-34.426,29.671-34.426,53.442v161.351
	c0,32.448,26.287,58.752,58.734,58.752h232.865c32.447,0,58.752-26.304,58.752-58.752V271.897
	C425.176,248.126,411.017,227.703,390.716,218.455z M153.722,148.754c0-53.095,43.188-96.266,96.265-96.266
	c53.104,0,96.275,43.17,96.275,96.266v64.391h-192.54V148.754z M140.378,286.021c0-1.146,0.364-2.082,1.093-2.811
	c0.747-0.747,1.666-1.111,2.812-1.111h27.415c20.388,0,37.098,9.18,50.163,27.537c-4.894,7.496-10.498,18.636-16.761,33.385
	c-1.806-3.662-3.314-6.61-4.529-8.851c-1.232-2.255-2.88-4.841-4.963-7.772c-2.082-2.95-4.164-5.24-6.247-6.924
	c-2.064-1.665-4.649-3.105-7.703-4.285c-3.054-1.181-6.386-1.77-9.96-1.77h-27.415c-1.146,0-2.064-0.365-2.812-1.094
	c-0.729-0.729-1.093-1.666-1.093-2.828V286.021z M358.512,410.206l-39.145,39.144c-0.729,0.729-1.666,1.094-2.812,1.094
	c-1.076,0-1.978-0.383-2.776-1.163c-0.763-0.763-1.145-1.683-1.145-2.759v-23.476c-2.604,0-6.074,0.017-10.376,0.068
	c-4.339,0.035-7.636,0.07-9.926,0.104c-2.291,0.053-5.274,0-8.953-0.104c-3.644-0.138-6.559-0.347-8.675-0.624
	c-2.118-0.277-4.721-0.712-7.818-1.283c-3.105-0.573-5.674-1.319-7.72-2.273c-2.03-0.92-4.408-2.1-7.098-3.488
	c-2.689-1.37-5.102-3.002-7.219-4.893c-2.116-1.875-4.354-4.043-6.732-6.523c-2.359-2.5-4.65-5.328-6.854-8.504
	c4.824-7.6,10.377-18.721,16.657-33.418c1.787,3.679,3.297,6.628,4.512,8.884c1.232,2.238,2.881,4.841,4.963,7.773
	s4.164,5.241,6.229,6.906c2.082,1.666,4.659,3.105,7.713,4.285c3.055,1.197,6.386,1.77,9.96,1.77h31.337v-23.493
	c0-1.127,0.347-2.064,1.11-2.811c0.729-0.729,1.666-1.093,2.811-1.093c0.972,0,1.944,0.398,2.915,1.214l39.041,39.023
	c0.729,0.729,1.11,1.665,1.11,2.828C359.622,408.522,359.24,409.459,358.512,410.206z M358.512,300.58l-39.145,39.144
	c-0.729,0.729-1.666,1.111-2.812,1.111c-1.076,0-1.978-0.4-2.776-1.163c-0.763-0.78-1.145-1.701-1.145-2.759V313.42h-31.303
	c-3.921,0-7.46,0.625-10.653,1.838c-3.201,1.216-5.994,3.055-8.441,5.518c-2.464,2.431-4.528,4.945-6.246,7.514
	s-3.558,5.727-5.501,9.492c-2.62,5.048-5.796,12.024-9.543,20.907c-2.36,5.38-4.391,9.908-6.073,13.588
	c-1.648,3.659-3.853,7.946-6.594,12.839c-2.742,4.893-5.345,8.971-7.843,12.233c-2.481,3.279-5.483,6.646-9.04,10.15
	c-3.539,3.521-7.219,6.298-11.001,8.397c-3.8,2.082-8.138,3.782-13.03,5.136c-4.911,1.337-10.116,2.014-15.669,2.014H144.3
	c-1.146,0-2.082-0.364-2.812-1.093c-0.746-0.729-1.11-1.684-1.11-2.829v-23.493c0-1.146,0.364-2.065,1.093-2.795
	c0.747-0.746,1.666-1.11,2.829-1.11h27.397c3.922,0,7.461-0.607,10.637-1.838c3.175-1.216,6.004-3.037,8.45-5.501
	c2.446-2.446,4.528-4.963,6.229-7.514c1.718-2.585,3.557-5.742,5.518-9.491c2.603-5.065,5.795-12.042,9.525-20.925
	c2.377-5.38,4.39-9.908,6.056-13.587c1.666-3.66,3.887-7.946,6.611-12.84c2.724-4.893,5.344-8.971,7.825-12.233
	c2.499-3.262,5.518-6.662,9.058-10.168c3.557-3.504,7.218-6.28,11.019-8.362c3.8-2.082,8.138-3.8,13.03-5.137
	c4.886-1.354,10.125-2.03,15.677-2.03h31.303v-23.476c0-1.163,0.347-2.082,1.11-2.828c0.729-0.729,1.666-1.094,2.775-1.094
	c1.007,0,1.979,0.399,2.95,1.214l39.041,39.042c0.729,0.729,1.11,1.665,1.11,2.811S359.24,299.851,358.512,300.58z"/>
</svg>
