<?xml version="1.0" encoding="iso-8859-1"?>
<!-- Generator: Adobe Illustrator 16.0.0, SVG Export Plug-In . SVG Version: 6.00 Build 0)  -->
<!DOCTYPE svg PUBLIC "-//W3C//DTD SVG 1.1//EN" "http://www.w3.org/Graphics/SVG/1.1/DTD/svg11.dtd">
<svg version="1.1" id="&#x5716;&#x5C64;_1" xmlns="http://www.w3.org/2000/svg" xmlns:xlink="http://www.w3.org/1999/xlink" x="0px"
	 y="0px" width="500px" height="500px" viewBox="0 0 500 500" style="enable-background:new 0 0 500 500;" xml:space="preserve">
<g>
	<path style="fill:#E35F26;" d="M496.815,250.008c0,136.309-110.507,246.816-246.815,246.816
		c-136.318,0-246.815-110.508-246.815-246.816C3.185,113.69,113.682,3.172,250,3.172C386.309,3.172,496.815,113.69,496.815,250.008z
		"/>
	<path style="fill:#FFFFFF;" d="M355.932,199.349h-55.278v-55.293c0-11.197-9.117-20.309-20.325-20.309H144.069
		c-11.208,0-20.326,9.112-20.326,20.309v136.27c0,11.208,9.117,20.32,20.326,20.32h55.288v55.293c0,11.197,9.117,20.31,20.315,20.31
		h136.26c11.208,0,20.32-9.112,20.32-20.31v-136.27C376.252,208.462,367.14,199.349,355.932,199.349z M149.437,274.963V149.429
		h125.528v49.92h-55.293c-11.198,0-20.315,9.113-20.315,20.32v55.293H149.437z M350.568,350.566H225.044v-49.92h55.284
		c11.208,0,20.325-9.112,20.325-20.32v-55.284h49.905v125.524H350.568z"/>
</g>
</svg>
