<?xml version="1.0" encoding="iso-8859-1"?>
<!-- Generator: Adobe Illustrator 16.0.0, SVG Export Plug-In . SVG Version: 6.00 Build 0)  -->
<!DOCTYPE svg PUBLIC "-//W3C//DTD SVG 1.1//EN" "http://www.w3.org/Graphics/SVG/1.1/DTD/svg11.dtd">
<svg version="1.1" id="&#x5716;&#x5C64;_1" xmlns="http://www.w3.org/2000/svg" xmlns:xlink="http://www.w3.org/1999/xlink" x="0px"
	 y="0px" width="500px" height="500px" viewBox="0 0 500 500" style="enable-background:new 0 0 500 500;" xml:space="preserve">
<g>
	<path style="fill:#E35F26;" d="M65.231,203.228l-43.302,92.588c-2.134,4.547,1.496,9.653,6.482,9.135l162.656-16.436
		c2.294-0.239,4.288-1.655,5.246-3.789l52.317-117.918l-178.732,32.83C67.864,200.037,66.109,201.353,65.231,203.228z"/>
	<path style="fill:#E35F26;" d="M248.631,166.807l55.399,121.628c0.958,2.114,3.032,3.57,5.345,3.709l162.378,13.085
		c4.867,0.419,8.378-4.627,6.362-9.096l-42.364-92.826c-0.857-1.915-2.632-3.271-4.708-3.67L248.631,166.807z"/>
	<path style="fill:#E35F26;" d="M203.135,70.789l40.21,69.61c3.072,5.385,10.811,5.385,13.923,0l40.18-69.61
		c3.112-5.345-0.758-12.047-6.961-12.047h-20.096V16.058c0-4.468-3.59-8.058-8.037-8.058H238.22c-4.428,0-8.039,3.59-8.039,8.058
		v42.684h-20.105C203.893,58.742,200.043,65.443,203.135,70.789z"/>
	<path style="fill:#E35F26;" d="M449.793,341.93l-2.952,108.344c0,3.151-2.153,5.665-5.105,6.264l-162.417,34.107
		c-4.109,0.956-20.016,1.355-24.125,1.355V231.231h0.599c2.533,0,6.064,1.177,7.42,3.351l1.196,2.932l7.928,18.93l0,0l28.145,62.947
		c0.797,2.154,2.952,3.71,5.305,3.949l138.104,12.127C447.24,335.667,449.793,338.599,449.793,341.93z"/>
	<path style="fill:#E35F26;" d="M48.357,341.93l2.952,108.344c0,3.151,2.154,5.665,5.086,6.264l162.417,34.107
		c4.109,0.956,20.026,1.355,24.135,1.355V231.231h-0.599c-2.553,0-6.083,1.177-7.44,3.351l-1.177,2.932l-7.938,18.93l0,0
		l-28.124,62.947c-0.797,2.154-2.952,3.71-5.306,3.949L54.261,335.467C50.91,335.667,48.357,338.599,48.357,341.93z"/>
</g>
</svg>
