<?xml version="1.0" encoding="iso-8859-1"?>
<!-- Generator: Adobe Illustrator 16.0.0, SVG Export Plug-In . SVG Version: 6.00 Build 0)  -->
<!DOCTYPE svg PUBLIC "-//W3C//DTD SVG 1.1//EN" "http://www.w3.org/Graphics/SVG/1.1/DTD/svg11.dtd">
<svg version="1.1" id="&#x5716;&#x5C64;_1" xmlns="http://www.w3.org/2000/svg" xmlns:xlink="http://www.w3.org/1999/xlink" x="0px"
	 y="0px" width="500px" height="500px" viewBox="0 0 500 500" style="enable-background:new 0 0 500 500;" xml:space="preserve">
<g>
	<g>
		<path style="fill:#E35F26;" d="M290.088,339.051c-3.958,0-7.456-2.32-8.924-5.912c-1.517-3.682-0.549-7.963,2.401-10.663
			c0.927-0.853,1.048-2.267,0.258-3.268c-2.01-2.551-4.317-4.878-6.827-6.895c-0.975-0.778-2.423-0.677-3.275,0.271
			c-2.57,2.848-7.198,3.911-10.765,2.409c-3.707-1.563-6.055-5.305-5.824-9.357c0.08-1.279-0.84-2.369-2.111-2.518
			c-3.222-0.372-6.482-0.386-9.703-0.027c-1.245,0.137-2.178,1.218-2.138,2.463c0.135,4.006-2.232,7.7-5.9,9.201
			c-3.539,1.448-8.119,0.4-10.69-2.435c-0.846-0.927-2.253-1.042-3.254-0.264c-2.578,2.022-4.946,4.35-6.969,6.9
			c-0.805,0.981-0.683,2.422,0.25,3.275c3.004,2.713,3.978,7.035,2.422,10.771c-1.502,3.531-5.183,5.818-9.391,5.818
			c-1.367-0.041-2.355,0.872-2.49,2.124c-0.379,3.24-0.392,6.543-0.02,9.804c0.135,1.225,1.583,2.125,2.834,2.125
			c3.748-0.096,7.361,2.226,8.864,5.912c1.515,3.682,0.527,7.964-2.409,10.67c-0.92,0.846-1.049,2.268-0.25,3.241
			c1.989,2.558,4.283,4.872,6.813,6.901c0.988,0.805,2.422,0.684,3.281-0.25c2.578-2.855,7.199-3.918,10.765-2.43
			c3.708,1.563,6.062,5.339,5.825,9.364c-0.074,1.272,0.853,2.381,2.104,2.523c1.657,0.189,3.322,0.291,4.98,0.291
			c1.583,0,3.152-0.088,4.742-0.257c1.252-0.143,2.166-1.219,2.131-2.483c-0.154-3.992,2.227-7.693,5.907-9.195
			c3.552-1.44,8.112-0.379,10.684,2.437c0.839,0.927,2.246,1.042,3.247,0.27c2.591-2.021,4.926-4.343,6.982-6.907
			c0.785-0.981,0.677-2.408-0.271-3.274c-2.997-2.72-3.972-7.043-2.408-10.758c1.468-3.505,5.013-5.846,8.829-5.846l0.527,0.007
			c1.238,0.108,2.388-0.853,2.524-2.104c0.372-3.254,0.385-6.556,0.014-9.811C292.727,339.958,291.312,339.051,290.088,339.051z
			 M230.954,347.55c-0.873,0-1.59-0.718-1.59-1.59c-0.014-5.358,2.077-10.515,5.805-14.351c7.909-8.188,20.934-8.39,29.107-0.48
			v-5.799c0-0.872,0.717-1.596,1.589-1.596c0.874,0,1.584,0.724,1.584,1.596v9.527c0.02,0.684-0.426,1.292-1.083,1.501l-9.512,3.181
			c-0.833,0.271-1.727-0.17-2.01-1.008c-0.271-0.826,0.176-1.732,1.001-2.01l7.022-2.341c-3.302-3.606-7.963-5.67-12.861-5.67
			c-9.642,0-17.463,7.808-17.463,17.449C232.544,346.832,231.841,347.55,230.954,347.55z M264.837,360.324
			c-7.908,8.166-20.946,8.382-29.126,0.473v5.785c0,0.886-0.703,1.598-1.583,1.598s-1.583-0.712-1.583-1.598v-9.52
			c0-0.676,0.433-1.292,1.083-1.509l9.526-3.159c0.825-0.284,1.732,0.168,2.002,1.001c0.285,0.832-0.168,1.732-0.994,2.016
			l-7.037,2.334c3.309,3.613,7.977,5.664,12.875,5.664c9.635,0,17.449-7.795,17.449-17.449c0-0.873,0.718-1.583,1.59-1.583
			c0.88,0,1.59,0.71,1.59,1.583C270.636,351.325,268.565,356.467,264.837,360.324z"/>
		<path style="fill:#E35F26;" d="M250,30.679C128.878,30.679,30.679,128.865,30.679,250c0,121.122,98.199,219.321,219.321,219.321
			S469.321,371.122,469.321,250C469.321,128.865,371.122,30.679,250,30.679z M370.743,375.986
			c0,24.926-78.984,31.509-120.743,31.509c-41.772,0-120.743-6.583-120.743-31.509v-16.989c0-17.348,9.445-33.28,24.675-41.582
			l46.84-25.549c4.452-2.441,7.226-7.103,7.226-12.185v-17.368c-3.518-4.601-13.579-18.951-18.39-37.99
			c-4.952-3.972-7.854-9.939-7.854-16.319v-21.001c0-5.054,1.888-9.952,5.244-13.782v-27.916
			c-0.298-2.902-1.449-20.088,10.98-34.262C208.762,98.736,226.265,92.505,250,92.505c23.728,0,41.231,6.231,52.016,18.538
			c12.429,14.174,11.271,31.36,10.981,34.262v27.916c3.362,3.83,5.243,8.728,5.243,13.782v21.001
			c0,8.261-4.804,15.588-12.213,18.978c-3.795,11.042-9.005,21.272-15.507,30.453c-1.306,1.848-2.57,3.519-3.769,4.987v17.746
			c0,5.297,2.937,10.054,7.666,12.423l50.148,25.072c16.149,8.072,26.177,24.312,26.177,42.355V375.986z"/>
	</g>
	<path style="fill:#E35F26;" d="M492,250c0,133.652-108.348,242-242,242S8,383.652,8,250C8,116.334,116.348,8,250,8
		S492,116.334,492,250z M250,13.616C119.46,13.616,13.616,119.446,13.616,250S119.46,486.385,250,486.385
		c130.554,0,236.371-105.831,236.371-236.385S380.554,13.616,250,13.616z"/>
</g>
</svg>
