<?xml version="1.0" encoding="utf-8"?>
<!-- Generator: Adobe Illustrator 16.0.0, SVG Export Plug-In . SVG Version: 6.00 Build 0)  -->
<!DOCTYPE svg PUBLIC "-//W3C//DTD SVG 1.1//EN" "http://www.w3.org/Graphics/SVG/1.1/DTD/svg11.dtd">
<svg version="1.1" id="圖層_1" xmlns="http://www.w3.org/2000/svg" xmlns:xlink="http://www.w3.org/1999/xlink" x="0px" y="0px"
	 width="500px" height="500px" viewBox="0 0 500 500" enable-background="new 0 0 500 500" xml:space="preserve">
<g>
	<path d="M492,250c0,133.659-108.349,242-242,242C116.355,492,8,383.659,8,250C8,116.334,116.355,8,250,8
		C383.651,8,492,116.334,492,250z M250,13.616C119.46,13.616,13.616,119.454,13.616,250c0,130.547,105.844,236.384,236.384,236.384
		c130.547,0,236.378-105.837,236.378-236.384C486.378,119.454,380.547,13.616,250,13.616z"/>
	<g>
		<path d="M250,31.498c-120.472,0-218.496,98.009-218.496,218.496c0,120.5,98.023,218.501,218.496,218.501
			c120.486,0,218.495-98.002,218.495-218.501C468.495,129.507,370.486,31.498,250,31.498z M371.813,177.125L237.348,328.402
			c-3.295,3.715-7.916,5.636-12.578,5.636c-3.68,0-7.381-1.211-10.48-3.675l-84.045-67.238c-7.239-5.777-8.417-16.373-2.625-23.612
			c5.792-7.26,16.387-8.43,23.626-2.639l71.576,57.252l123.855-139.341c6.157-6.942,16.813-7.564,23.741-1.387
			C377.347,159.562,377.981,170.184,371.813,177.125z"/>
	</g>
</g>
</svg>
