<?xml version="1.0" encoding="iso-8859-1"?>
<!-- Generator: Adobe Illustrator 16.0.0, SVG Export Plug-In . SVG Version: 6.00 Build 0)  -->
<!DOCTYPE svg PUBLIC "-//W3C//DTD SVG 1.1//EN" "http://www.w3.org/Graphics/SVG/1.1/DTD/svg11.dtd">
<svg version="1.1" id="&#x5716;&#x5C64;_1" xmlns="http://www.w3.org/2000/svg" xmlns:xlink="http://www.w3.org/1999/xlink" x="0px"
	 y="0px" width="500px" height="500px" viewBox="0 0 500 500" style="enable-background:new 0 0 500 500;" xml:space="preserve">
<g>
	<path style="fill:#0F61A9;" d="M385.569,359.102l-53.076-17.672h-11.527l0.359,0.718c-6.363,18.39-14.103,36.361-23.098,53.555
		l-35.025-35.006l18.271-19.267h-66.698l19.687,19.687l-32.711,34.546c-9.035-17.194-16.774-35.144-23.098-53.515l0.379-0.718
		h-11.548l-53.075,17.672c-54.531,18.171-91.311,75.415-91.311,132.899h453.803C476.901,434.517,440.081,377.272,385.569,359.102z"
		/>
	<g>
		<path style="fill:#0F61A9;" d="M336.025,225.726v0.02c-0.938,6.382-1.696,10.491-3.571,21.96
			c-5.484,32.791-29.918,62.41-62.19,70.488c-13.283,3.311-27.266,3.311-40.549,0c-20.145-5.026-38.635-18.988-50.543-38.975h21.023
			c4.269,12.009,15.697,20.625,29.181,20.625h20.583c17.113,0,30.977-13.862,30.977-30.937c0-17.054-13.902-30.935-30.977-30.935
			h-20.583c-13.763,0-25.052,8.855-29.201,20.624h-30.077c-5.167-17.203-11.051-67.735-12.366-100.087l13.882-18.5
			c12.726-17.003,32.571-27.564,53.653-28.781c27.805,26.418,63.706,43.89,101.643,49.295l15.179,2.154
			C341.07,184.218,338.997,205.849,336.025,225.726z"/>
		<path style="fill:#0F61A9;" d="M219.044,268.907c0-5.705,4.627-10.312,10.332-10.312h20.583c5.703,0,10.353,4.606,10.353,10.312
			c0,5.726-4.607,10.312-10.353,10.312h-20.583C223.671,279.219,219.044,274.592,219.044,268.907z"/>
		<path style="fill:#0F61A9;" d="M342.746,141.864c0,0,0,0.039,0,0.069l-12.925-1.835c-35.064-5.016-68.094-21.582-93.166-46.583
			c-1.935-1.945-4.567-3.032-7.279-3.032c-27.704,0-54.213,12.635-71.744,33.937c4.328-41.975,39.831-75.195,83.133-75.195h18.45
			c46.212,0,83.632,37.827,83.592,83.961C342.807,136.438,342.786,139.261,342.746,141.864z"/>
		<path style="fill:#0F61A9;" d="M383.676,131.762h-20.267c-0.737-56.956-47.11-103.139-104.194-103.139h-18.45
			c-57.085,0-103.458,46.184-104.176,103.139h-20.265C121.529,62.61,179.192,7.999,249.959,7.999
			C320.447,7.999,378.409,62.61,383.676,131.762z"/>
		<path style="fill:#0F61A9;" d="M398.493,152.365v54.67c0,5.666-7.199,10.313-16.056,10.313h-24.414
			c4.07-20.314,5.826-41.916,6.903-63.198c0.039-0.609,0.078-1.187,0.118-1.785H398.493z"/>
		<path style="fill:#0F61A9;" d="M101.484,152.365v54.67c0,5.666,7.22,10.313,16.056,10.313h24.434
			c-4.069-20.314-5.844-41.916-6.921-63.198c-0.02-0.609-0.1-1.187-0.1-1.785H101.484z"/>
	</g>
</g>
</svg>
