<?xml version="1.0" encoding="iso-8859-1"?>
<!-- Generator: Adobe Illustrator 16.0.0, SVG Export Plug-In . SVG Version: 6.00 Build 0)  -->
<!DOCTYPE svg PUBLIC "-//W3C//DTD SVG 1.1//EN" "http://www.w3.org/Graphics/SVG/1.1/DTD/svg11.dtd">
<svg version="1.1" id="&#x5716;&#x5C64;_1" xmlns="http://www.w3.org/2000/svg" xmlns:xlink="http://www.w3.org/1999/xlink" x="0px"
	 y="0px" width="500px" height="500px" viewBox="0 0 500 500" style="enable-background:new 0 0 500 500;" xml:space="preserve">
<g>
	<g>
		<g>
			<path style="fill:#7F8081;" d="M111.976,468.638c0.53,13.072,11.305,23.361,24.289,23.361h227.493
				c13.071,0,23.758-10.289,24.266-23.361l16.229-342.773H95.77L111.976,468.638z M301.424,211.006c0-5.454,4.505-9.892,9.981-9.892
				h15.81c5.432,0,9.804,4.438,9.804,9.892v195.897c0,5.431-4.35,9.935-9.804,9.935h-15.81c-5.477,0-9.981-4.504-9.981-9.935
				V211.006z M232.27,211.006c0-5.454,4.372-9.892,9.87-9.892h15.744c5.563,0,9.936,4.438,9.936,9.892v195.897
				c0,5.431-4.372,9.935-9.936,9.935h-15.744c-5.476,0-9.87-4.504-9.87-9.935V211.006L232.27,211.006z M162.938,211.006
				c0-5.454,4.549-9.892,9.914-9.892h15.898c5.432,0,9.848,4.438,9.848,9.892v195.897c0,5.431-4.394,9.935-9.848,9.935h-15.898
				c-5.343,0-9.914-4.504-9.914-9.935V211.006z"/>
			<path style="fill:#7F8081;" d="M415.139,32.907H310.257V13.123c0-2.826-2.363-5.123-5.145-5.123H194.888
				c-2.826,0-5.035,2.297-5.035,5.123v19.784H84.839c-8.39,0-15.213,6.867-15.213,15.346v47.98h360.747v-47.98
				C430.418,39.751,423.617,32.907,415.139,32.907z"/>
		</g>
	</g>
</g>
</svg>
