<?xml version="1.0" encoding="iso-8859-1"?>
<!-- Generator: Adobe Illustrator 16.0.0, SVG Export Plug-In . SVG Version: 6.00 Build 0)  -->
<!DOCTYPE svg PUBLIC "-//W3C//DTD SVG 1.1//EN" "http://www.w3.org/Graphics/SVG/1.1/DTD/svg11.dtd">
<svg version="1.1" id="&#x5716;&#x5C64;_1" xmlns="http://www.w3.org/2000/svg" xmlns:xlink="http://www.w3.org/1999/xlink" x="0px"
	 y="0px" width="500px" height="500px" viewBox="0 0 500 500" style="enable-background:new 0 0 500 500;" xml:space="preserve">
<g>
	<path style="fill:#898989;" d="M486.813,138.117l-24.196-24.197c-3.195-3.26-6.958-4.857-11.159-4.857
		c-4.156,0-7.875,1.597-11.113,4.857l-190.35,190.316L59.657,113.919c-3.238-3.26-6.936-4.857-11.158-4.857
		c-4.201,0-7.897,1.597-11.114,4.857l-24.196,24.197c-3.238,3.238-4.857,6.935-4.857,11.157c0,4.157,1.619,7.876,4.857,11.136
		l225.648,225.692c3.238,3.216,6.936,4.835,11.157,4.835c4.202,0,7.877-1.619,11.137-4.835L486.813,160.41
		c3.282-3.26,4.856-6.979,4.856-11.136C491.669,145.052,490.095,141.354,486.813,138.117z"/>
</g>
</svg>
