<?xml version="1.0" encoding="iso-8859-1"?>
<!-- Generator: Adobe Illustrator 16.0.0, SVG Export Plug-In . SVG Version: 6.00 Build 0)  -->
<!DOCTYPE svg PUBLIC "-//W3C//DTD SVG 1.1//EN" "http://www.w3.org/Graphics/SVG/1.1/DTD/svg11.dtd">
<svg version="1.1" id="&#x5716;&#x5C64;_1" xmlns="http://www.w3.org/2000/svg" xmlns:xlink="http://www.w3.org/1999/xlink" x="0px"
	 y="0px" width="500px" height="500px" viewBox="0 0 500 500" style="enable-background:new 0 0 500 500;" xml:space="preserve">
<g>
	<path style="fill:#EC6B56;" d="M393.074,491.854H78.607c-35.745,0-64.896-29.185-64.93-64.931v-317.31
		c0.033-35.746,29.185-64.865,64.93-64.929h203.158c8.984,0,16.226,7.304,16.226,16.257c0,8.984-7.241,16.224-16.226,16.224H78.607
		c-17.84,0-32.448,14.641-32.448,32.449v317.31c0,17.872,14.608,32.353,32.448,32.45h314.467
		c17.841-0.098,32.416-14.578,32.447-32.45V210.125c0-8.92,7.271-16.224,16.225-16.224c8.983,0,16.255,7.304,16.255,16.224v216.797
		C457.971,462.669,428.819,491.854,393.074,491.854z"/>
	<g>
		<path style="fill:#EC6B56;" d="M180.251,250.137L378.723,51.664l63.993,64.024l-198.44,198.474L180.251,250.137z"/>
		<path style="fill:#EC6B56;" d="M147.899,346.515l70.715-19.587l-51.129-51.162L147.899,346.515z"/>
		<path style="fill:#EC6B56;" d="M460.427,18.084c-13.283-13.25-34.775-13.25-48.059,0l-14.414,14.415l63.958,63.992l14.448-14.415
			c13.282-13.251,13.282-34.776,0-48.091L460.427,18.084z"/>
	</g>
</g>
</svg>
