<?xml version="1.0" encoding="iso-8859-1"?>
<!-- Generator: Adobe Illustrator 16.0.0, SVG Export Plug-In . SVG Version: 6.00 Build 0)  -->
<!DOCTYPE svg PUBLIC "-//W3C//DTD SVG 1.1//EN" "http://www.w3.org/Graphics/SVG/1.1/DTD/svg11.dtd">
<svg version="1.1" id="&#x5716;&#x5C64;_1" xmlns="http://www.w3.org/2000/svg" xmlns:xlink="http://www.w3.org/1999/xlink" x="0px"
	 y="0px" width="500px" height="500px" viewBox="0 0 500 500" style="enable-background:new 0 0 500 500;" xml:space="preserve">
<g>
	<path style="fill:#E35F26;" d="M491.382,167.046c-1.046-3.079-3.202-5.604-6.066-7.021l-10.839-5.512
		c-2.863-1.447-6.189-1.694-9.238-0.708c-3.048,0.984-5.603,3.202-7.051,6.035l-13.671,27.035
		c-8.037-26.819-21.34-51.792-39.291-73.532c-25.62-30.915-59.399-53.825-97.797-66.203c-21.124-6.774-42.925-10.224-64.818-10.224
		c-33.486,0-65.68,7.822-95.841,23.279c-50.068,25.619-87.127,69.252-104.401,122.8c-2.018,6.405,1.447,13.18,7.836,15.242
		l11.563,3.727c6.374,2.063,13.21-1.416,15.257-7.821c14.288-44.28,44.942-80.368,86.342-101.554
		c24.942-12.81,51.624-19.276,79.26-19.276c18.105,0,36.15,2.833,53.624,8.499c57.336,18.414,100.661,65.28,115.35,122.615
		l-35.104-17.798c-5.973-3.018-13.271-0.616-16.32,5.357l-5.48,10.84c-1.446,2.894-1.662,6.22-0.677,9.237
		c0.985,3.079,3.172,5.604,6.034,7.082l75.874,38.429c1.785,0.863,3.664,1.263,5.48,1.263c4.434,0,8.715-2.433,10.839-6.651
		l38.429-75.902C492.09,173.451,492.367,170.125,491.382,167.046z"/>
	<path style="fill:#E35F26;" d="M449.781,301.731l-11.547-3.694c-6.373-2.095-13.21,1.446-15.242,7.82
		c-14.318,44.28-44.958,80.369-86.373,101.554c-24.941,12.81-51.607,19.307-79.243,19.307c-18.122,0-36.151-2.862-53.656-8.469
		c-57.304-18.536-100.629-65.341-115.348-122.676l35.149,17.798c5.959,3.018,13.271,0.616,16.274-5.357l5.512-10.84
		c1.447-2.894,1.678-6.219,0.692-9.236c-1-3.08-3.171-5.605-6.065-7.082l-75.904-38.43c-5.958-3.018-13.256-0.616-16.304,5.389
		L9.328,323.718c-1.432,2.834-1.693,6.159-0.693,9.237c0.985,3.079,3.171,5.604,6.036,7.021l10.838,5.512
		c5.974,3.048,13.272,0.585,16.29-5.327l13.656-26.975c8.052,26.727,21.355,51.731,39.322,73.471
		c25.62,30.915,59.414,53.825,97.796,66.203c21.078,6.774,42.895,10.223,64.803,10.223c32.994,0,66.125-8.065,95.842-23.278
		c50.067-25.618,87.142-69.282,104.415-122.799c0.954-3.08,0.709-6.406-0.8-9.239C455.386,304.873,452.83,302.717,449.781,301.731z"
		/>
	<path style="fill:#E35F26;" d="M251.557,297.667c-11.317,0-23.542-4.927-30.47-12.193l-5.388-5.728
		c-1.386-1.478-3.695-1.54-5.173-0.123l-20.246,19.152c-0.693,0.678-1.093,1.603-1.154,2.588c-0.016,0.923,0.338,1.848,1.031,2.585
		l5.419,5.697c9.331,9.884,22.895,17.397,37.644,20.939v20.107c0,2.001,1.586,3.633,3.603,3.633h27.929c2,0,3.633-1.632,3.633-3.633
		v-19.399c26.296-4.989,42.463-21.924,42.463-44.711c0.308-35.966-30.978-45.389-51.701-51.701
		c-24.864-7.481-28.621-11.3-28.621-20.353c0-9.577,15.874-12.133,25.25-12.133c8.944,0,19.938,2.895,26.189,6.959l6.65,4.28
		c1.693,1.077,3.941,0.585,5.02-1.077l15.15-23.434c1.077-1.693,0.585-3.972-1.108-5.02l-6.591-4.311
		c-8.807-5.728-20.585-9.854-32.701-11.64v-18.846c0-2.001-1.633-3.633-3.633-3.633h-27.929c-2.017,0-3.603,1.632-3.603,3.633
		v20.755c-23.448,6.467-37.874,23.341-37.874,44.465c0,37.813,33.563,47.974,53.609,54.071c23.448,7.081,26.773,10.16,26.697,17.798
		C275.651,295.266,260.501,297.667,251.557,297.667z"/>
</g>
</svg>
