<?xml version="1.0" encoding="utf-8"?>
<!-- Generator: Adobe Illustrator 16.0.0, SVG Export Plug-In . SVG Version: 6.00 Build 0)  -->
<!DOCTYPE svg PUBLIC "-//W3C//DTD SVG 1.1//EN" "http://www.w3.org/Graphics/SVG/1.1/DTD/svg11.dtd">
<svg version="1.1" id="圖層_1" xmlns="http://www.w3.org/2000/svg" xmlns:xlink="http://www.w3.org/1999/xlink" x="0px" y="0px"
	 width="500px" height="500px" viewBox="0 0 500 500" enable-background="new 0 0 500 500" xml:space="preserve">
<path d="M485.363,103.042c-0.038-0.082-0.066-0.178-0.115-0.24c-0.01-0.072-0.066-0.121-0.096-0.184
	c-1.3-2.486-2.703-4.741-4.186-6.593L422.835,23.08c-5.482-6.867-13.812-10.883-22.622-10.883l0,0H99.776l0,0
	c-8.798,0-17.128,4.016-22.618,10.883L19.035,96.025c-1.435,1.78-2.796,3.973-4.059,6.382c-0.075,0.125-0.159,0.264-0.217,0.395
	c-0.036,0.043-0.061,0.076-0.061,0.105C10.768,110.559,8,120.312,8,127.578v0.981v53.429v269.629
	c0,19.969,16.18,36.185,36.158,36.185h175.154h61.365h175.169c19.968,0,36.154-16.216,36.154-36.185V181.989V128.56v-0.981
	C492,120.35,489.269,110.669,485.363,103.042z M45.413,411.078l-14.586,19.448V150.345l14.586,19.453V411.078z M38.021,95.396
	l19.246-24.138H188.6l12.966-21.319H74.258l14.216-17.837c2.75-3.453,6.881-5.444,11.302-5.444h300.437
	c4.424,0,8.542,1.991,11.312,5.444l14.196,17.837H296.145l7.252,21.319h139.319l19.247,24.138H38.021z M469.167,430.526
	l-14.572-19.448v-241.28l14.572-19.453V430.526z"/>
</svg>
