<?xml version="1.0" encoding="iso-8859-1"?>
<!-- Generator: Adobe Illustrator 16.0.0, SVG Export Plug-In . SVG Version: 6.00 Build 0)  -->
<!DOCTYPE svg PUBLIC "-//W3C//DTD SVG 1.1//EN" "http://www.w3.org/Graphics/SVG/1.1/DTD/svg11.dtd">
<svg version="1.1" id="&#x5716;&#x5C64;_1" xmlns="http://www.w3.org/2000/svg" xmlns:xlink="http://www.w3.org/1999/xlink" x="0px"
	 y="0px" width="500px" height="500px" viewBox="0 0 500 500" style="enable-background:new 0 0 500 500;" xml:space="preserve">
<g>
	<path style="fill:#E35F26;" d="M435.216,293.688v135.004l-176.987,59.009V287.048l2.332-3.88l41.787,52.23
		C302.583,335.32,371.896,313.554,435.216,293.688z"/>
	<path style="fill:#E35F26;" d="M491.835,124.4l-64.887,64.827l-76.758-25.586c13.008-17.554,20.688-39.241,20.688-62.83
		c0-4.799-0.313-9.442-0.978-14.065L491.835,124.4z"/>
	<path style="fill:#E35F26;" d="M249.98,248.237l52.328,65.415c0.393-0.099,189.135-59.421,189.487-59.519l-64.887-64.887
		L249.98,248.237z"/>
	<path style="fill:#E35F26;" d="M31.596,258.326c33.775,11.266,143.036,47.666,176.93,58.97l41.455-69.059l-176.93-58.99
		L31.596,258.326z"/>
	<path style="fill:#E35F26;" d="M173.79,155.688l-100.739,33.54L8.165,124.4l153.224-47.765c-1.9,7.798-2.821,15.909-2.821,24.176
		C158.567,120.834,164.111,139.642,173.79,155.688z"/>
	<path style="fill:#E35F26;" d="M209.799,340.121c-23.49-7.855-76.132-25.411-125.385-41.81v130.381l157.279,59.009V287.048
		L209.799,340.121z M143.385,357.909c5.445,0,9.835,4.408,9.835,9.835s-4.39,9.835-9.835,9.835c-5.408,0-9.816-4.408-9.816-9.835
		S137.977,357.909,143.385,357.909z M211.563,434.374c-1.47,3.957-5.212,6.387-9.189,6.387c-1.155,0-2.331-0.196-3.467-0.627
		l-58.97-22.117c-5.095-1.901-7.661-7.563-5.761-12.657c1.92-5.074,7.582-7.66,12.656-5.76l59.01,22.118
		C210.916,423.638,213.481,429.301,211.563,434.374z M211.563,392.389c-1.881,5.075-7.543,7.66-12.656,5.741l-21.864-8.189
		c-5.074-1.899-7.641-7.563-5.721-12.655c1.9-5.094,7.563-7.66,12.656-5.739l21.864,8.188
		C210.916,381.635,213.481,387.315,211.563,392.389z"/>
	<path style="fill:#E35F26;" d="M264.713,12.299c-48.547,0-88.454,39.3-88.454,88.474c0,48.764,39.495,88.475,88.454,88.475
		c48.489,0,88.476-39.241,88.476-88.475C353.188,52.088,313.769,12.299,264.713,12.299z M310.987,78.224l-58.989,58.989
		c-3.839,3.84-10.069,3.84-13.909,0l-19.67-19.65c-3.82-3.84-3.82-10.07,0-13.909c3.879-3.82,10.09-3.82,13.909,0l12.735,12.714
		l52.014-52.034c3.86-3.84,10.051-3.84,13.91,0C314.828,68.173,314.828,74.403,310.987,78.224z"/>
</g>
</svg>
