<?xml version="1.0" encoding="iso-8859-1"?>
<!-- Generator: Adobe Illustrator 16.0.0, SVG Export Plug-In . SVG Version: 6.00 Build 0)  -->
<!DOCTYPE svg PUBLIC "-//W3C//DTD SVG 1.1//EN" "http://www.w3.org/Graphics/SVG/1.1/DTD/svg11.dtd">
<svg version="1.1" id="&#x5716;&#x5C64;_1" xmlns="http://www.w3.org/2000/svg" xmlns:xlink="http://www.w3.org/1999/xlink" x="0px"
	 y="0px" width="500px" height="500px" viewBox="0 0 500 500" style="enable-background:new 0 0 500 500;" xml:space="preserve">
<g>
	<path style="fill:#108F47;" d="M69.175,85.636H10.343c0,0-12.929-49.163,26.256-54.686C53.766,34.264,63.58,54.998,69.175,85.636z"
		/>
	<path style="fill:#108F47;" d="M419.442,402.231c-17.274-119.294,19.52-371.933-50.159-371.933H44.349
		c47.315,0,45.505,116.505,44.908,228.664c6.247-1.412,12.748-2.173,19.375-2.173c48.493,0,87.769,39.275,87.769,87.769
		c0,22.055-8.185,42.264-21.639,57.673H419.442z M373.448,354.318c4.093,0,7.388,3.387,7.388,7.479c0,4.091-3.295,7.388-7.388,7.388
		h-55.155c-4.094,0-7.388-3.297-7.388-7.388c0-4.093,3.294-7.479,7.388-7.479H373.448z M130.687,103.798h102.888
		c4.111,0,7.424,3.422,7.424,7.478c0,4.128-3.313,7.515-7.424,7.515H130.687c-4.111,0-7.424-3.387-7.424-7.515
		C123.263,107.221,126.576,103.798,130.687,103.798z M130.687,148.361h228.566c4.128,0,7.424,3.332,7.424,7.406
		c0,4.165-3.296,7.479-7.424,7.479H130.687c-4.111,0-7.424-3.314-7.424-7.479C123.263,151.693,126.576,148.361,130.687,148.361z
		 M130.687,188.85h228.566c4.128,0,7.424,3.314,7.424,7.424c0,4.165-3.296,7.479-7.424,7.479H130.687
		c-4.111,0-7.424-3.314-7.424-7.479C123.263,192.164,126.576,188.85,130.687,188.85z M130.687,244.242
		c-4.111,0-7.424-3.368-7.424-7.479c0-4.092,3.313-7.424,7.424-7.424h178.915c4.091,0,7.424,3.332,7.424,7.424
		c0,4.11-3.333,7.479-7.424,7.479H130.687z"/>
	<path style="fill:#108F47;" d="M105.861,469.701c59.864-21.621,64.88-55.319,64.88-55.319h318.923c0,0,14.522,55.319-34.007,55.319
		H105.861z"/>
	<path style="fill:#108F47;" d="M108.65,267.039c-42.825,0-77.519,34.713-77.519,77.52c0,42.789,34.694,77.501,77.519,77.501
		c42.807,0,77.501-34.712,77.501-77.501C186.151,301.752,151.457,267.039,108.65,267.039z M47.301,347.167h-2.916
		c-1.629,0-2.933-1.323-2.933-2.916c0-1.648,1.304-2.952,2.933-2.952h2.916c1.611,0,2.915,1.304,2.915,2.952
		C50.216,345.844,48.913,347.167,47.301,347.167z M105.716,279.95c0-1.594,1.322-2.897,2.934-2.897c1.612,0,2.915,1.304,2.915,2.897
		v2.934c0,1.593-1.303,2.915-2.915,2.915c-1.611,0-2.934-1.322-2.934-2.915V279.95z M67.346,389.666l-2.064,2.063
		c-0.58,0.562-1.322,0.887-2.064,0.887c-0.761,0-1.503-0.325-2.083-0.887c-1.141-1.123-1.141-2.971,0-4.13l2.083-2.063
		c1.123-1.123,2.97-1.123,4.128,0C68.469,386.659,68.469,388.507,67.346,389.666z M67.346,302.893
		c-0.579,0.598-1.34,0.888-2.064,0.888c-0.761,0-1.503-0.29-2.064-0.888l-2.083-2.028c-1.141-1.158-1.141-3.005,0-4.164
		c1.141-1.123,2.988-1.123,4.147,0l2.064,2.083C68.469,299.923,68.469,301.77,67.346,302.893z M111.565,408.479
		c0,1.629-1.303,2.914-2.915,2.914c-1.611,0-2.934-1.285-2.934-2.914v-2.898c0-1.647,1.322-2.915,2.934-2.915
		c1.612,0,2.915,1.268,2.915,2.915V408.479z M108.65,349.974c-2.625,0-4.834-1.793-5.523-4.166H78.826
		c-0.869,0-1.557-0.743-1.557-1.557c0-0.888,0.688-1.612,1.557-1.612h24.301c0.543-1.883,2.028-3.403,3.948-3.947v-31.489
		c0-0.851,0.707-1.557,1.575-1.557c0.851,0,1.558,0.706,1.558,1.557v31.489c2.408,0.706,4.183,2.935,4.183,5.56
		C114.39,347.401,111.819,349.974,108.65,349.974z M156.146,391.729c-0.579,0.562-1.34,0.887-2.064,0.887
		c-0.76,0-1.484-0.325-2.064-0.887l-2.064-2.063c-1.159-1.159-1.159-3.007,0-4.13c1.141-1.123,2.988-1.123,4.128,0l2.064,2.063
		C157.305,388.759,157.305,390.606,156.146,391.729z M156.146,300.864l-2.064,2.028c-0.58,0.598-1.321,0.888-2.064,0.888
		c-0.76,0-1.485-0.29-2.064-0.888c-1.159-1.123-1.159-2.97,0-4.109l2.064-2.083c1.159-1.123,2.988-1.123,4.128,0
		C157.305,297.859,157.305,299.706,156.146,300.864z M172.914,347.167h-2.933c-1.611,0-2.916-1.323-2.916-2.916
		c0-1.648,1.304-2.952,2.916-2.952h2.933c1.594,0,2.897,1.304,2.897,2.952C175.812,345.844,174.508,347.167,172.914,347.167z"/>
	<path style="fill:#108F47;" d="M455.657,469.701H105.861c59.864-21.621,64.88-55.319,64.88-55.319"/>
</g>
</svg>
