<?xml version="1.0" encoding="iso-8859-1"?>
<!-- Generator: Adobe Illustrator 16.0.0, SVG Export Plug-In . SVG Version: 6.00 Build 0)  -->
<!DOCTYPE svg PUBLIC "-//W3C//DTD SVG 1.1//EN" "http://www.w3.org/Graphics/SVG/1.1/DTD/svg11.dtd">
<svg version="1.1" id="&#x5716;&#x5C64;_1" xmlns="http://www.w3.org/2000/svg" xmlns:xlink="http://www.w3.org/1999/xlink" x="0px"
	 y="0px" width="500px" height="500px" viewBox="0 0 500 500" style="enable-background:new 0 0 500 500;" xml:space="preserve">
<path d="M485.352,103.052c-0.043-0.089-0.043-0.155-0.11-0.244c-0.021-0.066-0.066-0.11-0.11-0.177
	c-1.286-2.505-2.66-4.742-4.165-6.559l-58.103-72.948c-5.54-6.914-13.871-10.925-22.646-10.925l0,0H99.783l0,0
	c-8.819,0-17.15,4.011-22.624,10.925L19.035,96.072c-1.44,1.75-2.814,3.943-4.055,6.359c-0.089,0.121-0.155,0.266-0.244,0.398
	c0,0.022-0.044,0.066-0.044,0.111C10.748,110.586,8,120.336,8,127.604v0.996v53.404v269.632c0,19.988,16.176,36.164,36.164,36.164
	h175.124h61.381h175.168c19.988,0,36.164-16.176,36.164-36.164V182.005v-53.404v-0.996C492,120.358,489.274,110.674,485.352,103.052
	z M45.404,411.13l-14.581,19.434v-280.18l14.581,19.434V411.13z M38.003,95.429L57.26,71.275h131.337l12.94-21.295H74.255
	l14.204-17.86c2.77-3.479,6.892-5.429,11.323-5.429h300.434c4.432,0,8.553,1.949,11.345,5.429l14.138,17.86H296.157l7.201,21.295
	h139.36l19.234,24.153H38.003z M469.177,430.563l-14.582-19.434V169.817l14.582-19.434V430.563z"/>
</svg>
