<?xml version="1.0" encoding="iso-8859-1"?>
<!-- Generator: Adobe Illustrator 16.0.0, SVG Export Plug-In . SVG Version: 6.00 Build 0)  -->
<!DOCTYPE svg PUBLIC "-//W3C//DTD SVG 1.1//EN" "http://www.w3.org/Graphics/SVG/1.1/DTD/svg11.dtd">
<svg version="1.1" id="&#x5716;&#x5C64;_1" xmlns="http://www.w3.org/2000/svg" xmlns:xlink="http://www.w3.org/1999/xlink" x="0px"
	 y="0px" width="500px" height="500px" viewBox="0 0 500 500" style="enable-background:new 0 0 500 500;" xml:space="preserve">
<g>
	<path style="fill:#7AC7BB;" d="M209.25,204.721c-7.496,0-13.586,6.08-13.586,13.576c0,7.516,6.091,13.586,13.586,13.586
		c7.505,0,13.586-6.07,13.586-13.586C222.836,210.801,216.756,204.721,209.25,204.721z"/>
	<path style="fill:#7AC7BB;" d="M168.511,204.721c-7.505,0-13.586,6.08-13.586,13.576c0,7.516,6.081,13.586,13.586,13.586
		c7.497,0,13.577-6.07,13.577-13.586C182.088,210.801,176.007,204.721,168.511,204.721z"/>
	<path style="fill:#7AC7BB;" d="M250,204.721c-7.505,0-13.586,6.08-13.586,13.576c0,7.516,6.081,13.586,13.586,13.586
		c7.486,0,13.566-6.07,13.566-13.586C263.566,210.801,257.486,204.721,250,204.721z"/>
	<path style="fill:#7AC7BB;" d="M345.065,186.618h-22.647c-2.481,0-4.536,2.014-4.536,4.526c0,2.492,2.055,4.526,4.536,4.526h22.647
		c2.481,0,4.535-2.034,4.535-4.526S347.547,186.618,345.065,186.618z"/>
	<path style="fill:#7AC7BB;" d="M249.994,8.006C116.343,8.006,8,116.338,8,250.01c0,133.642,108.343,241.984,241.994,241.984
		C383.657,491.994,492,383.652,492,250.01C492,116.338,383.657,8.006,249.994,8.006z M211.513,381.294h-31.688
		c-3.748,0-6.789-3.04-6.789-6.798v-45.275c0-3.747,3.041-6.777,6.789-6.777c3.757,0,6.788,3.03,6.788,6.777v38.478h24.9
		c3.758,0,6.808,3.051,6.808,6.798C218.321,378.254,215.271,381.294,211.513,381.294z M243.201,374.496
		c0,3.758-3.039,6.798-6.788,6.798c-3.748,0-6.799-3.04-6.799-6.798v-45.275c0-3.747,3.051-6.777,6.799-6.777
		c3.749,0,6.788,3.03,6.788,6.777V374.496z M206.37,286.22l-53.07,44.209c-2.911,2.42-7.436,0.287-7.436-3.48V286.22h-9.052
		c-12.48,0-22.627-10.159-22.627-22.647v-90.55c0-12.459,10.147-22.627,22.627-22.627h144.877c12.488,0,22.636,10.168,22.636,22.627
		v90.55c0,12.488-10.147,22.647-22.636,22.647H206.37z M306.1,331.753l-18.102,45.275c-1.036,2.532-3.548,4.266-6.309,4.266
		c-2.752,0-5.293-1.733-6.311-4.266l-18.112-45.275c-0.578-1.476-0.638-3.149-0.149-4.645c0.897-2.701,3.449-4.605,6.279-4.665
		c2.821-0.08,5.444,1.635,6.48,4.266l11.813,29.506l11.802-29.506c1.385-3.489,5.342-5.184,8.821-3.788
		C305.792,324.318,307.496,328.264,306.1,331.753z M342.802,345.069c3.749,0,6.799,3.042,6.799,6.779
		c0,3.759-3.05,6.798-6.799,6.798h-11.313v9.052h20.364c3.748,0,6.798,3.051,6.798,6.798c0,3.758-3.05,6.798-6.798,6.798H324.69
		c-3.758,0-6.788-3.04-6.788-6.798v-45.275c0-3.747,3.03-6.777,6.788-6.777h27.163c3.748,0,6.798,3.03,6.798,6.777
		c0,3.749-3.05,6.8-6.798,6.8h-20.364v9.049H342.802z M385.814,231.883c0,12.471-10.157,22.647-22.638,22.647h-13.576v40.74
		c0,3.747-4.535,5.892-7.436,3.478l-30.104-25.078c0.848-2.482,1.307-5.153,1.307-7.926v-33.861h13.586
		c2.512,0,4.525-2.013,4.525-4.535c0-2.492-2.014-4.506-4.525-4.506h-13.586v-56.26c0-2.472-0.358-4.884-1.037-7.147h32.735
		c2.481,0,4.535-2.004,4.535-4.516c0-2.492-2.054-4.525-4.535-4.525h-37.729c-4.545-5.293-11.264-8.633-18.76-8.633h-92.912v-0.417
		c0-12.48,10.167-22.638,22.657-22.638h144.855c12.48,0,22.638,10.158,22.638,22.638V231.883z"/>
</g>
</svg>
