<?xml version="1.0" encoding="utf-8"?>
<!-- Generator: Adobe Illustrator 16.0.0, SVG Export Plug-In . SVG Version: 6.00 Build 0)  -->
<!DOCTYPE svg PUBLIC "-//W3C//DTD SVG 1.1//EN" "http://www.w3.org/Graphics/SVG/1.1/DTD/svg11.dtd">
<svg version="1.1" id="圖層_1" xmlns="http://www.w3.org/2000/svg" xmlns:xlink="http://www.w3.org/1999/xlink" x="0px" y="0px"
	 width="500px" height="500px" viewBox="0 0 500 500" enable-background="new 0 0 500 500" xml:space="preserve">
<path d="M433.964,428.226c0,28.033-52.314,51.906-125.023,60.433h-0.067c-18.484,2.183-38.3,3.343-58.881,3.343
	s-40.396-1.16-58.846-3.343c-0.051,0-0.137,0-0.222,0c-72.658-8.525-124.888-32.398-124.888-60.433
	c4.16-3.683,8.679-7.979,13.692-10.775l83.605-45.563l1.944-1.022c11.117-6.14,18.126-17.87,18.126-30.693v-34.989
	c0,0-25.05-30.012-34.65-71.754c-7.963-5.184-13.249-14.051-13.249-24.111v-38.401c0-8.423,3.752-15.927,9.549-21.247V94.282
	c0,0-11.373-86.282,105.483-86.282c116.788,0,105.396,86.282,105.396,86.282v55.384c5.866,5.32,9.617,12.824,9.617,21.247v38.401
	c0,12.925-8.662,23.702-20.325,27.317c-6.615,20.395-16.028,39.766-28.511,57.363c-3.206,4.501-6.139,8.253-8.729,11.186v35.911
	c0,11.459,5.661,22.065,14.801,28.478c1.5,1.022,2.933,1.943,4.502,2.729l91.602,45.768
	C424.415,420.859,429.394,424.338,433.964,428.226z"/>
</svg>
