<?xml version="1.0" encoding="iso-8859-1"?>
<!-- Generator: Adobe Illustrator 16.0.0, SVG Export Plug-In . SVG Version: 6.00 Build 0)  -->
<!DOCTYPE svg PUBLIC "-//W3C//DTD SVG 1.1//EN" "http://www.w3.org/Graphics/SVG/1.1/DTD/svg11.dtd">
<svg version="1.1" id="&#x5716;&#x5C64;_1" xmlns="http://www.w3.org/2000/svg" xmlns:xlink="http://www.w3.org/1999/xlink" x="0px"
	 y="0px" width="500px" height="500px" viewBox="0 0 500 500" style="enable-background:new 0 0 500 500;" xml:space="preserve">
<g>
	<path style="fill:#C30D23;" d="M492,250.007C492,383.652,383.652,492,250,492C116.354,492,8,383.652,8,250.007
		C8,116.334,116.354,8,250,8C383.652,8,492,116.334,492,250.007z M250,13.622c-130.54,0-236.378,105.824-236.378,236.385
		c0,130.547,105.838,236.377,236.378,236.377c130.554,0,236.377-105.83,236.377-236.377C486.377,119.446,380.554,13.622,250,13.622z
		"/>
	<path style="fill:#C30D23;" d="M250,30.679C128.878,30.679,30.679,128.872,30.679,250c0,121.122,98.199,219.321,219.321,219.321
		c121.122,0,219.321-98.199,219.321-219.321C469.321,128.872,371.122,30.679,250,30.679z M316.081,349.458
		c0,6.089-4.925,11.014-11.007,11.014H250v11.029c0,3.302-1.495,6.427-4.033,8.511c-1.989,1.624-4.472,2.504-6.996,2.504
		c-0.697,0-1.434-0.068-2.158-0.23l-110.141-22.029c-5.142-1.016-8.85-5.534-8.85-10.798V129.176c0-0.23,0.135-0.419,0.148-0.649
		c0.014-0.312-0.094-0.603-0.033-0.947c0.142-0.947,0.521-1.725,0.873-2.584c0.122-0.298,0.148-0.629,0.311-0.92
		c0.731-1.381,1.732-2.531,2.93-3.492c0.081-0.047,0.129-0.189,0.196-0.237c0.244-0.183,0.542-0.196,0.785-0.345
		c0.974-0.616,2.03-1.063,3.187-1.367c0.494-0.122,0.967-0.216,1.475-0.27c0.399-0.034,0.737-0.203,1.136-0.203h176.244
		c6.082,0,11.007,4.932,11.007,11.015v66.082c0,6.082-4.925,11.021-11.007,11.021c-6.104,0-11.022-4.939-11.022-11.021V140.19
		h-90.154l38.241,11.475c4.662,1.394,7.862,5.697,7.862,10.562v176.216h44.052v-55.061c0-6.089,4.919-11.027,11.022-11.027
		c6.082,0,11.007,4.938,11.007,11.027V349.458z M381.331,243.525c-0.568,1.367-1.373,2.564-2.396,3.593l-33.043,33.031
		c-2.139,2.165-4.967,3.233-7.775,3.233c-2.827,0-5.642-1.068-7.78-3.233c-4.316-4.29-4.316-11.271,0-15.589l14.229-14.229h-61.527
		c-6.09,0-11.016-4.938-11.016-11.008c0-6.075,4.926-11.028,11.016-11.028h61.527l-14.229-14.236
		c-4.316-4.303-4.316-11.258,0-15.568c4.303-4.296,11.252-4.296,15.556,0l33.043,33.044c1.022,1.021,1.827,2.253,2.396,3.572
		C382.441,237.808,382.441,240.846,381.331,243.525z"/>
</g>
</svg>
