<?xml version="1.0" encoding="iso-8859-1"?>
<!-- Generator: Adobe Illustrator 16.0.0, SVG Export Plug-In . SVG Version: 6.00 Build 0)  -->
<!DOCTYPE svg PUBLIC "-//W3C//DTD SVG 1.1//EN" "http://www.w3.org/Graphics/SVG/1.1/DTD/svg11.dtd">
<svg version="1.1" id="&#x5716;&#x5C64;_1" xmlns="http://www.w3.org/2000/svg" xmlns:xlink="http://www.w3.org/1999/xlink" x="0px"
	 y="0px" width="500px" height="500px" viewBox="0 0 500 500" style="enable-background:new 0 0 500 500;" xml:space="preserve">
<g>
	<g>
		<g>
			<path style="fill:#C30D23;" d="M490.479,222.12c-1.04-2.428-2.516-4.685-4.39-6.558l-60.479-60.496
				c-7.894-7.859-20.628-7.859-28.504,0c-7.894,7.894-7.894,20.628,0,28.504l26.074,26.076H310.517
				c-11.154,0-20.177,9.057-20.177,20.177c0,11.121,9.022,20.16,20.177,20.16h112.664l-26.074,26.075
				c-7.894,7.877-7.894,20.662,0,28.521c3.92,3.957,9.073,5.916,14.242,5.916c5.17,0,10.322-1.959,14.262-5.916l60.479-60.479
				c1.874-1.874,3.35-4.077,4.39-6.575C492.507,232.616,492.507,227.048,490.479,222.12z"/>
			<path style="fill:#C30D23;" d="M350.853,290.32c-11.155,0-20.176,9.039-20.176,20.176v100.832h-80.656V88.671
				c0-8.917-5.856-16.776-14.391-19.326l-70.03-21.01h165.077V149.15c0,11.138,9.021,20.177,20.176,20.177
				c11.157,0,20.178-9.039,20.178-20.177V28.158c0-11.139-9.021-20.178-20.178-20.178H28.169c-0.72,0-1.361,0.313-2.074,0.383
				c-0.953,0.104-1.813,0.277-2.723,0.485c-2.108,0.555-4.034,1.371-5.83,2.498c-0.433,0.295-0.979,0.313-1.404,0.643
				c-0.157,0.086-0.234,0.347-0.399,0.433c-2.186,1.752-4.024,3.87-5.352,6.385c-0.286,0.538-0.347,1.146-0.564,1.683
				c-0.651,1.579-1.345,3.019-1.596,4.737c-0.104,0.625,0.079,1.18,0.07,1.735C8.252,27.395,8,27.742,8,28.158V431.49
				c0,9.629,6.792,17.902,16.222,19.775l201.665,40.338c1.319,0.295,2.655,0.416,3.956,0.416c4.614,0,9.152-1.613,12.794-4.58
				c4.658-3.834,7.383-9.543,7.383-15.596v-20.18h100.832c11.157,0,20.178-9.037,20.178-20.174V310.496
				C371.03,299.359,362.01,290.32,350.853,290.32z"/>
		</g>
	</g>
</g>
</svg>
