<?xml version="1.0" encoding="utf-8"?>
<!-- Generator: Adobe Illustrator 16.0.0, SVG Export Plug-In . SVG Version: 6.00 Build 0)  -->
<!DOCTYPE svg PUBLIC "-//W3C//DTD SVG 1.1//EN" "http://www.w3.org/Graphics/SVG/1.1/DTD/svg11.dtd">
<svg version="1.1" id="圖層_1" xmlns="http://www.w3.org/2000/svg" xmlns:xlink="http://www.w3.org/1999/xlink" x="0px" y="0px"
	 width="500px" height="164.732px" viewBox="0 0 500 164.732" enable-background="new 0 0 500 164.732" xml:space="preserve">
<g>
	<path d="M157.287,36.408c-0.012-0.026-0.021-0.056-0.037-0.074c-0.004-0.022-0.021-0.039-0.029-0.058
		c-0.407-0.778-0.844-1.482-1.309-2.063l-18.18-22.81C136.018,9.256,133.414,8,130.658,8l0,0H36.702l0,0
		c-2.752,0-5.357,1.256-7.073,3.403L11.45,34.213c-0.448,0.561-0.874,1.243-1.269,1.998c-0.024,0.04-0.05,0.082-0.068,0.124
		c-0.01,0.015-0.019,0.024-0.019,0.032C8.865,38.762,8,41.809,8,44.083v0.307v16.708v84.322c0,6.245,5.061,11.313,11.308,11.313
		h54.776h19.191h54.781c6.245,0,11.305-5.067,11.305-11.313V61.097V44.389v-0.307C159.361,41.822,158.509,38.793,157.287,36.408z
		 M19.701,132.741l-4.562,6.08V51.203l4.562,6.081V132.741z M17.388,34.018l6.019-7.551h41.072l4.055-6.663H28.721l4.445-5.577
		c0.86-1.082,2.153-1.705,3.536-1.705h93.957c1.384,0,2.671,0.623,3.538,1.705l4.439,5.577H98.111l2.267,6.663h43.572l6.018,7.551
		H17.388z M152.221,138.821l-4.558-6.08V57.284l4.558-6.081V138.821z"/>
	<g>
		<g>
			<path d="M208.427,65.41V8.817h9.252v48.657h23.966v7.936H208.427z"/>
			<path d="M274.549,34.709h20.826v28.414c-3.404,1.111-6.678,1.896-9.816,2.361c-3.133,0.472-6.52,0.702-10.16,0.702
				c-8.567,0-15.17-2.541-19.818-7.611c-4.648-5.068-6.967-12.226-6.967-21.462c0-9.11,2.618-16.244,7.853-21.395
				C261.711,10.575,268.92,8,278.111,8c5.906,0,11.506,1.134,16.799,3.408l-3.25,7.704c-4.596-2.119-9.189-3.177-13.781-3.177
				c-6.039,0-10.814,1.899-14.32,5.69c-3.515,3.794-5.271,8.983-5.271,15.563c0,6.915,1.582,12.17,4.741,15.769
				c3.162,3.604,7.709,5.406,13.647,5.406c2.99,0,6.197-0.375,9.603-1.122V42.647h-11.73V34.709L274.549,34.709z"/>
			<path d="M328.514,65.41h-9.254V16.751h-16.645V8.817h42.546v7.934h-16.647V65.41z"/>
		</g>
		<g>
			<path d="M240.444,137.536h-32.018V80.939h32.018v7.812h-22.765v15.415h21.333v7.743h-21.333v17.766h22.765V137.536
				L240.444,137.536z"/>
			<path d="M261.229,115.658l-14.363-20.939h10.38l9.758,14.985l9.828-14.985h10.303l-14.407,20.939l15.141,21.878h-10.301
				l-10.563-16.026l-10.537,16.026h-10.293L261.229,115.658z"/>
			<path d="M317.096,138.308c-5.423,0-9.627-1.947-12.625-5.845h-0.539c0.361,3.617,0.539,5.808,0.539,6.585v17.534h-9.096V94.719
				h7.355c0.209,0.8,0.635,2.709,1.276,5.732h0.464c2.839-4.335,7.1-6.503,12.776-6.503c5.339,0,9.506,1.928,12.484,5.807
				c2.984,3.867,4.469,9.304,4.469,16.294c0,6.993-1.513,12.449-4.548,16.378C326.622,136.347,322.434,138.308,317.096,138.308z
				 M314.883,101.38c-3.61,0-6.246,1.06-7.91,3.172c-1.664,2.115-2.502,5.494-2.502,10.144v1.354c0,5.217,0.829,8.988,2.48,11.325
				c1.65,2.338,4.344,3.504,8.09,3.504c3.146,0,5.574-1.293,7.277-3.867c1.7-2.586,2.556-6.264,2.556-11.032
				c0-4.809-0.845-8.439-2.536-10.904C320.647,102.609,318.164,101.38,314.883,101.38z"/>
			<path d="M366.491,93.948c1.831,0,3.339,0.124,4.532,0.385l-0.896,8.479c-1.288-0.313-2.629-0.464-4.023-0.464
				c-3.638,0-6.591,1.184-8.85,3.561c-2.259,2.375-3.388,5.459-3.388,9.253v22.374h-9.097V94.719h7.126l1.199,7.551h0.462
				c1.42-2.554,3.273-4.582,5.554-6.08C361.406,94.692,363.855,93.948,366.491,93.948z"/>
			<path d="M397.654,138.308c-6.66,0-11.869-1.941-15.621-5.822c-3.754-3.887-5.633-9.234-5.633-16.047
				c0-6.993,1.743-12.491,5.227-16.494c3.487-4.002,8.271-5.996,14.365-5.996c5.646,0,10.111,1.715,13.395,5.145
				c3.279,3.438,4.912,8.157,4.912,14.173v4.912h-28.53c0.13,4.16,1.251,7.351,3.372,9.579c2.111,2.232,5.096,3.354,8.938,3.354
				c2.531,0,4.883-0.24,7.065-0.723c2.179-0.474,4.521-1.268,7.023-2.375v7.395c-2.215,1.059-4.465,1.808-6.734,2.248
				C403.164,138.094,400.572,138.308,397.654,138.308z M395.992,100.837c-2.894,0-5.204,0.914-6.952,2.746
				c-1.741,1.834-2.783,4.506-3.112,8.019h19.434c-0.057-3.538-0.903-6.217-2.562-8.036
				C401.152,101.743,398.884,100.837,395.992,100.837z"/>
			<path d="M453.396,125.337c0,4.184-1.519,7.389-4.563,9.625c-3.048,2.228-7.405,3.347-13.089,3.347
				c-5.698,0-10.279-0.86-13.742-2.593v-7.854c5.037,2.324,9.723,3.479,14.055,3.479c5.604,0,8.402-1.688,8.402-5.066
				c0-1.085-0.312-1.987-0.926-2.711c-0.623-0.724-1.643-1.476-3.063-2.242c-1.419-0.781-3.392-1.659-5.923-2.635
				c-4.928-1.913-8.271-3.82-10.007-5.732c-1.743-1.908-2.614-4.386-2.614-7.433c0-3.659,1.479-6.512,4.435-8.538
				c2.956-2.021,6.975-3.033,12.061-3.033c5.029,0,9.792,1.021,14.281,3.058l-2.939,6.85c-4.625-1.907-8.508-2.865-11.651-2.865
				c-4.801,0-7.201,1.367-7.201,4.105c0,1.343,0.626,2.477,1.877,3.407c1.253,0.927,3.982,2.201,8.188,3.831
				c3.537,1.366,6.104,2.622,7.703,3.757c1.6,1.136,2.787,2.443,3.563,3.927C453.018,121.499,453.396,123.277,453.396,125.337z"/>
			<path d="M492,125.337c0,4.184-1.522,7.389-4.572,9.625c-3.043,2.228-7.405,3.347-13.083,3.347c-5.705,0-10.286-0.86-13.743-2.593
				v-7.854c5.031,2.324,9.722,3.479,14.054,3.479c5.6,0,8.398-1.688,8.398-5.066c0-1.085-0.306-1.987-0.927-2.711
				c-0.622-0.724-1.641-1.476-3.059-2.242c-1.424-0.781-3.396-1.659-5.921-2.635c-4.932-1.913-8.274-3.82-10.008-5.732
				c-1.748-1.908-2.618-4.386-2.618-7.433c0-3.659,1.475-6.512,4.434-8.538c2.955-2.021,6.973-3.033,12.06-3.033
				c5.032,0,9.791,1.021,14.284,3.058l-2.938,6.85c-4.619-1.907-8.503-2.865-11.65-2.865c-4.805,0-7.208,1.367-7.208,4.105
				c0,1.343,0.631,2.477,1.882,3.407c1.252,0.927,3.984,2.201,8.188,3.831c3.531,1.366,6.099,2.622,7.703,3.757
				c1.599,1.136,2.785,2.443,3.562,3.927C491.612,121.499,492,123.277,492,125.337z"/>
		</g>
	</g>
</g>
</svg>
