<?xml version="1.0" encoding="iso-8859-1"?>
<!-- Generator: Adobe Illustrator 16.0.0, SVG Export Plug-In . SVG Version: 6.00 Build 0)  -->
<!DOCTYPE svg PUBLIC "-//W3C//DTD SVG 1.1//EN" "http://www.w3.org/Graphics/SVG/1.1/DTD/svg11.dtd">
<svg version="1.1" id="&#x5716;&#x5C64;_1" xmlns="http://www.w3.org/2000/svg" xmlns:xlink="http://www.w3.org/1999/xlink" x="0px"
	 y="0px" width="500px" height="500px" viewBox="0 0 500 500" style="enable-background:new 0 0 500 500;" xml:space="preserve">
<g>
	<g>
		<g>
			<path style="fill:#E35F26;" d="M300.661,340.233H198.899c-83.611,0-151.746,68.154-151.746,151.767h405.693
				C452.407,408.807,384.272,340.233,300.661,340.233z"/>
			<path style="fill:#E35F26;" d="M267.912,270.783c7.957,0,15.478,2.652,21.24,7.52h36.721c18.15-19.028,29.2-44.239,29.2-72.542
				c0-58.401-47.351-105.313-105.293-105.313c-57.941,0-105.292,46.912-105.292,105.313c0,39.353,21.661,73.879,53.973,92.009
				c3.55-15.479,17.252-26.986,33.169-26.986H267.912z"/>
			<path style="fill:#E35F26;" d="M94.065,214.597c1.317,11.05,6.623,21.222,14.142,28.762c5.744,5.744,13.264,10.172,21.681,12.824
				c-0.439-1.755-0.439-3.551-0.439-4.866V165.49c0-1.775,0-3.55,0.439-5.305c-8.417,2.214-15.478,6.642-21.681,12.825
				c-0.458,0.439-1.336,1.336-1.775,1.775v-3.55c0-8.397,0.897-16.814,2.194-24.752c1.357-8.417,3.55-16.396,6.662-23.915
				c2.652-7.959,6.183-15.478,10.611-22.559c3.989-7.081,8.856-14.162,14.162-20.345c0.439-0.438,0.877-1.336,0.877-1.775
				c3.99,0.439,7.979-0.877,10.611-3.55c27.006-26.967,62.39-40.25,97.334-40.25c34.966,0,70.806,13.284,97.334,40.25
				c3.111,3.111,7.081,3.989,10.611,3.55c0.439,0.439,0.439,1.337,0.898,1.775c5.305,6.183,10.172,13.264,14.161,20.345
				c3.969,7.081,7.519,14.6,10.609,22.559c2.654,7.978,4.889,15.936,6.643,24.333c1.318,7.978,2.214,16.375,2.214,24.792v3.53
				c-0.458-0.878-1.336-1.336-1.774-1.775c-5.743-5.745-13.283-10.172-21.681-12.826c0.459,1.776,0.459,3.551,0.459,5.306v85.387
				c0,1.774,0,3.53-0.459,4.866c2.214-0.438,4.428-1.336,6.642-2.214v27.885c0,3.091-0.438,6.182-0.878,8.397
				c-0.458,2.214-1.336,3.529-2.233,4.866c-0.878,0.897-2.193,1.774-3.53,2.214c-1.775,0.438-3.529,0.877-5.745,0.877h-0.438
				h-81.418c-2.652-4.428-7.081-7.52-12.824-7.52h-36.302c-7.938,0-14.121,6.643-14.121,14.162
				c0.439,7.958,6.622,14.161,14.58,14.161h36.282c5.304,0,10.172-3.112,12.844-7.52h82.275h3.092c3.112,0,5.765-0.897,8.417-1.774
				c3.55-1.338,6.183-3.112,8.856-5.745c2.193-2.673,3.989-5.765,5.306-9.732c0.877-3.552,1.756-7.979,1.756-12.846v-35.384v-1.336
				c0.438-0.438,0.896-0.877,1.335-1.316c7.521-7.54,12.825-17.712,14.142-28.762c0.479-0.439,0.897-0.439,0.897-0.898
				c1.337-1.316,2.214-3.53,2.214-5.286v-36.719c0-9.295-0.877-18.589-2.214-27.445c-2.652-9.295-4.867-18.131-7.958-26.987
				c-3.111-8.835-7.081-17.252-11.967-25.211c-4.41-7.958-9.715-15.478-15.917-22.558c-0.439-0.878-1.316-1.337-2.195-1.775
				c0.879-3.99-0.438-8.836-3.55-11.947C333.392,23.917,291.806,8,249.78,8s-83.631,15.917-115.923,47.77
				c-3.092,3.111-4.408,7.958-3.53,11.947c-0.878,0.438-1.316,0.897-2.214,1.775c-6.203,7.081-11.508,14.6-15.937,22.558
				c-4.428,7.958-8.397,16.375-11.927,25.211c-3.112,8.856-5.764,17.692-7.081,26.987c-1.774,8.856-2.213,18.15-2.213,27.445v36.719
				c0,2.214,0.877,3.969,2.213,5.286C93.586,214.158,94.065,214.158,94.065,214.597z"/>
		</g>
	</g>
</g>
</svg>
