<?xml version="1.0" encoding="iso-8859-1"?>
<!-- Generator: Adobe Illustrator 16.0.0, SVG Export Plug-In . SVG Version: 6.00 Build 0)  -->
<!DOCTYPE svg PUBLIC "-//W3C//DTD SVG 1.1//EN" "http://www.w3.org/Graphics/SVG/1.1/DTD/svg11.dtd">
<svg version="1.1" id="&#x5716;&#x5C64;_1" xmlns="http://www.w3.org/2000/svg" xmlns:xlink="http://www.w3.org/1999/xlink" x="0px"
	 y="0px" width="500px" height="500px" viewBox="0 0 500 500" style="enable-background:new 0 0 500 500;" xml:space="preserve">
<g>
	<path d="M420.408,405.678c-17.482-118.044,19.526-370.654-50.001-370.654H63.658c7.057,4.25,13.202,11.287,17.362,20.84
		c8.35,19.056,8.07,38.723,8.07,38.723h-3.128c19.166,116-17.041,361.772,44.066,370.373l0,0
		c49.68-4.371,31.075-59.282,31.075-59.282H420.408z M374.578,357.041c4.07,0,7.377,3.308,7.377,7.397
		c0,4.089-3.307,7.397-7.377,7.397h-54.772c-4.05,0-7.378-3.309-7.378-7.397c0-4.09,3.328-7.397,7.378-7.397H374.578z
		 M286.365,96.372c18.646-18.625,48.918-18.625,67.503,0c18.664,18.625,18.664,48.918,0,67.543
		c-12.01,12.029-29.651,16.761-46.092,12.35c-2.285-0.632-3.688-2.987-3.047-5.273c0.602-2.346,2.946-3.729,5.272-3.087
		c13.492,3.588,27.928-0.301,37.751-10.125c15.237-15.216,15.237-40.057,0-55.273c-15.196-15.216-40.036-15.216-55.253,0
		c-13.071,13.132-14.877,33.321-5.414,48.417l4.491-4.531c0.602-0.562,1.523-0.782,2.286-0.481c0.802,0.28,1.362,1.012,1.482,1.824
		l1.525,16.901c0,0.622-0.201,1.284-0.683,1.724c-0.461,0.451-1.083,0.692-1.724,0.642l-16.881-1.544
		c-0.842-0.05-1.543-0.641-1.884-1.423c-0.241-0.802-0.041-1.704,0.561-2.285l4.53-4.561
		C267.961,138.614,269.796,112.892,286.365,96.372z M336.206,145.169c1.282,1.303,1.241,3.429-0.082,4.711
		c-1.304,1.303-3.327,1.323-4.69,0.04l-13.452-13.452c-0.622-0.642-0.982-1.524-0.982-2.386v-26.895
		c0-1.854,1.484-3.358,3.407-3.358c1.784,0,3.328,1.504,3.328,3.358v25.491L336.206,145.169z M133.356,163.092h102.236
		c4.1,0,7.428,3.289,7.428,7.398c0,4.09-3.328,7.398-7.428,7.398H133.356c-4.09,0-7.378-3.308-7.378-7.398
		C125.978,166.381,129.267,163.092,133.356,163.092z M133.356,207.319h227.127c4.111,0,7.398,3.288,7.398,7.418
		c0,4.05-3.287,7.357-7.398,7.357H133.356c-4.09,0-7.378-3.308-7.378-7.357C125.978,210.607,129.267,207.319,133.356,207.319z
		 M133.356,247.537h227.127c4.111,0,7.398,3.308,7.398,7.398c0,4.09-3.287,7.397-7.398,7.397H133.356
		c-4.09,0-7.378-3.308-7.378-7.397C125.978,250.844,129.267,247.537,133.356,247.537z M133.356,302.568
		c-4.09,0-7.378-3.268-7.378-7.397c0-4.09,3.289-7.398,7.378-7.398h177.729c4.109,0,7.398,3.309,7.398,7.398
		c0,4.13-3.289,7.397-7.398,7.397H133.356z"/>
	<path d="M133.356,465.221c48.236,0,33.841-54.993,33.841-54.993h322.858c0,0,14.476,54.993-33.801,54.993H133.356z"/>
	<path d="M81.511,90.017H10.741C10.5,88.052,5.608,76.885,9.257,60.265c3.649-16.67,13.112-22.614,27.426-25.061
		c7.097-1.183,14.034,0.121,20.008,3.709c6.125,3.649,11.348,9.664,14.906,17.904C78.785,73.136,81.511,90.017,81.511,90.017z"/>
	<path d="M85.962,94.587c0,0-6.064-53.068-31.597-59.563h18.956l22.254,36.368v27.526L85.962,94.587z"/>
</g>
</svg>
