<?xml version="1.0" encoding="iso-8859-1"?>
<!-- Generator: Adobe Illustrator 16.0.0, SVG Export Plug-In . SVG Version: 6.00 Build 0)  -->
<!DOCTYPE svg PUBLIC "-//W3C//DTD SVG 1.1//EN" "http://www.w3.org/Graphics/SVG/1.1/DTD/svg11.dtd">
<svg version="1.1" id="&#x5716;&#x5C64;_1" xmlns="http://www.w3.org/2000/svg" xmlns:xlink="http://www.w3.org/1999/xlink" x="0px"
	 y="0px" width="500px" height="500px" viewBox="0 0 500 500" style="enable-background:new 0 0 500 500;" xml:space="preserve">
<g>
	<g>
		<g>
			<path style="fill:#E35F26;" d="M472.856,114.782L253.101,8.707c-1.983-0.946-4.223-0.946-6.205,0L27.162,114.782
				c-2.46,1.184-4.002,3.671-4.002,6.389v257.642c0,2.718,1.542,5.206,4.002,6.399l219.733,106.085
				c0.981,0.476,2.056,0.706,3.12,0.706c1.019,0,2.075-0.23,3.085-0.706l219.756-106.085c2.442-1.193,3.983-3.682,3.983-6.399
				V121.171C476.84,118.454,475.299,115.966,472.856,114.782z M250.016,22.962l203.436,98.209l-58.985,28.465
				c-0.35-0.285-0.754-0.551-1.176-0.744L191.214,51.344L250.016,22.962z M175.187,59.358l203.179,98.07l-41.619,20.085
				L133.688,79.497L175.187,59.358z M383.084,170.876v74.242l-38.848,18.78V189.63L383.084,170.876z M462.686,374.371
				l-205.583,99.236V231.735l49.021-23.702c3.543-1.708,5.013-5.929,3.286-9.472c-1.689-3.516-5.911-4.976-9.455-3.287
				l-49.939,24.114l-19.698-9.491c-3.487-1.708-7.747-0.221-9.437,3.294c-1.707,3.553-0.247,7.775,3.286,9.483l18.726,9.06v241.872
				L37.323,374.371v-241.91l156.553,75.572c1.01,0.496,2.065,0.717,3.066,0.717c2.643,0,5.176-1.479,6.406-4.012
				c1.707-3.525,0.221-7.766-3.323-9.464L46.548,121.171l70.443-34l212.979,102.808c0.021,0.064,0.057,0.082,0.093,0.138v85.064
				c0,2.45,1.249,4.719,3.304,6.012c1.176,0.716,2.461,1.093,3.764,1.093c1.064,0,2.112-0.239,3.086-0.717l53.073-25.592
				c2.461-1.193,3.983-3.672,3.983-6.388v-85.57l65.412-31.558V374.371L462.686,374.371z"/>
		</g>
	</g>
	<g>
		<g>
			<path style="fill:#E35F26;" d="M95.813,346.859l-32.228-15.557c-3.525-1.709-7.767-0.222-9.455,3.295
				c-1.707,3.533-0.23,7.782,3.286,9.491l32.256,15.558c1.001,0.479,2.028,0.698,3.084,0.698c2.644,0,5.195-1.459,6.38-4.011
				C100.835,352.809,99.348,348.578,95.813,346.859z"/>
		</g>
	</g>
	<g>
		<g>
			<path style="fill:#E35F26;" d="M125.536,327.557L63.64,297.668c-3.523-1.698-7.765-0.219-9.463,3.297
				c-1.698,3.544-0.229,7.783,3.286,9.473l61.914,29.888c0.992,0.477,2.037,0.716,3.065,0.716c2.644,0,5.159-1.496,6.38-4.029
				C130.529,333.477,129.052,329.254,125.536,327.557z"/>
		</g>
	</g>
</g>
</svg>
