<?xml version="1.0" encoding="iso-8859-1"?>
<!-- Generator: Adobe Illustrator 16.0.0, SVG Export Plug-In . SVG Version: 6.00 Build 0)  -->
<!DOCTYPE svg PUBLIC "-//W3C//DTD SVG 1.1//EN" "http://www.w3.org/Graphics/SVG/1.1/DTD/svg11.dtd">
<svg version="1.1" id="&#x5716;&#x5C64;_1" xmlns="http://www.w3.org/2000/svg" xmlns:xlink="http://www.w3.org/1999/xlink" x="0px"
	 y="0px" width="500px" height="500px" viewBox="0 0 500 500" style="enable-background:new 0 0 500 500;" xml:space="preserve">
<g>
	<g>
		<path d="M312.691,9.107c-99.327-0.273-180.07,80.023-180.363,179.321c-0.273,99.327,80.023,180.051,179.35,180.343
			c99.296,0.273,180.06-80.003,180.334-179.33C492.306,90.144,412.028,9.36,312.691,9.107z M420.292,297.656
			c-59.948,59.597-157.23,59.325-216.828-0.626c-59.618-59.938-59.365-157.189,0.624-216.827
			c59.91-59.636,157.19-59.344,216.828,0.625C480.494,140.776,480.241,238.066,420.292,297.656z"/>
		<path d="M37.387,485.22c-0.234,0.292-0.487,0.565-0.741,0.837c-6.607,6.491-17.238,6.451-23.777-0.136
			c-6.559-6.625-6.489-17.268,0.087-23.796l-0.029-0.04l165.532-163.807h0.02c0.195-0.215,0.39-0.428,0.623-0.622
			c6.549-6.531,17.229-6.453,23.777,0.136c6.509,6.607,6.47,17.248-0.117,23.796l0,0L37.387,485.22z"/>
	</g>
	<g>
		<path d="M335.009,149.39v43.871l-22.824-12.103l-22.841,12.103V149.39h-47.72v67.395v37.301c0,5.613,4.541,10.154,10.136,10.154
			h81.277h39.547c5.591,0,10.133-4.541,10.133-10.154v-28.96v-46.501V149.39H335.009z M285.485,230.193
			c1.149-0.877,2.747-0.975,3.976-0.195c1.208,0.74,1.871,2.221,1.598,3.625c-0.311,1.637-1.792,2.845-3.448,2.845
			c-1.462,0-2.788-0.936-3.294-2.339C283.809,232.746,284.276,231.128,285.485,230.193z M257.099,229.452h14.745
			c1.908,0,3.467,1.579,3.467,3.528c0,1.929-1.559,3.489-3.467,3.489h-14.745c-1.948,0-3.507-1.56-3.507-3.489
			C253.592,231.031,255.15,229.452,257.099,229.452z M318.265,251.572h-61.166c-1.948,0-3.507-1.578-3.507-3.527
			c0-1.949,1.559-3.528,3.507-3.528h61.166c1.95,0,3.51,1.579,3.51,3.528C321.774,249.994,320.215,251.572,318.265,251.572z
			 M318.265,236.469h-14.732c-1.931,0-3.507-1.56-3.507-3.489c0-1.949,1.576-3.528,3.507-3.528h14.732c1.95,0,3.51,1.579,3.51,3.528
			C321.774,234.909,320.215,236.469,318.265,236.469z"/>
		<path d="M378.116,113.648h-43.107h-45.665h-43.12c-5.613,0-10.135,4.521-10.135,10.134v20.931h53.255h45.665h53.243v-20.931
			C388.252,118.169,383.729,113.648,378.116,113.648z"/>
	</g>
</g>
</svg>
