<?xml version="1.0" encoding="utf-8"?>
<!-- Generator: Adobe Illustrator 16.0.0, SVG Export Plug-In . SVG Version: 6.00 Build 0)  -->
<!DOCTYPE svg PUBLIC "-//W3C//DTD SVG 1.1//EN" "http://www.w3.org/Graphics/SVG/1.1/DTD/svg11.dtd">
<svg version="1.1" id="圖層_1" xmlns="http://www.w3.org/2000/svg" xmlns:xlink="http://www.w3.org/1999/xlink" x="0px" y="0px"
	 width="500px" height="500px" viewBox="0 0 500 500" enable-background="new 0 0 500 500" xml:space="preserve">
<g>
	<g>
		<path d="M421.431,189.51h-30.243v-40.315C391.188,71.411,327.85,8,250.084,8C172.15,8,108.796,71.411,108.796,149.194v40.315
			h-30.32c-5.465,0-10.013,4.492-10.013,10.069v252.144c0,22.311,18.173,40.276,40.333,40.276h282.391
			c22.232,0,40.353-17.967,40.353-40.276V199.579C431.538,194.001,426.971,189.51,421.431,189.51z M280.273,400.178
			c0.279,2.808-0.73,5.691-2.526,7.861c-1.929,2.171-4.718,3.407-7.674,3.407h-40.146c-3.014,0-5.597-1.236-7.692-3.407
			c-1.834-2.17-2.771-5.055-2.471-7.861l6.401-57.195c-10.369-7.448-16.47-19.353-16.47-32.455c0-22.232,18.118-40.351,40.39-40.351
			c22.142,0,40.183,18.117,40.183,40.351c0,13.104-6.025,25.007-16.433,32.455L280.273,400.178z M330.695,189.51H169.361v-40.315
			c0-44.469,36.141-80.704,80.723-80.704c44.414,0,80.611,36.235,80.611,80.704V189.51L330.695,189.51z"/>
	</g>
</g>
</svg>
