<?xml version="1.0" encoding="iso-8859-1"?>
<!-- Generator: Adobe Illustrator 16.0.0, SVG Export Plug-In . SVG Version: 6.00 Build 0)  -->
<!DOCTYPE svg PUBLIC "-//W3C//DTD SVG 1.1//EN" "http://www.w3.org/Graphics/SVG/1.1/DTD/svg11.dtd">
<svg version="1.1" id="&#x5716;&#x5C64;_1" xmlns="http://www.w3.org/2000/svg" xmlns:xlink="http://www.w3.org/1999/xlink" x="0px"
	 y="0px" width="500px" height="500px" viewBox="0 0 500 500" style="enable-background:new 0 0 500 500;" xml:space="preserve">
<g>
	<path style="fill:#E35F26;" d="M492,250c0,133.651-108.349,242-242,242C116.354,492,8,383.651,8,250C8,116.334,116.354,8,250,8
		C383.651,8,492,116.334,492,250z M250,13.616C119.46,13.616,13.623,119.447,13.623,250c0,130.554,105.838,236.384,236.377,236.384
		c130.554,0,236.378-105.83,236.378-236.384C486.378,119.447,380.554,13.616,250,13.616z"/>
	<g>
		<path style="fill:#E35F26;" d="M219.473,239.54c-1.604,6.103-5.568,12.462-11.069,14.167c-0.163,0.284-0.352,0.556-0.507,0.854
			v5.412h70.92c3.139,0,5.683-2.544,5.683-5.696v-9.04c0.02-3.14-2.524-5.697-5.683-5.697H219.473z"/>
		<path style="fill:#E35F26;" d="M205.934,269.106h-6.286c-3.261,0-5.913-2.639-5.913-5.886c0-1.219,0.494-2.368,1.367-3.221
			c3.647-3.546,6.719-8.336,8.958-13.478c0.433,0.325,0.927,0.568,1.475,0.568c3.532,0,7.686-7.794,7.686-13.112
			s-0.487-9.634-4.032-9.634c-0.406,0-0.859,0.081-1.313,0.189c-0.25-14.425-3.884-32.395-25.893-32.395
			c-22.977,0-25.656,17.943-25.92,32.34c-0.318-0.054-0.65-0.135-0.947-0.135c-3.525,0-4.019,4.316-4.019,9.634
			s4.141,13.112,7.686,13.112c0.44,0,0.846-0.122,1.225-0.352c2.206,5.088,5.237,9.77,8.843,13.289
			c0.873,0.839,1.354,1.988,1.354,3.207c0,3.261-2.652,5.899-5.907,5.899h-6.286c-13.45,0-24.35,10.906-24.35,24.343v6.752
			c0,4.235,3.437,7.687,7.693,7.687h81.237c4.235,0,7.68-3.451,7.68-7.687v-6.752C230.271,280.027,219.384,269.106,205.934,269.106z
			"/>
		<path style="fill:#E35F26;" d="M289.911,276.766h-57.414c3.051,4.844,4.857,10.541,4.857,16.697v3.736h52.557
			c3.153,0,5.697-2.544,5.697-5.685v-9.039C295.608,279.323,293.064,276.766,289.911,276.766z"/>
		<path style="fill:#E35F26;" d="M250,30.679C128.878,30.679,30.679,128.864,30.679,250c0,121.121,98.199,219.321,219.321,219.321
			c121.121,0,219.321-98.2,219.321-219.321C469.321,128.864,371.121,30.679,250,30.679z M379.207,319.485
			c0,19.337-15.663,34.993-34.992,34.993H155.772c-19.323,0-34.979-15.656-34.979-34.993V180.528
			c0-19.337,15.656-34.993,34.979-34.993h188.442c19.329,0,34.992,15.656,34.992,34.993V319.485z"/>
		<path style="fill:#E35F26;" d="M218.086,222.748h71.825c3.153,0,5.697-2.544,5.697-5.684v-9.04c0-3.139-2.544-5.696-5.697-5.696
			H210.69c1.962,4.357,3.363,9.702,3.944,16.333C216.096,219.554,217.199,221.001,218.086,222.748z"/>
		<path style="fill:#E35F26;" d="M363.761,243.884c-3.363,0-6.341-1.976-7.591-5.047c-1.293-3.113-0.475-6.766,2.042-9.066
			c0.792-0.73,0.888-1.922,0.217-2.774c-1.711-2.179-3.674-4.167-5.806-5.873c-0.839-0.664-2.063-0.582-2.794,0.23
			c-2.179,2.422-6.122,3.329-9.161,2.043c-3.158-1.326-5.142-4.506-4.965-7.956c0.08-1.083-0.704-2.017-1.787-2.138
			c-2.74-0.325-5.514-0.338-8.262-0.027c-1.062,0.108-1.846,1.028-1.818,2.098c0.121,3.396-1.902,6.549-5.014,7.834
			c-3.018,1.232-6.915,0.325-9.101-2.083c-0.724-0.785-1.922-0.88-2.767-0.217c-2.199,1.719-4.216,3.694-5.935,5.873
			c-0.69,0.839-0.589,2.057,0.211,2.787c2.55,2.314,3.389,5.995,2.063,9.161c-1.272,3.018-4.411,4.966-7.997,4.966
			c-1.149-0.04-1.996,0.745-2.124,1.8c-0.318,2.747-0.324,5.562-0.007,8.349c0.115,1.028,1.347,1.8,2.402,1.8
			c3.199-0.081,6.271,1.896,7.55,5.034c1.285,3.139,0.454,6.779-2.043,9.079c-0.792,0.731-0.899,1.936-0.224,2.761
			c1.698,2.179,3.653,4.153,5.799,5.872c0.846,0.69,2.07,0.582,2.801-0.202c2.192-2.436,6.123-3.343,9.161-2.07
			c3.146,1.326,5.155,4.533,4.959,7.97c-0.067,1.082,0.725,2.017,1.8,2.138c1.4,0.176,2.815,0.244,4.229,0.244
			c1.347,0,2.68-0.068,4.039-0.217c1.063-0.107,1.84-1.028,1.807-2.098c-0.135-3.409,1.895-6.563,5.027-7.834
			c3.024-1.231,6.908-0.326,9.087,2.069c0.73,0.785,1.921,0.894,2.773,0.23c2.206-1.719,4.195-3.694,5.939-5.872
			c0.671-0.839,0.576-2.057-0.223-2.788c-2.558-2.313-3.383-6.008-2.056-9.161c1.251-2.977,4.269-4.979,7.509-4.979l0.454,0.015
			c1.056,0.094,2.023-0.731,2.15-1.801c0.313-2.761,0.325-5.575,0.014-8.349C366.014,244.655,364.803,243.884,363.761,243.884z
			 M313.43,251.109c-0.737,0-1.346-0.609-1.346-1.353c-0.008-4.56,1.766-8.945,4.932-12.219c6.731-6.955,17.827-7.131,24.783-0.406
			v-4.925c0-0.745,0.609-1.367,1.347-1.367c0.743,0,1.353,0.623,1.353,1.367v8.105c0.014,0.583-0.365,1.096-0.927,1.286
			l-8.093,2.693c-0.71,0.244-1.48-0.135-1.711-0.852c-0.236-0.704,0.148-1.475,0.853-1.705l5.981-2.003
			c-2.822-3.058-6.779-4.817-10.948-4.817c-8.213,0-14.863,6.645-14.863,14.844C314.79,250.5,314.181,251.109,313.43,251.109z
			 M342.279,261.989c-6.738,6.941-17.835,7.131-24.791,0.393v4.925c0,0.758-0.608,1.367-1.353,1.367
			c-0.751,0-1.346-0.609-1.346-1.367v-8.091c0-0.583,0.364-1.11,0.913-1.286l8.111-2.693c0.704-0.244,1.476,0.149,1.705,0.839
			c0.244,0.718-0.135,1.488-0.839,1.732l-5.994,1.989c2.814,3.071,6.786,4.817,10.953,4.817c8.201,0,14.858-6.645,14.858-14.858
			c0-0.744,0.603-1.339,1.354-1.339c0.743,0,1.353,0.595,1.353,1.339C347.211,254.331,345.445,258.701,342.279,261.989z"/>
	</g>
</g>
</svg>
