<?xml version="1.0" encoding="iso-8859-1"?>
<!-- Generator: Adobe Illustrator 16.0.0, SVG Export Plug-In . SVG Version: 6.00 Build 0)  -->
<!DOCTYPE svg PUBLIC "-//W3C//DTD SVG 1.1//EN" "http://www.w3.org/Graphics/SVG/1.1/DTD/svg11.dtd">
<svg version="1.1" id="&#x5716;&#x5C64;_1" xmlns="http://www.w3.org/2000/svg" xmlns:xlink="http://www.w3.org/1999/xlink" x="0px"
	 y="0px" width="500px" height="500px" viewBox="0 0 500 500" style="enable-background:new 0 0 500 500;" xml:space="preserve">
<g>
	<path style="fill:#C30D23;" d="M469.319,250c0,120.604-98.206,218.378-219.32,218.378c-121.122,0-219.318-97.774-219.318-218.378
		c0-120.61,98.196-218.372,219.318-218.372C371.113,31.628,469.319,129.39,469.319,250z"/>
	<path style="fill:#C30D23;" d="M492,250c0,133.081-108.354,240.952-242.001,240.952C116.355,490.952,8,383.081,8,250
		C8,116.912,116.355,9.048,249.999,9.048C383.646,9.048,492,116.912,492,250z M249.999,14.641
		C119.461,14.641,13.623,120.015,13.623,250c0,129.984,105.838,235.365,236.376,235.365c130.551,0,236.375-105.381,236.375-235.365
		C486.374,120.015,380.55,14.641,249.999,14.641z"/>
	<g>
		<g>
			<path style="fill:#FFFFFF;" d="M153.058,209.161c0-4.374-3.57-7.935-7.969-7.935h-23.932c-4.405,0-7.969,3.561-7.969,7.935
				c0,4.382,3.563,7.955,7.969,7.955h23.932C149.487,217.116,153.058,213.543,153.058,209.161z"/>
			<path style="fill:#FFFFFF;" d="M153.058,256.805c0-4.376-3.57-7.936-7.969-7.936h-23.932c-4.405,0-7.969,3.56-7.969,7.936
				c0,4.381,3.563,7.947,7.969,7.947h23.932C149.487,264.752,153.058,261.186,153.058,256.805z"/>
			<path style="fill:#FFFFFF;" d="M137.104,133.744v11.898h7.985c8.8,0,15.941,7.107,15.941,15.896c0,8.77-7.142,15.87-15.941,15.87
				h-7.985v15.883h7.985c8.8,0,15.941,7.101,15.941,15.869c0,8.79-7.142,15.896-15.941,15.896h-7.985v15.876h7.985
				c8.8,0,15.941,7.107,15.941,15.871c0,8.769-7.142,15.876-15.941,15.876h-7.985v15.883h7.985c8.8,0,15.941,7.12,15.941,15.883
				c0,8.776-7.142,15.883-15.941,15.883h-7.985v11.913c0,6.555,6.808,11.898,15.157,11.898h16.751v-222.31h-16.751
				C143.911,121.831,137.104,127.168,137.104,133.744z"/>
			<path style="fill:#FFFFFF;" d="M121.157,169.475h23.932c4.398,0,7.969-3.561,7.969-7.936c0-4.381-3.57-7.941-7.969-7.941h-23.932
				c-4.405,0-7.969,3.561-7.969,7.941C113.188,165.914,116.752,169.475,121.157,169.475z"/>
			<path style="fill:#FFFFFF;" d="M153.058,304.446c0-4.374-3.57-7.941-7.969-7.941h-23.932c-4.405,0-7.969,3.567-7.969,7.941
				c0,4.389,3.563,7.942,7.969,7.942h23.932C149.487,312.389,153.058,308.835,153.058,304.446z"/>
		</g>
		<path style="fill:#FFFFFF;" d="M343.157,140.844v123.154c-3.514-0.658-7.04-0.982-10.728-0.982c-1.724,0-3.366,0.081-5.008,0.243
			V129.753h1.723C336.844,129.753,343.157,134.727,343.157,140.844z"/>
		<path style="fill:#FFFFFF;" d="M314.957,121.831H177.023v222.31h95.494c-1.817-5.869-2.8-12.087-2.8-18.602
			c0-30.528,21.887-55.9,50.826-61.366V125.829C320.544,123.636,317.919,121.831,314.957,121.831z M248.74,183.378
			c17.128,0,20.076,10.85,20.076,24.316c0,13.379-9.019,24.241-20.076,24.241c-11.067,0-20.08-10.862-20.08-24.241
			C228.66,194.228,231.608,183.378,248.74,183.378z M286.61,268.804c0,0,0,0.175,0,0.754v1.87c0,0-5.572,11.187-37.87,11.187
			c-32.302,0-37.867-11.187-37.867-11.187v-2.368c0,0,0-0.417,0.081-1.871c0.41-22.688,3.606-29.215,26.799-33.462
			c0,0,3.28,4.247,10.987,4.247c7.71,0,10.989-4.247,10.989-4.247c23.436,4.247,26.464,10.937,26.881,34.27V268.804z"/>
		<g>
			<path style="fill:#FFFFFF;" d="M344.975,354.519c0.82,0,1.493-0.673,1.493-1.508v-35.212c0-0.82-0.673-1.467-1.493-1.467
				c-0.835,0-1.495,0.646-1.495,1.467v35.212C343.479,353.846,344.14,354.519,344.975,354.519z"/>
			<path style="fill:#FFFFFF;" d="M322.899,354.519c0.82,0,1.48-0.673,1.48-1.508v-35.212c0-0.82-0.66-1.467-1.48-1.467
				c-0.848,0-1.508,0.646-1.508,1.467v35.212C321.392,353.846,322.052,354.519,322.899,354.519z"/>
			<path style="fill:#FFFFFF;" d="M333.923,272.842c-29.209,0-52.885,23.569-52.885,52.656c0,29.088,23.676,52.656,52.885,52.656
				s52.899-23.568,52.899-52.656C386.822,296.411,363.132,272.842,333.923,272.842z M318.579,294.473
				c0-3.89,3.122-6.878,7.039-6.878h16.61c3.93,0,7.039,2.988,7.039,6.878v4.294h-2.988v-4.294c0-2.262-1.776-3.903-4.051-3.903
				h-16.61c-2.262,0-4.038,1.642-4.038,3.903v4.294h-3.001V294.473z M357.693,356.699c0,3.715-2.651,6.717-6.057,6.717h-35.4
				c-3.419,0-6.071-3.002-6.071-6.717v-46.021h47.528V356.699z M359.229,307.703h-50.598c-2.072,0-3.741-1.668-3.741-3.714
				c0-2.073,1.669-3.742,3.741-3.742h50.598c2.073,0,3.742,1.669,3.742,3.742C362.971,306.035,361.302,307.703,359.229,307.703z"/>
			<path style="fill:#FFFFFF;" d="M333.923,354.519c0.835,0,1.494-0.673,1.494-1.508v-35.212c0-0.82-0.659-1.467-1.494-1.467
				c-0.82,0-1.493,0.646-1.493,1.467v35.212C332.43,353.846,333.103,354.519,333.923,354.519z"/>
		</g>
	</g>
</g>
</svg>
