<?xml version="1.0" encoding="iso-8859-1"?>
<!-- Generator: Adobe Illustrator 16.0.0, SVG Export Plug-In . SVG Version: 6.00 Build 0)  -->
<!DOCTYPE svg PUBLIC "-//W3C//DTD SVG 1.1//EN" "http://www.w3.org/Graphics/SVG/1.1/DTD/svg11.dtd">
<svg version="1.1" id="&#x5716;&#x5C64;_1" xmlns="http://www.w3.org/2000/svg" xmlns:xlink="http://www.w3.org/1999/xlink" x="0px"
	 y="0px" width="500px" height="500px" viewBox="0 0 500 500" style="enable-background:new 0 0 500 500;" xml:space="preserve">
<g>
	<path style="fill:#D71174;" d="M415.438,399.371c-47.999,17.824-124.434,20.551-165.445,20.551
		c-41.001,0-117.437-2.727-165.436-20.551c-12.179,5.279-19.234,11.213-19.234,17.477v28.203c0,21.807,82.718,39.512,184.67,39.512
		c102.019,0,184.679-17.705,184.679-39.512v-28.203C434.673,410.584,427.637,404.65,415.438,399.371z"/>
	<path style="fill:#D71174;" d="M415.438,311.164c-47.999,17.822-124.434,20.529-165.445,20.529
		c-41.001,0-117.437-2.707-165.436-20.529c-12.179,5.258-19.234,11.174-19.234,17.475v28.205c0,21.805,82.718,39.494,184.67,39.494
		c102.019,0,184.679-17.689,184.679-39.494v-28.205C434.673,322.338,427.637,316.422,415.438,311.164z"/>
	<path style="fill:#D71174;" d="M398.1,216.906l-41.93,18.79c-3.52,1.585-7.25,2.396-11.077,2.396
		c-10.709,0-20.413-6.282-24.763-16.045l-8.448-18.789l-4.311-9.627c-0.87,1.236-1.623,2.59-2.726,3.711l-5.065,5.084l-30.61,30.602
		c-5.122,5.104-11.947,7.906-19.176,7.906c-7.23,0-14.034-2.803-19.177-7.906l-30.601-30.602l-5.084-5.084
		c-1.102-1.121-1.817-2.436-2.706-3.673l-4.311,9.589l-8.429,18.789c-4.349,9.763-14.073,16.045-24.763,16.045
		c-3.828,0-7.559-0.812-11.058-2.358l-41.949-18.828c-22.888,6.572-36.593,14.652-36.593,23.506v28.225
		c0,21.805,82.718,39.512,184.67,39.512c102.019,0,184.679-17.707,184.679-39.512v-28.225
		C434.673,231.559,420.986,223.479,398.1,216.906z"/>
	<path style="fill:#D71174;" d="M241.933,221.912c2.223,2.186,5.161,3.325,8.061,3.325c2.938,0,5.838-1.14,8.08-3.325l35.677-35.704
		c3.247-3.229,4.232-8.158,2.475-12.41c-1.779-4.292-5.936-7.076-10.555-7.076H265.69v-15.696V31.192
		c0-8.699-7.036-15.755-15.697-15.755c-8.699,0-15.736,7.056-15.736,15.755v119.833v15.696h-19.95
		c-4.601,0-8.757,2.784-10.516,7.076c-1.798,4.252-0.812,9.182,2.475,12.41L241.933,221.912z"/>
	<path style="fill:#D71174;" d="M474.379,66.239c-64.952,6.07-101.102,47.593-120.046,81.036c-2.765,4.871-5.277,9.646-7.346,14.034
		l-18.52-7.036c-1.313-0.542-2.705-0.773-4.06-0.773c-3.054,0-6.089,1.237-8.312,3.596c-3.132,3.363-3.982,8.273-2.088,12.488
		l20.646,46.046c1.914,4.214,6.07,6.728,10.438,6.728c1.547,0,3.112-0.31,4.64-1.005l46.028-20.607
		c4.193-1.913,6.861-6.147,6.726-10.748c-0.135-4.64-3.035-8.68-7.325-10.323l-18.559-7.075c2.165-4.407,4.64-9.047,7.616-13.918
		c16.083-26.232,44.81-56.659,93.06-61.145c8.66-0.812,15.002-8.447,14.189-17.107C490.676,71.826,482.827,65.524,474.379,66.239z"
		/>
	<path style="fill:#D71174;" d="M116.01,158.604c2.958,4.871,5.413,9.55,7.54,13.957l-18.694,7.113
		c-4.311,1.644-7.21,5.684-7.345,10.323c-0.117,4.601,2.513,8.835,6.747,10.748l46.027,20.607c1.507,0.695,3.092,1.005,4.639,1.005
		c4.369,0,8.544-2.514,10.439-6.728l20.645-46.046c1.875-4.215,1.044-9.125-2.126-12.488c-2.204-2.358-5.219-3.596-8.274-3.596
		c-1.353,0-2.745,0.231-4.06,0.773l-18.558,7.036c-2.049-4.388-4.563-9.124-7.308-14.034
		C126.738,113.832,90.551,72.31,25.637,66.239C17.131,65.485,9.34,71.826,8.529,80.429c-0.792,8.66,5.548,16.296,14.208,17.107
		C71.374,102.06,100.062,132.391,116.01,158.604z"/>
</g>
</svg>
