<?xml version="1.0" encoding="iso-8859-1"?>
<!-- Generator: Adobe Illustrator 16.0.0, SVG Export Plug-In . SVG Version: 6.00 Build 0)  -->
<!DOCTYPE svg PUBLIC "-//W3C//DTD SVG 1.1//EN" "http://www.w3.org/Graphics/SVG/1.1/DTD/svg11.dtd">
<svg version="1.1" id="&#x5716;&#x5C64;_1" xmlns="http://www.w3.org/2000/svg" xmlns:xlink="http://www.w3.org/1999/xlink" x="0px"
	 y="0px" width="500px" height="500px" viewBox="0 0 500 500" style="enable-background:new 0 0 500 500;" xml:space="preserve">
<g>
	<g>
		<path style="fill:#604C3F;" d="M482.823,245.515c-27.246-11.618-48.501-34.572-57.857-62.958
			c-1.787-5.415-6.344-9.48-11.968-10.374c-17.19-2.699-34.783-4.119-52.727-4.119s-35.534,1.419-52.707,4.119
			c-5.642,0.894-10.198,4.958-11.986,10.374c-9.34,28.387-30.594,51.341-57.842,62.958c-6.098,2.61-9.813,8.849-9.129,15.42
			c8.06,76.451,57.877,146.313,126.023,174.121c3.608,1.455,7.691,1.455,11.301,0c68.146-27.808,117.945-97.67,126.005-174.121
			C492.637,254.363,488.904,248.125,482.823,245.515z M331.359,241.607c0-15.999,12.933-28.947,28.912-28.947
			c15.98,0,28.93,12.948,28.93,28.947v10.496c0,15.965-12.949,28.931-28.93,28.931c-15.962,0-28.912-12.966-28.912-28.931V241.607z
			 M412.138,349.563c0,6.748-5.447,12.213-12.194,12.213h-79.325c-6.745,0-12.213-5.465-12.213-12.213V327.17
			c0-10.217,2.943-19.714,8.06-27.739c3.4-5.378,10.55-7.043,15.929-3.609c1.595,1.018,3.26,1.877,4.959,2.698
			c0.825,0.423,1.682,0.825,2.539,1.21c1.281,0.525,2.561,1.017,3.873,1.454c0.859,0.281,1.72,0.596,2.594,0.842
			c1.474,0.402,2.979,0.735,4.521,0.998c0.772,0.14,1.508,0.352,2.296,0.438c2.329,0.316,4.695,0.527,7.096,0.527
			c2.417,0,4.784-0.211,7.114-0.527c0.771-0.086,1.524-0.298,2.277-0.438c1.543-0.263,3.051-0.596,4.521-0.998
			c0.895-0.246,1.718-0.561,2.576-0.842c1.313-0.438,2.629-0.929,3.889-1.454c0.878-0.385,1.701-0.787,2.541-1.191
			c1.683-0.84,3.385-1.699,4.96-2.717c5.36-3.434,12.528-1.769,15.945,3.609c5.117,8.025,8.042,17.522,8.042,27.739V349.563z"/>
		<path style="fill:#604C3F;" d="M59.882,209.839H259.71c11.915-12.512,21.08-27.615,26.6-44.402
			c2.049-6.186,7.219-10.882,13.702-11.863c19.625-3.118,39.757-4.696,60.277-4.696V28.813c0-12.791-10.426-23.201-23.218-23.201
			H128.097v96.48c0,13.072-10.583,23.638-23.638,23.638H7.98v345.458c0,12.792,10.408,23.2,23.235,23.2h305.856
			c12.792,0,23.218-10.408,23.218-23.2v-15.822c-2.209,0-4.433-0.419-6.482-1.279c-27.037-11.074-51.534-27.844-72.352-48.73H59.882
			c-3.977,0-7.167-3.241-7.167-7.165c0-3.996,3.189-7.186,7.167-7.186h208.397c-11.986-14.019-22.395-29.525-31.034-46.031H59.882
			c-3.977,0-7.167-3.226-7.167-7.169c0-3.94,3.189-7.184,7.167-7.184h170.355c-6.588-14.735-11.81-30.173-15.472-46.031H59.882
			c-3.977,0-7.167-3.241-7.167-7.166c0-3.962,3.189-7.204,7.167-7.204h151.957c-0.876-5.01-1.577-10.073-2.103-15.19
			c-0.806-7.5,3.452-14.631,10.408-17.611c8.253-3.556,16.033-7.972,23.201-13.211H59.882c-3.977,0-7.167-3.241-7.167-7.185
			C52.715,213.081,55.905,209.839,59.882,209.839z M133.004,131.88H235.3c3.943,0,7.132,3.189,7.132,7.115
			c0,3.995-3.189,7.184-7.132,7.184H133.004c-3.942,0-7.184-3.189-7.184-7.184C125.82,135.069,129.062,131.88,133.004,131.88z"/>
		<path style="fill:#604C3F;" d="M116.112,5.612L7.98,113.745h88.646c10.76,0,19.486-8.743,19.486-19.502V5.612z"/>
	</g>
</g>
</svg>
