<?xml version="1.0" encoding="iso-8859-1"?>
<!-- Generator: Adobe Illustrator 16.0.0, SVG Export Plug-In . SVG Version: 6.00 Build 0)  -->
<!DOCTYPE svg PUBLIC "-//W3C//DTD SVG 1.1//EN" "http://www.w3.org/Graphics/SVG/1.1/DTD/svg11.dtd">
<svg version="1.1" id="&#x5716;&#x5C64;_1" xmlns="http://www.w3.org/2000/svg" xmlns:xlink="http://www.w3.org/1999/xlink" x="0px"
	 y="0px" width="500px" height="500px" viewBox="0 0 500 500" style="enable-background:new 0 0 500 500;" xml:space="preserve">
<g>
	<path style="fill:#E35F26;" d="M492,250.001c0,133.663-108.351,242.005-241.993,242.005C116.351,492.006,8,383.664,8,250.001
		S116.351,7.994,250.007,7.994C383.649,7.994,492,116.338,492,250.001z M250.007,13.609c-130.557,0-236.391,105.834-236.391,236.392
		s105.834,236.39,236.391,236.39c130.557,0,236.378-105.832,236.378-236.39S380.563,13.609,250.007,13.609z"/>
	<g>
		<path style="fill:#E35F26;" d="M166.311,267.281c-2.422,0-4.296,1.941-4.296,4.295v8.662c0,2.354,1.875,4.297,4.296,4.297
			c2.354,0,4.296-1.943,4.296-4.297v-8.662C170.607,269.223,168.666,267.281,166.311,267.281z"/>
		<path style="fill:#E35F26;" d="M187.861,275.873c-2.354,0-4.296,1.941-4.296,4.365v17.252c0,2.355,1.941,4.297,4.296,4.297
			c2.422,0,4.364-1.941,4.364-4.297v-17.252C192.225,277.814,190.283,275.873,187.861,275.873z"/>
		<path style="fill:#E35F26;" d="M209.438,363.256h34.52c4.79,0,8.633-3.869,8.633-8.625c0-4.771-3.843-8.621-8.633-8.621h-34.52
			c-4.75,0-8.607,3.85-8.607,8.621C200.831,359.387,204.688,363.256,209.438,363.256z"/>
		<path style="fill:#E35F26;" d="M248.289,132.421c-2.396,0-4.331,1.942-4.331,4.323c0,2.389,1.935,4.311,4.331,4.311
			c2.368,0,4.302-1.922,4.302-4.311C252.591,134.363,250.656,132.421,248.289,132.421z"/>
		<path style="fill:#E35F26;" d="M187.881,132.421h-21.57c-2.395,0-4.33,1.942-4.33,4.323c0,2.389,1.935,4.311,4.33,4.311h21.57
			c2.382,0,4.317-1.922,4.317-4.311C192.198,134.363,190.263,132.421,187.881,132.421z"/>
		<path style="fill:#E35F26;" d="M282.795,132.421c-2.382,0-4.316,1.942-4.316,4.323c0,2.389,1.935,4.311,4.316,4.311
			c2.368,0,4.304-1.922,4.304-4.311C287.099,134.363,285.163,132.421,282.795,132.421z"/>
		<path style="fill:#E35F26;" d="M265.541,132.421c-2.382,0-4.316,1.942-4.316,4.323c0,2.389,1.935,4.311,4.316,4.311
			c2.383,0,4.316-1.922,4.316-4.311C269.857,134.363,267.924,132.421,265.541,132.421z"/>
		<path style="fill:#E35F26;" d="M209.404,284.535c-2.354,0-4.222,1.941-4.222,4.295v17.246c0,2.43,1.867,4.297,4.222,4.297
			c2.429,0,4.371-1.867,4.371-4.297V288.83C213.774,286.477,211.833,284.535,209.404,284.535z"/>
		<path style="fill:#E35F26;" d="M200.831,211.895c2.517,0,4.561,2.05,4.561,4.587c0,1.692,1.38,3.059,3.072,3.059
			c1.678,0,3.045-1.366,3.045-3.059c-0.014-4.709-3.112-8.856-7.632-10.21v-3.538c0-1.685-1.367-3.052-3.045-3.052
			c-1.705,0-3.071,1.367-3.071,3.052v3.538c-5.102,1.496-8.322,6.517-7.551,11.78c0.771,5.25,5.304,9.147,10.622,9.113
			c2.517,0,4.561,2.05,4.561,4.581c0,2.53-2.043,4.587-4.561,4.587c-2.544,0-4.601-2.057-4.601-4.587
			c0-1.691-1.353-3.045-3.031-3.045c-1.691,0-3.071,1.354-3.071,3.045c0.027,4.709,3.125,8.85,7.632,10.203v3.545
			c0,1.679,1.367,3.045,3.071,3.045c1.678,0,3.045-1.366,3.045-3.045v-3.545c5.102-1.488,8.322-6.509,7.564-11.786
			c-0.771-5.251-5.305-9.135-10.609-9.107c-2.544,0-4.601-2.043-4.601-4.574C196.23,213.944,198.287,211.895,200.831,211.895z"/>
		<path style="fill:#E35F26;" d="M299.467,237.477c5.859,0,11.421,2.456,15.357,6.767l-8.389,2.794
			c-0.975,0.332-1.516,1.407-1.191,2.402c0.339,0.994,1.408,1.522,2.395,1.197l11.368-3.789c0.785-0.257,1.313-0.975,1.286-1.8
			v-11.367c0-1.042-0.854-1.901-1.896-1.901s-1.881,0.859-1.881,1.901v6.915c-9.77-9.438-25.318-9.188-34.764,0.568
			c-4.452,4.595-6.928,10.744-6.914,17.145c0,1.043,0.839,1.895,1.88,1.895c1.069,0,1.895-0.852,1.895-1.895
			C278.613,246.801,287.95,237.47,299.467,237.477z"/>
		<path style="fill:#E35F26;" d="M250.007,30.674c-121.125,0-219.327,98.194-219.327,219.327
			c0,121.132,98.202,219.327,219.327,219.327c121.125,0,219.326-98.195,219.326-219.327
			C469.333,128.868,371.132,30.674,250.007,30.674z M149.044,136.744c0-9.533,7.727-17.26,17.267-17.26h120.788
			c9.553,0,17.279,7.727,17.279,17.26v17.261H149.044V136.744z M304.378,363.256c0,9.535-7.727,17.254-17.279,17.254H166.311
			c-9.54,0-17.267-7.719-17.267-17.254v-34.512h155.334V363.256z M304.392,323.33H149.058V159.403h155.334v40.671
			c-3.734-0.277-7.618-0.277-11.292,0.142c-5.054,0.556-8.863,4.987-8.728,10.115c0.067,1.867-1.036,3.6-2.7,4.297
			c-1.455,0.623-3.952,0.067-5.062-1.178c-3.322-3.606-9.215-4.16-13.234-1.041c-3.531,2.699-6.718,5.886-9.418,9.282
			c-3.261,3.952-2.842,9.838,1.035,13.444c1.387,1.245,1.874,3.322,1.109,4.986c-0.689,1.664-2.563,2.7-4.919,2.7
			c-5.054,0-9.147,3.674-9.77,8.66c-0.48,4.363-0.48,8.869,0,13.377c0.555,4.844,5.061,8.66,10.535,8.66
			c1.663,0,3.254,1.109,3.877,2.699c0.696,1.732,0.276,3.742-1.11,4.986c-3.809,3.539-4.29,9.357-1.104,13.303
			c2.768,3.465,5.887,6.65,9.21,9.357c3.883,3.119,10.047,2.699,13.443-1.043c1.11-1.178,3.606-1.73,5.061-1.178
			c1.732,0.766,2.835,2.496,2.7,4.365c-0.345,5.197,3.465,9.77,8.593,10.324c2.287,0.277,4.5,0.412,6.786,0.412
			c1.664,0,3.396-0.066,4.986-0.201V323.33z M350.617,264.305c-0.189,1.502-1.543,2.65-3.031,2.516l-0.623-0.014
			c-4.56,0-8.795,2.803-10.541,6.982c-1.867,4.432-0.703,9.596,2.883,12.842c1.123,1.029,1.258,2.734,0.325,3.918
			c-2.463,3.051-5.251,5.826-8.336,8.234c-1.191,0.92-2.883,0.785-3.885-0.324c-3.071-3.355-8.524-4.629-12.761-2.904
			c-4.397,1.801-7.226,6.213-7.036,10.982c0.026,1.502-1.068,2.787-2.558,2.951c-1.895,0.215-3.762,0.311-5.656,0.311
			c-1.976,0-3.965-0.107-5.94-0.346c-1.502-0.168-2.611-1.488-2.517-3.004c0.284-4.824-2.531-9.316-6.956-11.178
			c-4.262-1.779-9.77-0.521-12.842,2.891c-1.028,1.121-2.746,1.258-3.924,0.303c-3.019-2.422-5.751-5.189-8.146-8.234
			c-0.947-1.176-0.799-2.869,0.312-3.883c3.519-3.221,4.682-8.336,2.882-12.734c-1.8-4.396-6.116-7.172-10.596-7.051
			c-1.488,0-3.207-1.08-3.382-2.537c-0.433-3.891-0.433-7.84,0.027-11.711c0.175-1.481,1.353-2.577,2.977-2.53
			c5.021,0,9.419-2.72,11.218-6.955c1.854-4.438,0.69-9.608-2.909-12.843c-1.109-1.028-1.259-2.739-0.284-3.924
			c2.423-3.031,5.237-5.818,8.31-8.228c1.203-0.92,2.882-0.792,3.896,0.312c3.072,3.383,8.525,4.628,12.747,2.916
			c4.384-1.8,7.213-6.211,7.051-10.995c-0.055-1.488,1.068-2.773,2.558-2.937c3.829-0.433,7.739-0.412,11.583,0.027
			c1.503,0.176,2.611,1.488,2.518,3.004c-0.285,4.831,2.53,9.311,6.954,11.178c4.264,1.786,9.784,0.514,12.842-2.875
			c1.016-1.131,2.748-1.259,3.912-0.325c2.989,2.401,5.751,5.176,8.16,8.241c0.933,1.184,0.797,2.868-0.325,3.89
			c-3.519,3.221-4.655,8.337-2.855,12.728c1.746,4.29,5.927,7.063,10.649,7.063c1.461,0,3.153,1.075,3.302,2.53
			C351.064,256.488,351.051,260.42,350.617,264.305z"/>
		<path style="fill:#E35F26;" d="M322.2,256.414c-1.043,0-1.907,0.854-1.907,1.895c0,11.516-9.324,20.834-20.84,20.834
			c-5.846,0-11.422-2.457-15.359-6.773l8.403-2.787c0.975-0.34,1.529-1.408,1.191-2.41c-0.339-0.988-1.407-1.527-2.396-1.191
			l-11.38,3.783c-0.785,0.258-1.3,0.996-1.3,1.807v11.359c0,1.051,0.853,1.902,1.908,1.902c1.027,0,1.881-0.852,1.881-1.902v-6.906
			c9.757,9.438,25.332,9.18,34.764-0.568c4.452-4.602,6.929-10.744,6.929-17.146C324.095,257.268,323.242,256.414,322.2,256.414z"/>
		<path style="fill:#E35F26;" d="M200.818,185.25c-21.408,0-38.803,17.389-38.803,38.871c0,21.475,17.396,38.795,38.803,38.795
			c21.476,0,38.864-17.32,38.864-38.795C239.682,202.639,222.293,185.25,200.818,185.25z M200.831,255.17
			c-17.158,0-31.069-13.904-31.069-31.056c0-17.159,13.911-31.069,31.069-31.069c17.146,0,31.056,13.91,31.056,31.069
			C231.887,241.266,217.977,255.17,200.831,255.17z"/>
	</g>
</g>
</svg>
