<?xml version="1.0" encoding="iso-8859-1"?>
<!-- Generator: Adobe Illustrator 16.0.0, SVG Export Plug-In . SVG Version: 6.00 Build 0)  -->
<!DOCTYPE svg PUBLIC "-//W3C//DTD SVG 1.1//EN" "http://www.w3.org/Graphics/SVG/1.1/DTD/svg11.dtd">
<svg version="1.1" id="&#x5716;&#x5C64;_1" xmlns="http://www.w3.org/2000/svg" xmlns:xlink="http://www.w3.org/1999/xlink" x="0px"
	 y="0px" width="500px" height="500px" viewBox="0 0 500 500" style="enable-background:new 0 0 500 500;" xml:space="preserve">
<path d="M433.971,428.158c0,28.065-52.354,51.947-125.015,60.449h-0.09c-18.498,2.216-38.309,3.393-58.888,3.393
	c-20.58,0-40.401-1.177-58.844-3.369c-0.045,0-0.136-0.023-0.226-0.023c-72.65-8.502-124.879-32.384-124.879-60.449
	c4.161-3.641,8.685-7.937,13.705-10.718l83.573-45.569l1.957-1.04c11.126-6.151,18.137-17.889,18.137-30.644v-35.03
	c0,0-25.057-30.032-34.646-71.734c-7.96-5.133-13.252-14.043-13.252-24.129v-38.377c0-8.413,3.754-15.943,9.543-21.258V94.275
	c0,0-11.364-86.275,105.475-86.275c116.828,0,105.43,86.275,105.43,86.275v55.383c5.834,5.315,9.589,12.845,9.589,21.258v38.377
	c0,12.913-8.684,23.723-20.354,27.318c-6.559,20.376-16.012,39.734-28.518,57.374c-3.144,4.455-6.083,8.23-8.684,11.171v35.913
	c0,11.465,5.63,22.071,14.79,28.471c1.47,1.041,2.962,1.946,4.5,2.714l91.635,45.817
	C424.382,420.831,429.403,424.314,433.971,428.158z"/>
</svg>
