<?xml version="1.0" encoding="iso-8859-1"?>
<!-- Generator: Adobe Illustrator 16.0.0, SVG Export Plug-In . SVG Version: 6.00 Build 0)  -->
<!DOCTYPE svg PUBLIC "-//W3C//DTD SVG 1.1//EN" "http://www.w3.org/Graphics/SVG/1.1/DTD/svg11.dtd">
<svg version="1.1" id="&#x5716;&#x5C64;_1" xmlns="http://www.w3.org/2000/svg" xmlns:xlink="http://www.w3.org/1999/xlink" x="0px"
	 y="0px" width="500px" height="500px" viewBox="0 0 500 500" style="enable-background:new 0 0 500 500;" xml:space="preserve">
<g>
	<path style="fill:#C30D23;" d="M492,250c0,133.658-108.345,242.004-242.011,242.004C116.36,492.004,8,383.658,8,250
		S116.36,7.996,249.989,7.996C383.655,7.996,492,116.342,492,250z"/>
	<g>
		<path style="fill:#FFFFFF;" d="M397.748,275.762c-5.565-13.958-12.717-27.153-21.543-39.406c-0.958-1.302-1.945-2.334-1.048-4.488
			c4.219-10.502,2.843-20.675-2.573-30.46c-2.424-4.383-5.326-8.572-5.625-13.883c-0.39-7.66-2.334-15.021-4.339-22.382
			c-6.941-25.702-20.765-46.243-44.583-59.139C304.514,98.688,290,94.528,274.682,92.838c-15.761-1.735-31.335-1.047-46.85,2.244
			c-25.657,5.431-44.553,20.571-59.169,41.546c-9.604,13.779-16.427,28.784-18.491,45.75c-0.39,3.276,0.808,6.867-1.302,9.874
			c-1.841,2.603-2.888,5.521-3.411,8.558c-0.763,4.563-1.825,8.901-4.159,13.045c-2.843,5.013-3.605,10.787-2.438,16.427
			c0.494,2.439-0.03,3.695-1.706,4.968c-9.963,7.45-18.191,16.411-25.104,26.794c-9.845,14.767-15.648,30.774-16.606,48.503
			c-0.374,7.121,0.494,14.078,2.992,20.825c1.227,3.262,2.813,4.787,6.673,3.665c3.246-0.942,6.014-2.394,8.468-4.548
			c5.116-4.488,9.29-9.739,12.058-16.023c0.329-0.718,0.24-1.854,1.406-1.779c1.077,0.045,1.167,0.972,1.347,1.825
			c1.646,7.675,5.222,14.586,9.052,21.304c4.084,7.195,9.934,12.985,16.053,18.416c2.124,1.886,5.161,2.768,6.343,5.971
			c-4.398,0-8.482,0.627-12.343,1.943c-6.597,2.289-12.462,5.655-13.988,13.271c-1.466,7.286-1.975,14.481,4.698,19.868
			c2.633,2.124,5.535,3.815,8.677,5.161c11.071,4.728,22.86,6.253,34.679,7.017c14.632,0.942,29.309,1.302,43.626-2.678
			c8.317-2.305,16.008-6.045,23.219-10.771c0.688-0.449,1.122-1.467,2.095-1.182c5.744,1.645,11.773-0.076,17.571,2.198
			c9.306,3.636,18.94,6.403,28.874,8.004c14.721,2.379,29.532,3.485,44.402,1.601c10.055-1.286,19.958-3.5,28.785-8.856
			c11.34-6.896,11.669-18.851,1.018-26.6c-5.236-3.815-10.802-6.987-16.637-9.755c-1.526-0.718-3.172-1.211-4.369-2.857
			c11.76-10.801,17.684-25.104,23.608-39.721c3.352,6.254,6.643,12.193,10.981,17.385c4.638,5.551,8.677,5.416,13.225-0.12
			c1.826-2.198,3.143-4.638,3.98-7.405C407.144,309.185,404.301,292.249,397.748,275.762z M272.826,145.395
			c7.031-11.504,18.971-11.744,25.972-0.269c6.074,9.948,6.254,22.411,3.141,33.407c-1.495,5.311-3.679,10.082-8.975,12.776
			c-7.151,3.665-13.765,2.214-18.581-4.249c-4.907-6.628-6.703-14.183-6.402-22.516C267.77,157.842,269.176,151.334,272.826,145.395
			z M221.25,142.927c6.717-8.662,16.501-8.707,23.144-0.045c5.057,6.567,6.583,14.197,6.702,22.904
			c-0.239,7.704-1.885,15.664-7.675,22.082c-6.672,7.405-15.604,7.017-21.797-0.748C212.647,175.93,212.468,154.267,221.25,142.927z
			 M191.403,217.176c9.619-6.598,20.436-10.442,31.687-12.881c24.745-5.386,49.527-6.059,74.242,0.284
			c10.023,2.559,19.748,6.044,28.486,11.729c5.385,3.53,5.324,4.847-0.091,8.168c-5.774,3.546-11.819,6.493-19.39,6.464
			c2.724-3.037,6.194-4.728,8.318-9.351c-36.863,25.343-72.955,27.393-109.205,1.122c1.601,2.588,3.201,5.176,5.177,8.348
			c-7.032-1.766-13.315-3.426-19.045-6.538C187.064,222.068,187.124,220.123,191.403,217.176z M237.512,393.922
			c-4.443,4.338-10.338,5.774-15.978,7.016c-21.395,4.729-42.907,5.745-64.301,0.15c-6.643-1.751-13.315-4.055-18.372-9.171
			c-3.74-3.8-3.681-7.062,0.06-10.951c2.334-2.424,5.027-4.354,7.54-6.853c-1.915,0.344-3.859,0.629-5.774,1.077
			c-0.958,0.225-2.064,0.973-2.633-0.119c-0.39-0.748-0.329-2.065,0.06-2.857c0.942-1.735,2.214-3.321,3.979-4.339
			c2.424-1.422,4.877-2.857,7.45-4.01c6.104-2.768,11.475-3.007,17.504,1.646c11.64,8.931,25.164,14.496,39.197,18.82
			c9.948,3.066,20.092,5.071,30.37,6.644c0.763,0.118,1.855-0.315,2.259,0.627C239.412,392.83,238.17,393.278,237.512,393.922z
			 M352.566,361.218c4.01,1.944,8.229,3.635,12.896,7.375c-3.8,0.3-7.031,0.404-9.814,2.185c-0.568,0.344-1.346,1.002-1.316,1.451
			c0.09,1.197,1.197,0.838,2.005,0.838c3.681,0,7.36-0.193,11.041,0c6.793,0.359,10.233,5.551,7.689,11.818
			c-3.321,8.229-10.861,11.206-18.461,13.585c-23.907,7.585-47.666,5.206-71.243-1.99c-2.603-0.793-5.685-0.688-6.941-4.233
			c24.686-3.92,46.498-13.569,65.139-29.937C347.031,359.287,348.707,359.317,352.566,361.218z M346.553,347.648
			c-16.576,21.349-38.389,34.544-64.601,40.498c-9.934,2.26-20.024,1.122-30.019,0.149c-15.319-1.496-30.43-4.249-44.702-10.308
			c-8.856-3.77-17.385-8.153-24.999-14.317c-14.812-11.998-26.391-26.121-30.235-45.271c-3.472-17.31-2.065-34.275,5.355-50.522
			c0.539-1.137,1.197-2.229,1.735-3.366c1.332-2.738,2.633-3.919,5.745-1.541c3.321,2.514,7.241,4.309,10.981,6.283
			c1.436,0.764,1.795,1.392,1.57,3.217c-1.615,12.911-3.007,25.852-1.541,38.942c0.868,7.81,5.536,12.717,11.983,15.515
			c8.902,3.875,18.507,3.381,27.947,1.855c3.845-0.629,8.213-5.625,8.063-11.355l-0.628-25.927L223,286.115
			c10.263,2.872,20.811,3.785,31.298,4.039c24.932,0.584,48.3-5.445,70.682-16.067c6.612-3.157,13.016-6.688,19.12-10.742
			c1.496-1.017,2.094-1.122,3.201,0.539c9.425,13.913,15.141,28.979,14.152,46.049C360.586,324.115,355.14,336.577,346.553,347.648z
			 M209.954,299.266l-0.299-9.756c0.209-1.794-0.838-5.101,2.064-5.594c3.591-0.599,6.941,1.975,7.301,5.594
			c0.853,9.053,1.437,18.209,1.107,27.379c-0.15,4.414-2.334,7.062-7.301,7.316c-7.106,0.389-14.168,0.613-21.155-0.928
			c-9.784-2.185-13.255-6.986-13.539-18.072c-0.284-10.443,2.214-20.496,4.1-30.64c0.299-1.631,0.912-1.571,2.259-1.003
			c6.209,2.664,12.298,5.671,18.851,7.391c1.989,0.509,1.676,1.871,1.735,3.277c0.239,6.537,1.107,12.971,3.321,19.164
			c0.344,1.018,0.867,1.975,1.676,3.755L209.954,299.266z M373.093,226.183c-2.304,12.566-9.545,21.737-20.018,28.261
			c-22.381,13.928-46.139,24.745-72.29,29.547c-15.17,2.768-30.317,2.678-45.637,0.703c-18.223-2.318-35.547-7.555-52.198-15.064
			c-13.898-6.254-27.094-13.75-36.669-26.122c-7.032-9.036-7.974-18.491-1.54-26.884c1.975,12.013,8.691,20.69,18.087,27.662
			c-3.561-6.104-7.181-12.163-10.667-18.313c-3.71-6.537-3.381-13.688-3.037-20.84c0.404-0.045,0.808-0.164,0.883-0.075
			c12.746,18.911,30.954,30.415,51.988,37.821c26.601,9.395,54.188,12.313,82.022,9.156c28.335-3.202,53.768-14.079,75.162-33.468
			c1.346-1.227,2.813-2.349,3.891-3.246c-4.879,20.271-19.36,33.197-36.864,43.64c24.057-8.707,36.504-27.722,44.883-50.402
			C373.602,212.358,374.26,219.63,373.093,226.183z"/>
		<path style="fill:#FFFFFF;" d="M276.955,169.945c1.676,0.329,1.886-1.302,2.215-2.498c0.628-2.305,0.957-5.312,3.83-5.356
			c2.633-0.029,2.723,2.947,3.052,4.893c0.27,1.556,1.196,3.187,2.902,2.947c2.154-0.3,1.915-11.235-3.65-13.105
			c-5.087-1.931-10.112,3.007-9.993,9.934C275.34,168.001,275.37,169.646,276.955,169.945z"/>
		<path style="fill:#FFFFFF;" d="M241.596,175.885c2.679,0.194,4.189-1.57,5.177-3.65c2.483-5.161,2.408-10.383-0.584-15.319
			c-2.184-3.591-5.805-3.74-8.288-0.509c-1.975,2.588-2.483,5.61-2.423,8.781c0.045,2.26,0.239,4.474,1.211,6.568
			C237.691,173.895,239.038,175.69,241.596,175.885z"/>
	</g>
</g>
</svg>
