<?xml version="1.0" encoding="iso-8859-1"?>
<!-- Generator: Adobe Illustrator 16.0.0, SVG Export Plug-In . SVG Version: 6.00 Build 0)  -->
<!DOCTYPE svg PUBLIC "-//W3C//DTD SVG 1.1//EN" "http://www.w3.org/Graphics/SVG/1.1/DTD/svg11.dtd">
<svg version="1.1" id="&#x5716;&#x5C64;_1" xmlns="http://www.w3.org/2000/svg" xmlns:xlink="http://www.w3.org/1999/xlink" x="0px"
	 y="0px" width="500px" height="500px" viewBox="0 0 500 500" style="enable-background:new 0 0 500 500;" xml:space="preserve">
<g>
	<g>
		<path style="fill:#E35F26;" d="M487.192,142.129c0-0.171,0-0.171-0.151-0.171c0-0.153,0-0.153,0-0.153
			c-1.033-1.835-2.027-3.498-3.214-4.855l-42.665-53.677c-4.014-5.009-10.169-8.009-16.515-8.009H203.735
			c-6.327,0-12.521,3-16.517,8.009l-42.685,53.677c-1.146,1.357-2.16,2.848-2.982,4.664c-0.191,0.191-0.191,0.191-0.191,0.345
			c-2.981,5.677-4.989,12.864-4.989,18.16v31.044h64.688c3.69,0,6.672,2.982,6.672,6.671c0,3.842-2.981,6.806-6.672,6.806h-64.688
			v35.708h19.67c3.671,0,6.672,3.001,6.672,6.671s-3.001,6.672-6.672,6.672h-19.67v45.859h81.377c3.67,0,6.67,2.98,6.67,6.67
			c0,3.633-3,6.65-6.67,6.65h-81.377v54.865h26.857c3.823,0,6.825,2.98,6.825,6.652c0,3.689-3.002,6.842-6.825,6.842h-26.857v17.014
			c0,14.682,11.834,26.494,26.515,26.494h302.631c14.642,0,26.493-11.813,26.493-26.494V160.118
			C492.01,154.822,490.021,147.635,487.192,142.129z M158.412,136.452l14.146-17.662h96.515l9.53-15.676H185.06l10.494-13.171
			c2.027-2.504,5.009-4.014,8.182-4.014h220.912c3.172,0,6.192,1.51,8.332,4.014l10.361,13.171h-95.196l5.315,15.676h102.383
			l14.184,17.662H158.412z M475.189,382.738l-10.668-14.355V191.162l10.668-14.337V382.738z"/>
		<path style="fill:#E35F26;" d="M136.371,191.162v13.477H59.66c-3.632,0-6.652-2.964-6.652-6.806c0-3.688,3.021-6.671,6.652-6.671
			H136.371z"/>
		<path style="fill:#E35F26;" d="M136.371,240.347v13.343H14.661c-3.67,0-6.671-3.002-6.671-6.672s3.001-6.671,6.671-6.671H136.371z
			"/>
		<path style="fill:#E35F26;" d="M136.371,299.549v13.32H76.367c-3.688,0-6.69-3.018-6.69-6.65c0-3.689,3.002-6.67,6.69-6.67
			H136.371z"/>
		<path style="fill:#E35F26;" d="M136.371,367.734v13.494H36.339c-3.67,0-6.844-3.152-6.844-6.842c0-3.672,3.174-6.652,6.844-6.652
			H136.371z"/>
	</g>
</g>
</svg>
