<?xml version="1.0" encoding="iso-8859-1"?>
<!-- Generator: Adobe Illustrator 16.0.0, SVG Export Plug-In . SVG Version: 6.00 Build 0)  -->
<!DOCTYPE svg PUBLIC "-//W3C//DTD SVG 1.1//EN" "http://www.w3.org/Graphics/SVG/1.1/DTD/svg11.dtd">
<svg version="1.1" id="&#x5716;&#x5C64;_1" xmlns="http://www.w3.org/2000/svg" xmlns:xlink="http://www.w3.org/1999/xlink" x="0px"
	 y="0px" width="500px" height="500px" viewBox="0 0 500 500" style="enable-background:new 0 0 500 500;" xml:space="preserve">
<g>
	<path style="fill:#ED7044;" d="M108.515,267.057c-42.846,0-77.591,34.744-77.591,77.592c0,42.846,34.745,77.592,77.591,77.592
		c42.848,0,77.593-34.746,77.593-77.592C186.071,301.818,151.345,267.111,108.515,267.057z M137.606,325.254h-19.394v-1.412
		c0-4.568-3.716-8.285-8.283-8.285h-2.828c-4.567,0-8.282,3.697-8.282,8.266c-0.037,3.154,1.758,6.035,4.585,7.449l18.886,9.443
		c13.666,6.797,19.194,23.326,12.415,36.975c-3.353,6.742-9.316,11.799-16.493,14.047v11.111H98.819v-11.111
		c-11.509-3.59-19.375-14.209-19.412-26.281v-1.414h19.412v1.414c0,4.586,3.715,8.283,8.282,8.283h2.828
		c4.567,0.018,8.283-3.697,8.283-8.266c0-3.154-1.758-6.035-4.586-7.432l-18.886-9.443c-13.667-6.777-19.194-23.344-12.416-36.99
		c3.353-6.744,9.315-11.801,16.494-14.049v-11.109h19.394v11.109c11.509,3.59,19.357,14.211,19.394,26.283V325.254z"/>
	<path style="fill:#ED7044;" d="M69.021,85.482H10.116c0,0-12.94-49.191,26.317-54.737C53.615,34.079,63.439,54.813,69.021,85.482z"
		/>
	<path style="fill:#ED7044;" d="M419.627,402.375c-17.289-119.404,19.539-372.283-50.242-372.283H44.154
		c47.378,0,45.566,116.616,44.949,228.881c6.271-1.377,12.76-2.139,19.43-2.139c48.538,0,87.833,39.295,87.833,87.832
		c0,22.076-8.192,42.303-21.677,57.709H419.627z M373.555,354.418c4.096,0,7.43,3.408,7.43,7.504s-3.334,7.395-7.43,7.395h-55.172
		c-4.098,0-7.434-3.299-7.434-7.395s3.336-7.504,7.434-7.504H373.555z M130.573,103.679h103.021c4.096,0,7.395,3.407,7.395,7.485
		c0,4.15-3.299,7.522-7.395,7.522H130.573c-4.096,0-7.395-3.372-7.395-7.522C123.178,107.086,126.477,103.679,130.573,103.679z
		 M130.573,148.266h228.808c4.096,0,7.43,3.335,7.43,7.432c0,4.169-3.334,7.485-7.43,7.485H130.573
		c-4.096,0-7.395-3.316-7.395-7.485C123.178,151.601,126.477,148.266,130.573,148.266z M130.573,188.793h228.808
		c4.096,0,7.43,3.334,7.43,7.432c0,4.168-3.334,7.503-7.43,7.503H130.573c-4.096,0-7.395-3.335-7.395-7.503
		C123.178,192.127,126.477,188.793,130.573,188.793z M130.573,244.255c-4.096,0-7.395-3.372-7.395-7.504
		c0-4.096,3.299-7.413,7.395-7.413h179.11c4.094,0,7.395,3.317,7.395,7.413c0,4.132-3.301,7.504-7.395,7.504H130.573z"/>
	<path style="fill:#ED7044;" d="M105.742,469.908c59.921-21.641,64.923-55.354,64.923-55.354h319.213
		c0,0,14.574,55.354-34.039,55.354H105.742z"/>
	<path style="fill:#ED7044;" d="M455.84,469.908H105.742c59.921-21.641,64.923-55.354,64.923-55.354"/>
</g>
</svg>
