<?xml version="1.0" encoding="iso-8859-1"?>
<!-- Generator: Adobe Illustrator 16.0.0, SVG Export Plug-In . SVG Version: 6.00 Build 0)  -->
<!DOCTYPE svg PUBLIC "-//W3C//DTD SVG 1.1//EN" "http://www.w3.org/Graphics/SVG/1.1/DTD/svg11.dtd">
<svg version="1.1" id="&#x5716;&#x5C64;_1" xmlns="http://www.w3.org/2000/svg" xmlns:xlink="http://www.w3.org/1999/xlink" x="0px"
	 y="0px" width="500px" height="500px" viewBox="0 0 500 500" style="enable-background:new 0 0 500 500;" xml:space="preserve">
<g>
	<path style="fill:#B5B5B6;" d="M487.811,467.387l-117.678-117.68c31.606-36.258,50.682-83.629,50.682-135.335
		c0-113.896-92.615-206.431-206.432-206.431c-113.896,0-206.392,92.653-206.392,206.431c0,113.739,92.653,206.433,206.392,206.433
		c51.785,0,99.076-19.115,135.373-50.682l117.641,117.641c2.759,2.795,6.541,4.295,10.244,4.295c3.629,0,7.371-1.381,10.17-4.295
		C493.408,482.203,493.408,472.943,487.811,467.387z M36.878,214.372c0-97.895,79.609-177.464,177.425-177.464
		c97.896,0,177.424,79.687,177.424,177.464c0,97.776-79.527,177.544-177.424,177.544C116.487,391.916,36.878,312.268,36.878,214.372
		z"/>
</g>
</svg>
