<?xml version="1.0" encoding="iso-8859-1"?>
<!-- Generator: Adobe Illustrator 16.0.0, SVG Export Plug-In . SVG Version: 6.00 Build 0)  -->
<!DOCTYPE svg PUBLIC "-//W3C//DTD SVG 1.1//EN" "http://www.w3.org/Graphics/SVG/1.1/DTD/svg11.dtd">
<svg version="1.1" id="&#x5716;&#x5C64;_1" xmlns="http://www.w3.org/2000/svg" xmlns:xlink="http://www.w3.org/1999/xlink" x="0px"
	 y="0px" width="500px" height="500px" viewBox="0 0 500 500" style="enable-background:new 0 0 500 500;" xml:space="preserve">
<g>
	<g>
		<path style="fill:#079790;" d="M209.56,150.292c-47.506-23.077-104.728-3.418-128.047,43.983
			c-0.069,0.052-0.121,0.156-0.121,0.243c-0.486,1.059-0.92,2.135-1.405,3.193c-1.492,3.331-2.758,6.706-3.817,10.167
			c-0.33,0.902-0.59,1.769-0.833,2.724c-1.284,4.546-2.221,9.196-2.811,13.898c-0.538,3.973-0.798,7.981-0.798,12.024
			c0,1.197,0,2.447,0.069,3.626c0,0.547,0.052,1.059,0.052,1.544c0.329,5.292,1.058,10.558,2.203,15.72
			c1.232,5.726,3.054,11.286,5.344,16.647c15.199,35.272,49.831,58.176,88.245,58.349c44.66,0,83.405-30.849,93.416-74.371
			C271.094,214.523,249.744,169.828,209.56,150.292z M215.84,311.868c-10.723,6.939-22.798,11.451-35.43,13.255
			c-4.233,0.59-8.502,0.868-12.77,0.902c-36.957-0.104-70.097-22.798-83.508-57.222v-0.069c-1.875-4.918-3.314-9.985-4.338-15.146
			c-0.746-3.497-1.232-7.07-1.405-10.68c-0.139-1.648-0.191-3.313-0.191-4.962c-0.052-0.503-0.086-0.946-0.086-1.423
			c0-4.615,0.347-9.213,1.041-13.741v-0.069c0.573-3.28,1.214-6.507,2.117-9.717l1.145-3.626c1.527-4.997,3.505-9.82,5.934-14.418
			l0.07-0.052c1.665-3.209,3.539-6.28,5.639-9.265c20.56-29.877,57.17-44.382,92.634-36.713
			c35.447,7.704,62.774,36.002,69.16,71.727C262.237,256.355,246.429,292.4,215.84,311.868z"/>
		<g>
			<path style="fill:#079790;" d="M208.935,171.902c-10.757-6.914-23.076-11-35.812-11.903c-1.856-0.113-3.644-0.183-5.482-0.183
				c-8.137,0-16.205,1.284-23.909,3.835c-0.59,0.174-1.215,0.365-1.805,0.556c-0.885,0.312-1.788,0.711-2.69,1.092
				c-0.711,0.278-1.405,0.521-2.099,0.833c-0.451,0.191-0.902,0.391-1.284,0.582c-23.215,10.618-39.663,32.038-43.932,57.213
				c0,0.122-0.035,0.182-0.035,0.313c0,0.122-0.069,0.313-0.069,0.46c-0.59,3.93-0.902,7.859-0.902,11.824
				c-0.018,4.919,0.451,9.838,1.423,14.644c5.621,28.707,27.084,51.783,55.348,59.451c36.558,9.821,74.815-8.467,90.118-43.072
				C253.092,232.915,240.825,192.262,208.935,171.902z M175.761,231.223c14.019,3.738,23.77,16.431,23.752,30.945
				c-0.052,14.548-9.838,27.214-23.926,30.857c-0.486,0.139-1.041,0.208-1.562,0.313v7.113c0,3.54-2.88,6.386-6.385,6.386
				c-3.557,0-6.403-2.846-6.403-6.386v-7.044c-14.852-3.054-25.522-16.171-25.574-31.326c0-3.522,2.862-6.368,6.402-6.368
				c3.522,0,6.385,2.846,6.385,6.368c0.035,8.146,5.17,15.329,12.787,18.036v-37.92c-8.935-1.7-16.674-7.235-21.15-15.129
				c-0.035,0-0.07-0.035-0.07-0.052v-0.078c-0.052,0-0.069-0.026-0.069-0.061c-2.012-3.436-3.331-7.209-3.886-11.139
				c-0.278-1.579-0.399-3.175-0.399-4.789c0.052-15.182,10.722-28.229,25.574-31.335v-7.027c0-3.505,2.846-6.385,6.403-6.385
				c3.505,0,6.385,2.88,6.385,6.385v7.027c14.852,3.106,25.54,16.153,25.54,31.335c0,3.522-2.829,6.402-6.35,6.402
				c-3.54,0-6.403-2.879-6.403-6.402c-0.052-8.103-5.153-15.303-12.787-18.01v37.895
				C174.616,230.954,175.171,231.067,175.761,231.223z"/>
			<path style="fill:#079790;" d="M159.556,193.607c-0.694,0.355-1.388,0.703-2.03,1.102c-0.33,0.191-0.642,0.399-0.919,0.607
				c-0.764,0.573-1.493,1.128-2.186,1.753c-0.104,0.156-0.278,0.277-0.417,0.399c-0.781,0.815-1.492,1.648-2.151,2.55
				c-0.139,0.243-0.277,0.546-0.451,0.798c-0.451,0.694-0.833,1.432-1.18,2.151c-0.156,0.382-0.313,0.747-0.434,1.059
				c-0.295,0.781-0.538,1.544-0.711,2.325c-0.104,0.381-0.208,0.711-0.26,1.058c-0.243,1.18-0.364,2.351-0.364,3.54
				c0,0.989,0.087,1.961,0.243,2.941c0.156,0.859,0.382,1.683,0.642,2.516c0.087,0.286,0.122,0.659,0.226,0.91
				c0.382,1.111,0.868,2.152,1.458,3.141c0.989,1.735,2.22,3.313,3.713,4.65c0.919,0.841,1.908,1.596,2.984,2.238
				c0.278,0.156,0.555,0.26,0.833,0.399c0.798,0.468,1.631,0.85,2.498,1.154c0.07,0.061,0.139,0.061,0.208,0.095v-36.055
				c-0.208,0.087-0.416,0.122-0.624,0.191C160.25,193.269,159.92,193.442,159.556,193.607z"/>
			<path style="fill:#079790;" d="M174.026,280.082c7.634-2.672,12.787-9.855,12.787-18.001c0-8.12-5.153-15.321-12.787-17.993
				V280.082z"/>
		</g>
	</g>
	<g>
		<path style="fill:#079790;" d="M367.198,232.403c-0.746-4.086-0.746-8.25,0-12.345h-88.557c0.363,1.788,0.624,3.574,0.867,5.326
			c0.312,2.343,0.555,4.616,0.676,7.019H367.198z"/>
		<path style="fill:#079790;" d="M378.961,306.351c0,2.463,0.382,4.979,1.111,7.34c3.158,10.149,12.458,17.089,23.075,17.297
			c10.619,0.208,20.162-6.419,23.702-16.413c3.539-9.993,0.276-21.167-8.104-27.691c-8.38-6.488-19.97-6.939-28.802-1.041
			C383.057,290.371,378.927,298.091,378.961,306.351z"/>
		<path style="fill:#079790;" d="M428.133,148.6c1.267-12.605-7.218-24.091-19.588-26.641c-12.406-2.516-24.707,4.753-28.473,16.83
			c-0.729,2.377-1.111,4.858-1.111,7.339c0,13.637,11.036,24.638,24.655,24.638C416.266,170.765,426.867,161.188,428.133,148.6z"/>
		<path style="fill:#079790;" d="M421.123,243.732c4.633-4.641,7.218-10.939,7.148-17.498c0-13.611-11.034-24.655-24.655-24.655
			c-13.619,0-24.655,11.044-24.655,24.655c0,13.638,11.036,24.638,24.655,24.638C410.158,250.958,416.474,248.356,421.123,243.732z"
			/>
		<path style="fill:#079790;" d="M272.412,198.682l98.846-34.674c-2.013-3.618-3.365-7.539-4.06-11.599l-100.069,35.187
			c0.911,1.614,1.761,3.279,2.576,4.944C270.764,194.622,271.597,196.652,272.412,198.682z"/>
		<path style="fill:#079790;" d="M371.258,288.479l-92.391-32.419c-0.295,1.856-0.659,3.582-1.023,5.291
			c-0.503,2.3-1.041,4.494-1.735,6.741l91.09,31.977C367.893,296.01,369.245,292.07,371.258,288.479z"/>
	</g>
	<path style="fill:#079790;" d="M385.313,171.72v28.922c-4.478,3.185-8.085,7.513-10.411,12.614h-11.521v-39.264l17.454-6.134
		C382.188,169.308,383.698,170.574,385.313,171.72z"/>
	<path style="fill:#079790;" d="M385.313,251.853v28.854c-1.614,1.179-3.124,2.428-4.478,3.886l-17.454-6.09v-39.229h11.573
		C377.228,244.331,380.835,248.668,385.313,251.853z"/>
	<path style="fill:#079790;" d="M372.265,309.126l-8.884-3.14v108.354H121.766v-84.914c-7.946-3.922-15.337-8.849-21.965-14.627
		v133.165C99.8,492,143.68,492,143.68,492h197.701c0,0,43.932,0,43.932-44.035V331.959
		C377.989,326.789,373.08,318.565,372.265,309.126z M242.526,473.678c-12.077,0-21.931-9.889-21.931-21.965
		c0-12.146,9.854-22,21.931-22c12.127,0,21.965,9.854,21.965,22C264.491,463.789,254.653,473.678,242.526,473.678z"/>
	<path style="fill:#079790;" d="M341.381,8H143.68c0,0-43.88,0-43.88,43.992V158.03c6.68-5.778,14.088-10.653,21.965-14.462V62.915
		h241.615v83.595l8.744-3.054l0.14-0.035c0.763-9.438,5.725-17.697,13.048-22.885V51.992C385.313,8,341.381,8,341.381,8z
		 M297.449,36.108c0,2.759-2.186,4.867-4.823,4.867H192.452c-2.62,0-4.823-2.195-4.823-4.867v-1.302
		c0-2.714,2.203-4.875,4.823-4.875h100.104c2.707,0,4.893,2.204,4.893,4.875V36.108z"/>
</g>
</svg>
