<?xml version="1.0" encoding="iso-8859-1"?>
<!-- Generator: Adobe Illustrator 16.0.0, SVG Export Plug-In . SVG Version: 6.00 Build 0)  -->
<!DOCTYPE svg PUBLIC "-//W3C//DTD SVG 1.1//EN" "http://www.w3.org/Graphics/SVG/1.1/DTD/svg11.dtd">
<svg version="1.1" id="&#x5716;&#x5C64;_1" xmlns="http://www.w3.org/2000/svg" xmlns:xlink="http://www.w3.org/1999/xlink" x="0px"
	 y="0px" width="500px" height="500px" viewBox="0 0 500 500" style="enable-background:new 0 0 500 500;" xml:space="preserve">
<g>
	<path style="fill:#F39800;" d="M397.922,327.668h-67.423c0-24.824,20.129-44.936,44.954-44.936h67.443
		C442.896,307.559,422.767,327.668,397.922,327.668z"/>
	<path style="fill:#F39800;" d="M473.651,29.975h-58.537c-9.938,0-18.026,8.051-18.026,18.016v45.027
		c0,9.948,8.088,18.017,18.026,18.017h13.491v22.532l22.522-22.532h22.523c9.957,0,17.989-8.069,17.989-18.017V47.991
		C491.641,38.026,483.608,29.975,473.651,29.975z M415.114,47.991h31.518v9.003h-31.518V47.991z M446.632,93.018h-31.518v-9.003
		h31.518V93.018z M473.651,75.002h-58.537v-8.995h58.537V75.002z M473.651,56.994h-18.024v-9.003h18.024V56.994z"/>
	<path style="fill:#F39800;" d="M150.678,29.975c-59.59,0-107.918,48.31-107.918,107.945v77.099
		c0,25.533,20.691,46.242,46.261,46.242h30.828v6.348c0,12.768-10.373,23.121-23.14,23.121h-3.19l33.076,46.262l24.083,33.693
		l25.406-33.693l34.873-46.262h-6.312c-12.621,0-22.885-10.137-23.103-22.686c0.018,0,0.036-0.035,0.072-0.055h-0.036v-6.729h30.792
		c25.533,0,46.261-20.708,46.261-46.242v-77.099C258.632,78.285,210.304,29.975,150.678,29.975z M147.486,261.26h6.528
		C151.839,261.352,149.662,261.352,147.486,261.26z M220.061,191.878c0,38.318-31.046,69.381-69.383,69.381
		c-10.011,0-19.513-2.139-28.108-5.965c-0.871-0.363-1.705-0.762-2.539-1.18c-22.957-11.316-38.734-34.926-38.734-62.237v-33.204
		l130.495-61.404c5.459,10.101,8.306,21.436,8.27,32.932V191.878z"/>
	<path style="fill:#F39800;" d="M330.499,327.668l-37.466,67.443v-59.934c0-24.844-20.11-44.957-44.955-44.957h-23.955
		l-73.445,97.383l-69.673-97.383H53.296c-24.826,0-44.937,20.113-44.937,44.957v134.848h44.664v-19.93
		c-18.405-24.791-19.639-58.43-3.082-84.525l5.477-8.631l12.64,8.031l-5.478,8.615c-13.654,21.525-12.113,49.379,3.81,69.273
		c1.051,1.342,1.632,2.992,1.632,4.715v22.451l0,0h165.35v-22.451c0-1.723,0.562-3.373,1.632-4.715
		c15.94-19.895,17.445-47.729,3.79-69.236l-5.458-8.652l12.64-8.031l5.458,8.631c16.575,26.096,15.342,59.734-3.101,84.525v19.93
		l0,0h67.188l74.913-142.357H330.499z"/>
	<g>
		<path style="fill:#F39800;" d="M491.641,226.697v23.52c0,1.85-1.486,3.318-3.336,3.318h-7.815
			c-1.632-10.917-11.044-19.294-22.432-19.294c-11.354,0-20.783,8.378-22.379,19.294h-14.544v3.373c0,1.852-1.486,3.373-3.355,3.373
			h-6.728v-10.064c0-1.886-1.47-3.391-3.355-3.391c-1.849,0-3.354,1.505-3.354,3.391v10.064h-6.71v-10.064
			c0-1.886-1.505-3.391-3.354-3.391s-3.354,1.505-3.354,3.391v10.064h-6.71c-1.851,0-3.354-1.521-3.354-3.373v-3.373h-24.609
			c-1.632-10.917-11.043-19.294-22.413-19.294c-11.353,0-20.782,8.378-22.415,19.294h-4.46c-1.813,0-3.337-1.469-3.337-3.318
			v-17.753h117.274c1.94,0,3.536-1.614,3.536-3.591v-2.176H491.641z"/>
		<path style="fill:#F39800;" d="M486.781,203.448l-15.668-4.479l-4.859-26.749c-1.18-6.383-6.729-11.025-13.239-11.025h-21.798
			c-1.867,0-3.373,1.523-3.373,3.355v60.442h63.797v-15.07C491.641,206.93,489.664,204.319,486.781,203.448z M461.791,198.153
			h-20.49c-3.719,0-6.729-3.01-6.729-6.709v-16.811c0-1.85,1.506-3.337,3.356-3.337h18.532c1.651,0,3.029,1.179,3.319,2.712
			l3.934,21.825C463.933,197.029,462.989,198.153,461.791,198.153z"/>
		<path style="fill:#F39800;" d="M458.058,236.779c-11.1,0-20.13,9.031-20.13,20.129c0,11.135,9.03,20.166,20.13,20.166
			c11.133,0,20.164-9.031,20.164-20.166C478.222,245.811,469.19,236.779,458.058,236.779z M458.058,266.43
			c-5.224,0-9.468-4.262-9.468-9.521c0-5.223,4.244-9.502,9.468-9.502c5.258,0,9.537,4.279,9.537,9.502
			C467.595,262.168,463.315,266.43,458.058,266.43z"/>
		<path style="fill:#F39800;" d="M458.058,251.885c2.791,0,5.059,2.23,5.059,5.023s-2.268,5.006-5.059,5.006
			c-2.758,0-5.043-2.213-5.043-5.006S455.3,251.885,458.058,251.885z"/>
		<path style="fill:#F39800;" d="M333.836,236.779c-11.116,0-20.129,9.031-20.129,20.129c0,11.135,9.013,20.166,20.129,20.166
			c11.135,0,20.129-9.031,20.129-20.166C353.965,245.811,344.971,236.779,333.836,236.779z M333.836,266.43
			c-5.26,0-9.504-4.262-9.504-9.521c0-5.223,4.244-9.502,9.504-9.502c5.24,0,9.502,4.279,9.502,9.502
			C343.338,262.168,339.076,266.43,333.836,266.43z"/>
		<path style="fill:#F39800;" d="M333.836,251.885c2.792,0,5.022,2.23,5.022,5.023s-2.23,5.006-5.022,5.006
			c-2.774,0-5.042-2.213-5.042-5.006S331.062,251.885,333.836,251.885z"/>
		<path style="fill:#F39800;" d="M417.779,142.753H303.624c-1.869,0-3.373,1.496-3.373,3.345v80.599
			c0,1.849,1.504,3.354,3.373,3.354h114.155c1.869,0,3.373-1.505,3.373-3.354v-80.599
			C421.152,144.249,419.648,142.753,417.779,142.753z M411.052,223.342H310.334c-1.85,0-3.373-1.523-3.373-3.373
			c0-1.869,1.523-3.354,3.373-3.354h100.718c1.868,0,3.373,1.486,3.373,3.354C414.425,221.819,412.92,223.342,411.052,223.342z"/>
		<rect x="422.404" y="161.812" style="fill:#F39800;" width="4.171" height="63.18"/>
	</g>
</g>
</svg>
