<?xml version="1.0" encoding="iso-8859-1"?>
<!-- Generator: Adobe Illustrator 16.0.0, SVG Export Plug-In . SVG Version: 6.00 Build 0)  -->
<!DOCTYPE svg PUBLIC "-//W3C//DTD SVG 1.1//EN" "http://www.w3.org/Graphics/SVG/1.1/DTD/svg11.dtd">
<svg version="1.1" id="&#x5716;&#x5C64;_1" xmlns="http://www.w3.org/2000/svg" xmlns:xlink="http://www.w3.org/1999/xlink" x="0px"
	 y="0px" width="500px" height="500px" viewBox="0 0 500 500" style="enable-background:new 0 0 500 500;" xml:space="preserve">
<g>
	<path style="fill:#0F61A9;" d="M492,250c0,133.658-108.345,242.003-242.012,242.003C116.36,492.003,8,383.658,8,250
		C8,116.327,116.36,7.997,249.988,7.997C383.655,7.997,492,116.327,492,250z"/>
	<g>
		<path style="fill:#FFFFFF;" d="M250.004,100.334c-63.089,0-114.434,51.345-114.434,114.449V320.42
			c0,14.557,11.849,26.405,26.405,26.405s26.405-11.849,26.405-26.405v-88.028c0-14.557-11.849-26.405-26.405-26.405
			c-2.978,0-5.775,0.583-8.438,1.496c3.756-49.999,45.541-89.54,96.467-89.54c50.889,0,92.659,39.512,96.459,89.465
			c-2.633-0.897-5.475-1.421-8.407-1.421c-14.572,0-26.421,11.849-26.421,26.405v88.028c0,14.557,11.849,26.405,26.421,26.405
			c3.082,0,6.014-0.628,8.796-1.616v10.413c0,4.848-3.979,8.812-8.796,8.812h-63.254c-3.651-10.232-13.338-17.608-24.798-17.608
			c-14.557,0-26.406,11.85-26.406,26.406s11.85,26.404,26.406,26.404c11.46,0,21.146-7.36,24.798-17.593h63.254
			c14.541,0,26.391-11.849,26.391-26.421c0-52.931,0-87.834,0-140.839C364.446,151.679,313.1,100.334,250.004,100.334z"/>
		<path style="fill:#FFFFFF;" d="M382.039,225.195v102.405c10.233-3.65,17.624-13.329,17.624-24.789v-52.826
			C399.663,238.525,392.272,228.846,382.039,225.195z"/>
		<path style="fill:#FFFFFF;" d="M100.353,249.985v52.826c0,11.46,7.391,21.139,17.608,24.789V225.195
			C107.743,228.846,100.353,238.525,100.353,249.985z"/>
	</g>
</g>
</svg>
