<?xml version="1.0" encoding="iso-8859-1"?>
<!-- Generator: Adobe Illustrator 16.0.0, SVG Export Plug-In . SVG Version: 6.00 Build 0)  -->
<!DOCTYPE svg PUBLIC "-//W3C//DTD SVG 1.1//EN" "http://www.w3.org/Graphics/SVG/1.1/DTD/svg11.dtd">
<svg version="1.1" id="&#x5716;&#x5C64;_1" xmlns="http://www.w3.org/2000/svg" xmlns:xlink="http://www.w3.org/1999/xlink" x="0px"
	 y="0px" width="500px" height="500px" viewBox="0 0 500 500" style="enable-background:new 0 0 500 500;" xml:space="preserve">
<g>
	<path style="fill:#E35F26;" d="M492,250c0,133.652-108.348,242-242,242S8,383.652,8,250C8,116.334,116.348,8,250,8
		S492,116.334,492,250z M250,13.615C119.46,13.615,13.615,119.447,13.615,250c0,130.553,105.845,236.385,236.385,236.385
		c130.553,0,236.371-105.832,236.371-236.385C486.371,119.447,380.553,13.615,250,13.615z"/>
	<g>
		<path style="fill:#E35F26;" d="M311.123,322.691c4.925,0,9.606,2.07,12.923,5.697l-7.064,2.354
			c-0.825,0.271-1.286,1.19-1.001,2.016c0.284,0.854,1.177,1.286,2.016,1.016l9.554-3.193c0.663-0.202,1.11-0.813,1.096-1.516
			v-9.567c0-0.865-0.717-1.597-1.597-1.597s-1.596,0.731-1.596,1.597v5.832c-8.201-7.956-21.286-7.739-29.242,0.475
			c-3.734,3.856-5.832,9.039-5.819,14.425c0,0.879,0.718,1.596,1.598,1.596c0.879,0,1.583-0.717,1.583-1.596
			C293.572,330.526,301.434,322.691,311.123,322.691z"/>
		<path style="fill:#E35F26;" d="M276.13,186.794c0-22.179-18.052-40.216-40.163-40.216c-22.178,0-40.175,18.038-40.175,40.216
			v20.081h80.338V186.794z"/>
		<path style="fill:#E35F26;" d="M235.967,247.064c-11.096,0-20.094,9.012-20.094,20.054c0,6.495,3.072,12.448,8.227,16.21
			l-3.167,28.457c-0.148,1.407,0.312,2.814,1.205,3.952c0.988,1.041,2.341,1.609,3.761,1.609h20.122
			c1.421,0,2.774-0.568,3.694-1.609c0.988-1.138,1.435-2.545,1.299-3.952l-3.193-28.457c5.129-3.762,8.255-9.715,8.255-16.21
			C256.076,256.076,247.009,247.064,235.967,247.064z"/>
		<path style="fill:#E35F26;" d="M250,30.679C128.878,30.679,30.679,128.865,30.679,250c0,121.122,98.199,219.321,219.321,219.321
			S469.321,371.122,469.321,250C469.321,128.865,371.122,30.679,250,30.679z M165.63,357.577c-11.069,0-20.081-9.026-20.081-20.136
			V211.854c0-2.774,2.232-4.98,5.034-4.98h15.047v-20.081c0-38.782,31.569-70.352,70.337-70.352
			c38.755,0,70.325,31.569,70.325,70.352v20.081h15.061c2.814,0,5.047,2.206,5.047,4.98v79.688
			c-6.387-3.112-13.491-4.885-21.069-4.885c-26.427,0-47.847,21.421-47.847,47.861c0,8.349,2.178,16.197,5.927,23.059H165.63z
			 M354.153,345.276c-0.149,1.259-1.3,2.219-2.531,2.111l-0.54-0.014c-3.844,0-7.389,2.354-8.864,5.886
			c-1.583,3.721-0.595,8.065,2.423,10.798c0.947,0.867,1.041,2.314,0.271,3.289c-2.07,2.585-4.425,4.912-7.01,6.941
			c-1.016,0.771-2.436,0.649-3.274-0.284c-2.571-2.814-7.172-3.884-10.73-2.437c-3.694,1.517-6.09,5.225-5.927,9.229
			c0.026,1.272-0.894,2.354-2.151,2.504c-1.583,0.176-3.181,0.257-4.75,0.257c-1.664,0-3.342-0.108-5.007-0.298
			c-1.259-0.135-2.191-1.259-2.11-2.53c0.23-4.047-2.125-7.836-5.859-9.405c-3.586-1.488-8.214-0.433-10.813,2.437
			c-0.865,0.933-2.301,1.056-3.302,0.243c-2.529-2.043-4.83-4.344-6.847-6.914c-0.784-0.988-0.663-2.409,0.257-3.275
			c2.963-2.705,3.938-7.01,2.423-10.704c-1.517-3.707-5.13-6.048-8.917-5.927c-1.246,0-2.693-0.92-2.829-2.151
			c-0.378-3.261-0.365-6.59,0.014-9.851c0.148-1.244,1.137-2.166,2.504-2.124c4.222,0,7.929-2.287,9.431-5.846
			c1.557-3.748,0.582-8.092-2.435-10.813c-0.935-0.879-1.056-2.313-0.244-3.301c2.029-2.558,4.397-4.899,6.996-6.915
			c1.001-0.785,2.422-0.677,3.274,0.243c2.585,2.854,7.171,3.91,10.73,2.463c3.681-1.516,6.063-5.237,5.928-9.241
			c-0.041-1.273,0.892-2.342,2.137-2.491c3.248-0.352,6.523-0.352,9.757,0.028c1.271,0.147,2.206,1.258,2.125,2.529
			c-0.23,4.073,2.11,7.835,5.846,9.404c3.585,1.517,8.24,0.434,10.812-2.435c0.865-0.934,2.313-1.043,3.288-0.271
			c2.517,2.042,4.845,4.37,6.86,6.941c0.799,1.001,0.663,2.408-0.257,3.288c-2.964,2.706-3.925,7.01-2.422,10.69
			c1.474,3.626,5.006,5.953,8.971,5.953c1.218,0,2.653,0.907,2.787,2.125C354.532,338.699,354.518,342.002,354.153,345.276z"/>
		<path style="fill:#E35F26;" d="M330.243,338.633c-0.88,0-1.598,0.716-1.598,1.597c0,9.688-7.848,17.523-17.536,17.523
			c-4.912,0-9.608-2.057-12.937-5.684l7.077-2.354c0.824-0.284,1.285-1.19,1.001-2.029c-0.271-0.825-1.191-1.286-2.017-1.002
			l-9.566,3.18c-0.663,0.217-1.096,0.839-1.096,1.528v9.54c0,0.894,0.718,1.611,1.596,1.611c0.881,0,1.598-0.718,1.598-1.611v-5.804
			c8.213,7.942,21.312,7.727,29.241-0.475c3.762-3.87,5.832-9.039,5.832-14.424C331.839,339.349,331.108,338.633,330.243,338.633z"
			/>
	</g>
</g>
</svg>
