<?xml version="1.0" encoding="iso-8859-1"?>
<!-- Generator: Adobe Illustrator 16.0.0, SVG Export Plug-In . SVG Version: 6.00 Build 0)  -->
<!DOCTYPE svg PUBLIC "-//W3C//DTD SVG 1.1//EN" "http://www.w3.org/Graphics/SVG/1.1/DTD/svg11.dtd">
<svg version="1.1" id="&#x5716;&#x5C64;_1" xmlns="http://www.w3.org/2000/svg" xmlns:xlink="http://www.w3.org/1999/xlink" x="0px"
	 y="0px" width="500px" height="500px" viewBox="0 0 500 500" style="enable-background:new 0 0 500 500;" xml:space="preserve">
<g>
	<path style="fill:#CACB26;" d="M445.379,254.352h-65.65c-15.226,0-27.589,12.363-27.589,27.572
		c0,15.224,12.363,27.587,27.589,27.587h65.65V254.352z M385.615,295.082c-7.283,0-13.172-5.903-13.172-13.158
		c0-7.27,5.889-13.145,13.172-13.145c7.256,0,13.145,5.875,13.145,13.145C398.76,289.179,392.871,295.082,385.615,295.082z"/>
	<path style="fill:#CACB26;" d="M327.344,281.938c0,28.857,23.473,52.368,52.397,52.368h61.563v36.266H225.036
		c-9.181-21.07-25.73-38.135-46.423-48.001V201.731c0-4.674,3.822-8.483,8.512-8.483h254.179v36.308h-61.563
		C350.816,229.556,327.344,253.024,327.344,281.938z"/>
	<path style="fill:#CACB26;" d="M441.304,168.467H187.125c-18.35,0-33.294,14.916-33.294,33.265v113.052
		c-5.204-0.905-10.59-1.394-16.103-1.394c-5.791,0-11.497,0.516-16.968,1.505V168.69c0-18.363,14.944-33.293,33.293-33.293h253.971
		C426.346,135.396,441.191,150.229,441.304,168.467z"/>
	<path style="fill:#CACB26;" d="M441.304,395.353c-0.112,18.266-14.958,33.07-33.279,33.07H231.009
		c1.312-6.335,2.01-12.921,2.01-19.647c0-4.563-0.308-9.041-0.978-13.423H441.304z"/>
	<path style="fill:#CACB26;" d="M137.729,325.569c-45.907,0-83.107,37.242-83.107,83.18c0,45.921,37.2,83.177,83.107,83.177
		c45.894,0,83.108-37.256,83.108-83.177C220.837,362.812,183.622,325.569,137.729,325.569z M176.324,411.261
		c-2.345,2.205-5.329,3.292-8.288,3.292c-3.224,0-6.475-1.298-8.847-3.809l-9.335-9.991v44.022c0,6.712-5.441,12.127-12.126,12.127
		c-6.698,0-12.112-5.415-12.112-12.127v-44.022l-9.362,9.991c-4.577,4.869-12.237,5.092-17.134,0.517
		c-4.871-4.577-5.095-12.237-0.531-17.107l26.233-27.964c3.334-3.586,8.037-5.595,12.906-5.595c4.884,0,9.587,2.009,12.922,5.595
		l26.219,27.964C181.445,399.023,181.195,406.684,176.324,411.261z"/>
	<g>
		<path style="fill:#CACB26;" d="M295.028,91.61l-21.781,15.907c4.869,3.224,11.455,3.293,16.438-0.362
			C294.693,103.513,296.619,97.233,295.028,91.61z"/>
		<path style="fill:#CACB26;" d="M304.001,60.982c-4.996,3.67-6.936,9.935-5.317,15.558l21.781-15.906
			C315.582,57.396,308.996,57.326,304.001,60.982z"/>
		<path style="fill:#CACB26;" d="M358.238,39.214C333.485,5.362,285.819-2.019,251.995,22.65
			c-31.577,23.094-40.173,66.154-21.028,99.295h131.834C377.243,96.675,376.489,64.177,358.238,39.214z M341.159,57.87l-6.391,4.688
			c2.622,5.833,2.874,12.503,0.585,18.628c-0.962,2.568-3.837,3.879-6.417,2.931c-2.596-0.977-3.908-3.865-2.946-6.461
			c1.104-2.916,1.186-6.027,0.406-8.958l-22.955,16.745c4.646,10.312,1.605,22.87-7.855,29.805c-9.488,6.92-22.297,6-30.739-1.577
			l-6.434,4.688c-2.176,1.619-5.344,1.144-6.962-1.103c-1.633-2.218-1.13-5.4,1.102-7.004l6.391-4.688
			c-2.621-5.804-2.889-12.461-0.613-18.559c0.963-2.638,3.864-3.948,6.433-2.986c2.582,1.004,3.907,3.852,2.944,6.418
			c-1.103,2.958-1.187,6.098-0.362,9.015l22.911-16.801c-4.646-10.284-1.66-22.814,7.842-29.777
			c9.504-6.894,22.382-5.958,30.74,1.619l6.446-4.674c2.218-1.605,5.331-1.158,6.978,1.103
			C343.923,53.139,343.378,56.251,341.159,57.87z"/>
	</g>
</g>
</svg>
