<?xml version="1.0" encoding="iso-8859-1"?>
<!-- Generator: Adobe Illustrator 16.0.0, SVG Export Plug-In . SVG Version: 6.00 Build 0)  -->
<!DOCTYPE svg PUBLIC "-//W3C//DTD SVG 1.1//EN" "http://www.w3.org/Graphics/SVG/1.1/DTD/svg11.dtd">
<svg version="1.1" id="&#x5716;&#x5C64;_1" xmlns="http://www.w3.org/2000/svg" xmlns:xlink="http://www.w3.org/1999/xlink" x="0px"
	 y="0px" width="500px" height="500px" viewBox="0 0 500 500" style="enable-background:new 0 0 500 500;" xml:space="preserve">
<g>
	<path style="fill:#108F47;" d="M137.789,325.565c-45.938,0-83.168,37.272-83.168,83.21c0,45.896,37.23,83.154,83.168,83.154
		c45.938,0,83.168-37.259,83.168-83.154C220.957,362.838,183.727,325.565,137.789,325.565z M71.964,411.57h-3.146
		c-1.728,0-3.132-1.447-3.132-3.146c0-1.754,1.404-3.158,3.132-3.158h3.146c1.698,0,3.132,1.404,3.132,3.158
		C75.096,410.123,73.663,411.57,71.964,411.57z M134.642,339.44c0-1.711,1.405-3.104,3.146-3.104c1.713,0,3.117,1.394,3.117,3.104
		v3.146c0,1.714-1.404,3.133-3.117,3.133c-1.742,0-3.146-1.419-3.146-3.133V339.44z M93.452,457.157l-2.206,2.206
		c-0.604,0.631-1.404,0.969-2.233,0.969c-0.799,0-1.587-0.338-2.204-0.969c-1.237-1.207-1.237-3.188,0-4.439l2.204-2.203
		c1.222-1.209,3.217-1.209,4.439,0C94.673,453.928,94.673,455.936,93.452,457.157z M93.452,364.06
		c-0.618,0.646-1.419,0.956-2.206,0.956c-0.829,0-1.602-0.31-2.233-0.956l-2.204-2.19c-1.237-1.236-1.237-3.217,0-4.453
		c1.208-1.222,3.201-1.222,4.437,0l2.206,2.234C94.673,360.858,94.673,362.838,93.452,364.06z M140.906,477.354
		c0,1.755-1.404,3.115-3.117,3.115c-1.742,0-3.146-1.36-3.146-3.115v-3.105c0-1.771,1.405-3.146,3.146-3.146
		c1.713,0,3.117,1.376,3.117,3.146V477.354z M137.789,414.561c-2.837,0-5.197-1.907-5.941-4.466h-26.065
		c-0.94,0-1.686-0.785-1.686-1.671c0-0.939,0.746-1.712,1.686-1.712h26.065c0.578-2.023,2.192-3.652,4.256-4.241v-33.805
		c0-0.897,0.758-1.672,1.685-1.672c0.898,0,1.672,0.774,1.672,1.672v33.805c2.57,0.757,4.479,3.145,4.479,5.953
		C143.94,411.796,141.173,414.561,137.789,414.561z M188.739,459.363c-0.604,0.631-1.418,0.969-2.218,0.969
		c-0.786,0-1.587-0.338-2.219-0.969l-2.205-2.206c-1.235-1.222-1.235-3.229,0-4.437c1.236-1.209,3.229-1.209,4.424,0l2.218,2.203
		C189.976,456.175,189.976,458.156,188.739,459.363z M188.739,361.869l-2.218,2.19c-0.605,0.646-1.39,0.956-2.219,0.956
		c-0.786,0-1.587-0.31-2.205-0.956c-1.235-1.222-1.235-3.201,0-4.409l2.205-2.234c1.264-1.222,3.229-1.222,4.437,0
		C189.976,358.652,189.976,360.633,188.739,361.869z M206.73,411.57h-3.146c-1.713,0-3.117-1.447-3.117-3.146
		c0-1.754,1.403-3.158,3.117-3.158h3.146c1.7,0,3.132,1.404,3.132,3.158C209.862,410.123,208.43,411.57,206.73,411.57z"/>
	<path style="fill:#108F47;" d="M445.38,254.35h-65.67c-15.21,0-27.57,12.358-27.57,27.581c0,15.211,12.36,27.583,27.57,27.583
		h65.67V254.35z M385.608,295.074c-7.275,0-13.172-5.882-13.172-13.144c0-7.275,5.896-13.146,13.172-13.146
		c7.261,0,13.146,5.871,13.146,13.146C398.754,289.192,392.869,295.074,385.608,295.074z"/>
	<path style="fill:#108F47;" d="M327.34,281.944c0,28.861,23.481,52.37,52.397,52.37h61.569v36.263H225.044
		c-9.2-21.067-25.743-38.145-46.43-48.005V201.739c0-4.678,3.834-8.482,8.497-8.482h254.195v36.302h-61.569
		C350.821,229.559,327.34,253.029,327.34,281.944z"/>
	<path style="fill:#108F47;" d="M441.307,168.468H187.111c-18.342,0-33.285,14.914-33.285,33.271v113.054
		c-5.21-0.925-10.589-1.418-16.108-1.418c-5.772,0-11.475,0.534-16.952,1.531V168.692c0-18.354,14.93-33.298,33.284-33.298h253.973
		C426.338,135.394,441.195,150.225,441.307,168.468z"/>
	<path style="fill:#108F47;" d="M441.307,395.364c-0.111,18.257-14.969,33.059-33.283,33.059H231.012
		c1.308-6.332,2.008-12.907,2.008-19.647c0-4.549-0.308-9.029-0.968-13.411H441.307z"/>
	<g>
		<path style="fill:#108F47;" d="M295.026,91.604l-21.771,15.926c4.875,3.217,11.447,3.286,16.434-0.364
			C294.688,103.514,296.626,97.237,295.026,91.604z"/>
		<path style="fill:#108F47;" d="M304.013,60.975c-5.001,3.666-6.938,9.943-5.337,15.562l21.782-15.912
			C315.583,57.394,309.014,57.324,304.013,60.975z"/>
		<path style="fill:#108F47;" d="M358.237,39.207C333.493,5.361,285.826-2.025,251.98,22.649
			c-31.572,23.087-40.166,66.146-21.009,99.29h131.817C377.238,96.689,376.495,64.177,358.237,39.207z M341.158,57.871l-6.389,4.69
			c2.612,5.829,2.879,12.485,0.603,18.624c-0.968,2.57-3.86,3.89-6.444,2.935c-2.585-0.969-3.891-3.862-2.936-6.461
			c1.095-2.92,1.192-6.039,0.393-8.958l-22.932,16.753c4.633,10.308,1.599,22.863-7.866,29.787
			c-9.493,6.923-22.317,6.012-30.729-1.573l-6.432,4.691c-2.189,1.615-5.351,1.137-6.979-1.096
			c-1.616-2.233-1.138-5.406,1.094-7.007l6.406-4.691c-2.627-5.814-2.894-12.471-0.62-18.566c0.955-2.626,3.863-3.946,6.433-2.978
			c2.585,1.012,3.903,3.849,2.948,6.433c-1.094,2.95-1.179,6.081-0.363,9.002l22.92-16.797c-4.649-10.294-1.673-22.821,7.836-29.788
			c9.492-6.909,22.372-5.939,30.756,1.63l6.418-4.69c2.233-1.602,5.351-1.139,6.981,1.095
			C343.912,53.139,343.377,56.243,341.158,57.871z"/>
	</g>
</g>
</svg>
