<?xml version="1.0" encoding="iso-8859-1"?>
<!-- Generator: Adobe Illustrator 16.0.0, SVG Export Plug-In . SVG Version: 6.00 Build 0)  -->
<!DOCTYPE svg PUBLIC "-//W3C//DTD SVG 1.1//EN" "http://www.w3.org/Graphics/SVG/1.1/DTD/svg11.dtd">
<svg version="1.1" id="&#x5716;&#x5C64;_1" xmlns="http://www.w3.org/2000/svg" xmlns:xlink="http://www.w3.org/1999/xlink" x="0px"
	 y="0px" width="500px" height="500px" viewBox="0 0 500 500" style="enable-background:new 0 0 500 500;" xml:space="preserve">
<g>
	<path style="fill:#3AAE36;" d="M492,250c0,133.658-108.345,242.003-242.011,242.003C116.36,492.003,8,383.658,8,250
		S116.36,7.997,249.989,7.997C383.655,7.997,492,116.342,492,250z"/>
	<g>
		<path style="fill:#FFFFFF;" d="M205.316,93.587c-74.04,0-134.063,50.028-134.063,111.726c0,35.577,20.063,67.113,51.181,87.55
			l-17.669,35.352l48.158-20.63c10.323,3.665,21.035,6.673,32.51,8.094c-1.57-6.822-2.469-13.824-2.469-20.99
			c0-61.593,60.127-111.711,134.085-111.711c6.763,0,13.375,0.554,19.898,1.361C325.13,132.679,270.731,93.587,205.316,93.587z
			 M160.614,177.382c-9.246,0-16.756-7.496-16.756-16.757c0-9.245,7.51-16.756,16.756-16.756c9.275,0,16.771,7.511,16.771,16.756
			C177.385,169.886,169.89,177.382,160.614,177.382z M249.989,177.382c-9.246,0-16.757-7.496-16.757-16.757
			c0-9.245,7.511-16.756,16.757-16.756c9.276,0,16.764,7.511,16.764,16.756C266.753,169.886,259.266,177.382,249.989,177.382z"/>
		<path style="fill:#FFFFFF;" d="M428.747,294.688c0-49.355-49.999-89.375-111.697-89.375c-61.705,0-111.733,40.02-111.733,89.375
			c0,49.354,50.028,89.39,111.733,89.39c10.114,0,19.778-1.437,29.144-3.472l60.232,25.793l-20.856-41.62
			C411.691,348.44,428.747,323.277,428.747,294.688z M283.509,289.106c-9.246,0-16.756-7.51-16.756-16.755
			c0-9.261,7.51-16.771,16.756-16.771c9.276,0,16.786,7.511,16.786,16.771C300.295,281.597,292.785,289.106,283.509,289.106z
			 M350.563,289.106c-9.275,0-16.787-7.51-16.787-16.755c0-9.261,7.512-16.771,16.787-16.771c9.245,0,16.755,7.511,16.755,16.771
			C367.317,281.597,359.808,289.106,350.563,289.106z"/>
	</g>
</g>
</svg>
