<?xml version="1.0" encoding="iso-8859-1"?>
<!-- Generator: Adobe Illustrator 16.0.0, SVG Export Plug-In . SVG Version: 6.00 Build 0)  -->
<!DOCTYPE svg PUBLIC "-//W3C//DTD SVG 1.1//EN" "http://www.w3.org/Graphics/SVG/1.1/DTD/svg11.dtd">
<svg version="1.1" id="&#x5716;&#x5C64;_1" xmlns="http://www.w3.org/2000/svg" xmlns:xlink="http://www.w3.org/1999/xlink" x="0px"
	 y="0px" width="500px" height="500px" viewBox="0 0 500 500" style="enable-background:new 0 0 500 500;" xml:space="preserve">
<g>
	<path style="fill:#00A29A;" d="M492,249.984c0,133.674-108.345,242.02-242.012,242.02C116.36,492.004,8,383.658,8,249.984
		C8,116.326,116.36,7.996,249.988,7.996C383.655,7.996,492,116.326,492,249.984z"/>
	<g>
		<g id="Layer_2_16_">
			<g>
				<path style="fill:#FFFFFF;" d="M282.401,381.713c-2.663,0.629-5.355,1.227-8.048,1.734c-6.973,1.287-11.618,8.02-10.302,15.021
					c0.629,3.441,2.581,6.313,5.244,8.17c2.753,1.943,6.224,2.813,9.784,2.152c3.171-0.598,6.373-1.285,9.545-2.094
					c6.882-1.705,11.102-8.707,9.396-15.619C296.284,384.197,289.283,379.979,282.401,381.713z"/>
				<path style="fill:#FFFFFF;" d="M377.701,208.947c0.897,2.723,2.603,4.937,4.787,6.478c3.231,2.274,7.451,3.037,11.49,1.706
					c6.762-2.244,10.412-9.545,8.198-16.292c-1.048-3.082-2.154-6.164-3.352-9.187c-2.663-6.598-10.173-9.813-16.786-7.166
					c-6.583,2.648-9.813,10.129-7.151,16.741C375.876,203.771,376.834,206.374,377.701,208.947z"/>
				<path style="fill:#FFFFFF;" d="M324.262,363.313c-2.274,1.496-4.608,2.932-7.002,4.309c-6.134,3.559-8.259,11.43-4.697,17.594
					c0.957,1.676,2.243,3.051,3.739,4.098c3.95,2.813,9.366,3.232,13.854,0.629c2.813-1.615,5.596-3.352,8.318-5.115
					c5.925-3.951,7.569-11.939,3.621-17.895C338.205,361.008,330.216,359.361,324.262,363.313z"/>
				<path style="fill:#FFFFFF;" d="M410.165,244.942c-0.27-7.106-6.253-12.656-13.375-12.388c-7.121,0.3-12.656,6.284-12.357,13.405
					c0.09,2.708,0.12,5.476,0.06,8.185c-0.089,4.457,2.096,8.438,5.477,10.83c2.004,1.422,4.457,2.291,7.121,2.35
					c7.121,0.148,13.016-5.49,13.165-12.613C410.345,251.465,410.314,248.189,410.165,244.942z"/>
				<path style="fill:#FFFFFF;" d="M375.605,329.381c-5.715-4.25-13.793-3.111-18.042,2.604c-1.675,2.184-3.381,4.309-5.146,6.402
					c-4.607,5.416-3.949,13.555,1.466,18.162c0.3,0.27,0.629,0.51,0.928,0.719c5.386,3.801,12.896,2.932,17.235-2.186
					c2.094-2.453,4.158-5.025,6.134-7.658C382.428,341.738,381.291,333.689,375.605,329.381z"/>
				<path style="fill:#FFFFFF;" d="M394.547,282.793c-6.793-2.123-14.033,1.676-16.158,8.438c-0.809,2.604-1.735,5.207-2.692,7.779
					c-2.155,5.625-0.091,11.791,4.607,15.111c0.867,0.629,1.796,1.107,2.842,1.496c6.644,2.543,14.094-0.777,16.638-7.451
					c1.166-3.021,2.214-6.133,3.201-9.215C405.109,292.158,401.338,284.947,394.547,282.793z"/>
				<path style="fill:#FFFFFF;" d="M226.142,383.568c-11.505-2.094-22.561-5.596-33.063-10.502c-0.104-0.09-0.224-0.15-0.358-0.211
					c-2.454-1.166-4.938-2.422-7.331-3.709c0,0,0-0.031-0.029-0.031c-4.369-2.422-8.663-5.086-12.822-8.018
					C111.917,318.4,97.33,234.32,140.028,173.7c9.305-13.195,20.556-24.176,33.063-32.884c0.149-0.104,0.329-0.239,0.479-0.329
					c44.135-30.415,104.104-32.465,150.991-1.211l-10.055,14.556c-2.812,4.055-1.106,7.002,3.801,6.553l43.746-3.919
					c4.906-0.435,7.838-4.668,6.521-9.41l-11.759-42.339c-1.317-4.743-4.667-5.312-7.479-1.258l-10.084,14.587
					c-34.409-23.099-75.679-31.91-116.642-24.805c-4.129,0.719-8.198,1.587-12.207,2.604c-0.03,0.016-0.03,0.016-0.075,0.016
					c-0.164,0.044-0.313,0.089-0.464,0.134c-35.337,9.066-66.126,29.683-88.118,59.064c-0.18,0.21-0.389,0.434-0.568,0.659
					c-0.719,1.002-1.437,1.989-2.154,3.022c-1.167,1.63-2.304,3.336-3.411,5.025c-0.135,0.21-0.24,0.419-0.359,0.614
					C97.105,192.49,88.354,225,89.865,258.107c0,0.105,0,0.225,0,0.33c0.134,3.23,0.403,6.508,0.748,9.754
					c0.015,0.211,0.074,0.389,0.104,0.6c0.359,3.26,0.808,6.492,1.361,9.754c5.76,33.152,21.409,63.014,44.867,86.264
					c0.045,0.029,0.104,0.09,0.164,0.148c0.016,0.029,0.045,0.029,0.045,0.061c6.313,6.223,13.166,11.969,20.557,17.145
					c19.299,13.645,40.782,22.619,63.882,26.75c7.017,1.256,13.703-3.383,14.96-10.383
					C237.811,391.527,233.144,384.826,226.142,383.568z"/>
				<path style="fill:#FFFFFF;" d="M242.09,147.025c-5.775,0-10.442,4.683-10.442,10.428V261.34l95.037,49.131
					c1.526,0.777,3.143,1.137,4.758,1.137c3.8,0,7.42-2.035,9.276-5.625c2.632-5.115,0.657-11.4-4.459-14.063l-83.758-43.282
					v-91.185C252.502,151.708,247.834,147.025,242.09,147.025z"/>
			</g>
		</g>
	</g>
</g>
</svg>
